<?xml version="1.0" encoding="utf-8"?>
<!-- Generator: Adobe Illustrator 22.0.0, SVG Export Plug-In . SVG Version: 6.00 Build 0)  -->
<svg version="1.1" id="Layer_1" xmlns="http://www.w3.org/2000/svg" xmlns:xlink="http://www.w3.org/1999/xlink" x="0px" y="0px"
	 viewBox="0 0 371.7 123.7" style="enable-background:new 0 0 371.7 123.7;" xml:space="preserve">
<g>
	<g style="opacity:0.19;">
		<path style="fill:#FFC50B;" d="M27.6,20.6c1.1,1.5,1.7,3.2,1.7,5.1c0,2.1-0.7,3.9-2.1,5.5c-1.4,1.6-3.3,2.7-5.6,3.6
			c-2.4,0.8-4.9,1.2-7.8,1.2c-2.4,0-4.7-0.3-7.1-0.9c-2.4-0.6-4.6-1.5-6.7-2.7l2.5-5.7c1.5,0.9,3.2,1.6,5,2.1
			c1.8,0.5,3.6,0.7,5.4,0.7c2.4,0,4.4-0.4,5.9-1.3c1.6-0.9,2.4-2.1,2.4-3.6c0-1.3-0.5-2.3-1.6-2.9c-1.1-0.7-2.5-1-4.4-1H6.7v-6h7.9
			c1.6,0,2.9-0.3,3.8-1c0.9-0.7,1.4-1.6,1.4-2.7c0-1.4-0.7-2.4-2-3.2c-1.3-0.8-3-1.1-5-1.1c-1.5,0-3.1,0.2-4.7,0.6
			c-1.6,0.4-3.2,1-4.6,1.9L1,2.8C4.7,0.9,8.6,0,12.9,0c2.7,0,5.2,0.4,7.5,1.2c2.3,0.8,4.1,1.9,5.5,3.5c1.4,1.5,2,3.3,2,5.3
			c0,1.7-0.4,3.1-1.3,4.4s-2.1,2.3-3.7,3C24.9,18,26.4,19.1,27.6,20.6z"/>
		<path style="fill:#FFC50B;" d="M59.9,11.3c2.2,2,3.3,4.9,3.3,8.9v15.2h-7.2v-3.3c-1.5,2.5-4.2,3.7-8.1,3.7c-2,0-3.8-0.3-5.3-1
			c-1.5-0.7-2.7-1.7-3.4-2.9c-0.8-1.2-1.2-2.6-1.2-4.2c0-2.5,0.9-4.4,2.8-5.8c1.9-1.4,4.7-2.1,8.6-2.1h6.1c0-1.7-0.5-3-1.5-3.9
			c-1-0.9-2.6-1.4-4.6-1.4c-1.4,0-2.8,0.2-4.2,0.7c-1.4,0.4-2.5,1-3.5,1.8l-2.8-5.4c1.5-1,3.2-1.8,5.2-2.4c2-0.6,4.1-0.8,6.3-0.8
			C54.5,8.4,57.6,9.4,59.9,11.3z M53.3,29.7c1-0.6,1.8-1.5,2.2-2.7v-2.7h-5.3c-3.2,0-4.8,1-4.8,3.1c0,1,0.4,1.8,1.2,2.4
			c0.8,0.6,1.8,0.9,3.2,0.9C51.1,30.6,52.2,30.3,53.3,29.7z"/>
		<path style="fill:#FFC50B;" d="M101.4,8.8v26.7h-7.7V15.1H82.6v20.3h-7.7V8.8H101.4z"/>
		<path style="fill:#FFC50B;" d="M113.8,8.8h7.7v15.9l13-15.9h7.1v26.7h-7.7V19.6l-12.9,15.9h-7.1V8.8z"/>
		<path style="fill:#FFC50B;" d="M158.9,34.1c-2.3-1.2-4-2.8-5.3-4.9c-1.3-2.1-1.9-4.4-1.9-7.1s0.6-5,1.9-7.1c1.3-2.1,3-3.7,5.3-4.9
			c2.3-1.2,4.8-1.8,7.7-1.8c2.8,0,5.3,0.6,7.4,1.8c2.1,1.2,3.6,2.8,4.6,5l-6,3.2c-1.4-2.4-3.4-3.7-6-3.7c-2,0-3.7,0.7-5,2
			s-2,3.1-2,5.4c0,2.3,0.7,4.1,2,5.4c1.3,1.3,3,2,5,2c2.6,0,4.6-1.2,6-3.7l6,3.3c-1,2.1-2.5,3.8-4.6,5c-2.1,1.2-4.6,1.8-7.4,1.8
			C163.8,35.8,161.2,35.2,158.9,34.1z"/>
		<path style="fill:#FFC50B;" d="M208.1,11.3c2.2,2,3.3,4.9,3.3,8.9v15.2h-7.2v-3.3c-1.5,2.5-4.2,3.7-8.1,3.7c-2,0-3.8-0.3-5.3-1
			c-1.5-0.7-2.7-1.7-3.4-2.9c-0.8-1.2-1.2-2.6-1.2-4.2c0-2.5,0.9-4.4,2.8-5.8c1.9-1.4,4.7-2.1,8.6-2.1h6.1c0-1.7-0.5-3-1.5-3.9
			c-1-0.9-2.6-1.4-4.6-1.4c-1.4,0-2.8,0.2-4.2,0.7c-1.4,0.4-2.5,1-3.5,1.8l-2.8-5.4c1.5-1,3.2-1.8,5.2-2.4s4.1-0.8,6.3-0.8
			C202.7,8.4,205.9,9.4,208.1,11.3z M201.5,29.7c1-0.6,1.8-1.5,2.2-2.7v-2.7h-5.3c-3.2,0-4.8,1-4.8,3.1c0,1,0.4,1.8,1.2,2.4
			c0.8,0.6,1.8,0.9,3.2,0.9C199.3,30.6,200.5,30.3,201.5,29.7z"/>
		<path style="fill:#FFC50B;" d="M245.5,15.1h-9v20.3h-7.7V15.1h-9V8.8h25.7V15.1z"/>
		<path style="fill:#FFC50B;" d="M276.9,19.6c1.8,1.5,2.8,3.7,2.8,6.5c0,2.9-1,5.2-3.1,6.9c-2.1,1.6-5,2.5-8.7,2.5l-13.4,0V8.8h7.7
			v8.5h6.7C272.4,17.3,275.1,18.1,276.9,19.6z M270.7,29c0.8-0.7,1.2-1.7,1.2-3c0-1.3-0.4-2.2-1.2-2.8c-0.8-0.6-1.9-0.9-3.4-0.9
			l-5,0V30h5C268.7,30,269.9,29.7,270.7,29z"/>
		<path style="fill:#FFC50B;" d="M294.5,34.1c-2.3-1.2-4-2.8-5.3-4.9c-1.3-2.1-1.9-4.4-1.9-7.1s0.6-5,1.9-7.1c1.3-2.1,3-3.7,5.3-4.9
			c2.3-1.2,4.8-1.8,7.7-1.8c2.8,0,5.3,0.6,7.4,1.8c2.1,1.2,3.6,2.8,4.6,5l-6,3.2c-1.4-2.4-3.4-3.7-6-3.7c-2,0-3.7,0.7-5,2
			s-2,3.1-2,5.4c0,2.3,0.7,4.1,2,5.4c1.3,1.3,3,2,5,2c2.6,0,4.6-1.2,6-3.7l6,3.3c-1,2.1-2.5,3.8-4.6,5c-2.1,1.2-4.6,1.8-7.4,1.8
			C299.3,35.8,296.8,35.2,294.5,34.1z"/>
		<path style="fill:#FFC50B;" d="M346.8,8.8v26.7h-6.9v-7.6h-5.7l-5.1,7.6h-8.2l6.1-8.7c-1.9-0.7-3.3-1.8-4.2-3.1
			c-1-1.4-1.5-3-1.5-5c0-3.1,1.1-5.6,3.4-7.3c2.3-1.7,5.4-2.6,9.3-2.6H346.8z M330.4,16c-0.8,0.6-1.3,1.6-1.3,2.9s0.4,2.3,1.2,2.9
			c0.8,0.6,2,0.9,3.7,0.9h5.8v-7.6h-5.7C332.5,15.1,331.3,15.4,330.4,16z"/>
		<path style="fill:#FFC50B;" d="M2.5,76.3h7.7v10.4h11.6V76.3h7.7v26.7h-7.7V93H10.2v10H2.5V76.3z"/>
		<path style="fill:#FFC50B;" d="M61.7,78.8c2.2,2,3.3,4.9,3.3,8.9v15.2h-7.2v-3.3c-1.5,2.5-4.2,3.7-8.1,3.7c-2,0-3.8-0.3-5.3-1
			c-1.5-0.7-2.7-1.7-3.4-2.9c-0.8-1.2-1.2-2.6-1.2-4.2c0-2.5,0.9-4.4,2.8-5.8c1.9-1.4,4.7-2.1,8.6-2.1h6.1c0-1.7-0.5-3-1.5-3.9
			c-1-0.9-2.6-1.4-4.6-1.4c-1.4,0-2.8,0.2-4.2,0.7c-1.4,0.4-2.5,1-3.5,1.8l-2.8-5.4c1.5-1,3.2-1.8,5.2-2.4c2-0.6,4.1-0.8,6.3-0.8
			C56.4,75.9,59.5,76.9,61.7,78.8z M55.2,97.2c1-0.6,1.8-1.5,2.2-2.7v-2.7H52c-3.2,0-4.8,1-4.8,3.1c0,1,0.4,1.8,1.2,2.4
			c0.8,0.6,1.8,0.9,3.2,0.9C53,98.1,54.1,97.8,55.2,97.2z"/>
		<path style="fill:#FFC50B;" d="M107.5,92.8h-4v10.1h-7.7V76.3h7.7v10.4h4.2l7.2-10.4h8.2l-9.3,12.8l10,13.9h-9.1L107.5,92.8z"/>
		<path style="fill:#FFC50B;" d="M157.7,76.3l-12,28.3c-1.2,3.1-2.7,5.2-4.5,6.5c-1.8,1.3-4,1.9-6.5,1.9c-1.4,0-2.8-0.2-4.1-0.6
			c-1.4-0.4-2.5-1-3.3-1.8l2.8-5.5c0.6,0.5,1.3,0.9,2.1,1.2c0.8,0.3,1.5,0.4,2.3,0.4c1.1,0,1.9-0.3,2.6-0.8c0.7-0.5,1.3-1.4,1.8-2.6
			l0.1-0.2l-11.5-26.9h8l7.5,18.1l7.5-18.1H157.7z"/>
		<path style="fill:#FFC50B;" d="M188.9,77.6c2,1.1,3.6,2.7,4.8,4.8c1.2,2.1,1.7,4.5,1.7,7.2s-0.6,5.1-1.7,7.2
			c-1.2,2.1-2.8,3.7-4.8,4.8s-4.3,1.7-6.8,1.7c-3.4,0-6.1-1.1-8-3.2v12.4h-7.7V76.3h7.4v3.1c1.9-2.3,4.7-3.5,8.4-3.5
			C184.6,75.9,186.8,76.4,188.9,77.6z M185.6,95c1.3-1.3,1.9-3.1,1.9-5.4s-0.6-4-1.9-5.4s-2.9-2-4.9-2c-2,0-3.6,0.7-4.9,2
			s-1.9,3.1-1.9,5.4s0.6,4,1.9,5.4s2.9,2,4.9,2C182.7,97,184.4,96.3,185.6,95z"/>
		<path style="fill:#FFC50B;" d="M210.8,101.6c-2.3-1.2-4-2.8-5.3-4.9c-1.3-2.1-1.9-4.4-1.9-7.1s0.6-5,1.9-7.1
			c1.3-2.1,3-3.7,5.3-4.9c2.3-1.2,4.8-1.8,7.7-1.8c2.8,0,5.3,0.6,7.4,1.8c2.1,1.2,3.6,2.8,4.6,5l-6,3.2c-1.4-2.4-3.4-3.7-6-3.7
			c-2,0-3.7,0.7-5,2c-1.3,1.3-2,3.1-2,5.4c0,2.3,0.7,4.1,2,5.4c1.3,1.3,3,2,5,2c2.6,0,4.6-1.2,6-3.7l6,3.3c-1,2.1-2.5,3.8-4.6,5
			s-4.6,1.8-7.4,1.8C215.6,103.3,213,102.7,210.8,101.6z"/>
	</g>
	<g>
		<path style="fill:#FFC50B;" d="M52.6,31.4c1.1,1.5,1.7,3.2,1.7,5.1c0,2.1-0.7,3.9-2.1,5.5s-3.3,2.7-5.6,3.6
			c-2.4,0.8-4.9,1.2-7.8,1.2c-2.4,0-4.7-0.3-7.1-0.9c-2.4-0.6-4.6-1.5-6.7-2.7l2.5-5.7c1.5,0.9,3.2,1.6,5,2.1
			c1.8,0.5,3.6,0.7,5.4,0.7c2.4,0,4.4-0.4,5.9-1.3c1.6-0.9,2.4-2.1,2.4-3.6c0-1.3-0.5-2.3-1.6-2.9c-1.1-0.7-2.5-1-4.4-1h-8.5v-6h7.9
			c1.6,0,2.9-0.3,3.8-1c0.9-0.7,1.4-1.6,1.4-2.7c0-1.4-0.7-2.4-2-3.2c-1.3-0.8-3-1.1-5-1.1c-1.5,0-3.1,0.2-4.7,0.6
			c-1.6,0.4-3.2,1-4.6,1.9L26,13.6c3.7-1.9,7.6-2.8,11.9-2.8c2.7,0,5.2,0.4,7.5,1.2c2.3,0.8,4.1,1.9,5.5,3.5c1.4,1.5,2,3.3,2,5.3
			c0,1.7-0.4,3.1-1.3,4.4c-0.9,1.3-2.1,2.3-3.7,3C49.8,28.8,51.4,29.9,52.6,31.4z"/>
		<path style="fill:#FFC50B;" d="M84.8,22.1c2.2,2,3.3,4.9,3.3,8.9v15.2h-7.2v-3.3c-1.5,2.5-4.2,3.7-8.1,3.7c-2,0-3.8-0.3-5.3-1
			c-1.5-0.7-2.7-1.7-3.4-2.9c-0.8-1.2-1.2-2.6-1.2-4.2c0-2.5,0.9-4.4,2.8-5.8c1.9-1.4,4.7-2.1,8.6-2.1h6.1c0-1.7-0.5-3-1.5-3.9
			c-1-0.9-2.6-1.4-4.6-1.4c-1.4,0-2.8,0.2-4.2,0.7c-1.4,0.4-2.5,1-3.5,1.8l-2.8-5.4c1.5-1,3.2-1.8,5.2-2.4s4.1-0.8,6.3-0.8
			C79.4,19.2,82.6,20.2,84.8,22.1z M78.2,40.5c1-0.6,1.8-1.5,2.2-2.7v-2.7h-5.3c-3.2,0-4.8,1-4.8,3.1c0,1,0.4,1.8,1.2,2.4
			c0.8,0.6,1.8,0.9,3.2,0.9C76,41.4,77.2,41.1,78.2,40.5z"/>
		<path style="fill:#FFC50B;" d="M126.4,19.6v26.7h-7.7V25.9h-11.1v20.3h-7.7V19.6H126.4z"/>
		<path style="fill:#FFC50B;" d="M138.7,19.6h7.7v15.9l13-15.9h7.1v26.7h-7.7V30.4l-12.9,15.9h-7.1V19.6z"/>
		<path style="fill:#FFC50B;" d="M183.9,44.9c-2.3-1.2-4-2.8-5.3-4.9c-1.3-2.1-1.9-4.4-1.9-7.1s0.6-5,1.9-7.1c1.3-2.1,3-3.7,5.3-4.9
			c2.3-1.2,4.8-1.8,7.7-1.8c2.8,0,5.3,0.6,7.4,1.8c2.1,1.2,3.6,2.8,4.6,5l-6,3.2c-1.4-2.4-3.4-3.7-6-3.7c-2,0-3.7,0.7-5,2
			c-1.3,1.3-2,3.1-2,5.4c0,2.3,0.7,4.1,2,5.4c1.3,1.3,3,2,5,2c2.6,0,4.6-1.2,6-3.7l6,3.3c-1,2.1-2.5,3.8-4.6,5s-4.6,1.8-7.4,1.8
			C188.7,46.6,186.2,46,183.9,44.9z"/>
		<path style="fill:#FFC50B;" d="M233,22.1c2.2,2,3.3,4.9,3.3,8.9v15.2h-7.2v-3.3c-1.5,2.5-4.2,3.7-8.1,3.7c-2,0-3.8-0.3-5.3-1
			c-1.5-0.7-2.7-1.7-3.4-2.9c-0.8-1.2-1.2-2.6-1.2-4.2c0-2.5,0.9-4.4,2.8-5.8s4.7-2.1,8.6-2.1h6.1c0-1.7-0.5-3-1.5-3.9
			c-1-0.9-2.6-1.4-4.6-1.4c-1.4,0-2.8,0.2-4.2,0.7c-1.4,0.4-2.5,1-3.5,1.8l-2.8-5.4c1.5-1,3.2-1.8,5.2-2.4s4.1-0.8,6.3-0.8
			C227.7,19.2,230.8,20.2,233,22.1z M226.5,40.5c1-0.6,1.8-1.5,2.2-2.7v-2.7h-5.3c-3.2,0-4.8,1-4.8,3.1c0,1,0.4,1.8,1.2,2.4
			c0.8,0.6,1.8,0.9,3.2,0.9C224.3,41.4,225.4,41.1,226.5,40.5z"/>
		<path style="fill:#FFC50B;" d="M270.5,25.9h-9v20.3h-7.7V25.9h-9v-6.3h25.7V25.9z"/>
		<path style="fill:#FFC50B;" d="M301.9,30.4c1.8,1.5,2.8,3.7,2.8,6.5c0,2.9-1,5.2-3.1,6.9c-2.1,1.6-5,2.5-8.7,2.5l-13.4,0V19.6h7.7
			v8.5h6.7C297.4,28.1,300.1,28.9,301.9,30.4z M295.6,39.8c0.8-0.7,1.2-1.7,1.2-3c0-1.3-0.4-2.2-1.2-2.8c-0.8-0.6-1.9-0.9-3.4-0.9
			l-5,0v7.7h5C293.7,40.8,294.8,40.5,295.6,39.8z"/>
		<path style="fill:#FFC50B;" d="M319.5,44.9c-2.3-1.2-4-2.8-5.3-4.9c-1.3-2.1-1.9-4.4-1.9-7.1s0.6-5,1.9-7.1c1.3-2.1,3-3.7,5.3-4.9
			c2.3-1.2,4.8-1.8,7.7-1.8c2.8,0,5.3,0.6,7.4,1.8c2.1,1.2,3.6,2.8,4.6,5l-6,3.2c-1.4-2.4-3.4-3.7-6-3.7c-2,0-3.7,0.7-5,2
			s-2,3.1-2,5.4c0,2.3,0.7,4.1,2,5.4c1.3,1.3,3,2,5,2c2.6,0,4.6-1.2,6-3.7l6,3.3c-1,2.1-2.5,3.8-4.6,5c-2.1,1.2-4.6,1.8-7.4,1.8
			C324.3,46.6,321.7,46,319.5,44.9z"/>
		<path style="fill:#FFC50B;" d="M371.7,19.6v26.7h-6.9v-7.6h-5.7l-5.1,7.6h-8.2l6.1-8.7c-1.8-0.7-3.3-1.8-4.2-3.1
			c-1-1.4-1.5-3-1.5-5c0-3.1,1.1-5.6,3.4-7.3c2.3-1.7,5.4-2.6,9.3-2.6H371.7z M355.4,26.8c-0.8,0.6-1.3,1.6-1.3,2.9s0.4,2.3,1.2,2.9
			c0.8,0.6,2,0.9,3.7,0.9h5.8v-7.6h-5.7C357.5,25.9,356.3,26.2,355.4,26.8z"/>
		<path style="fill:#FFC50B;" d="M27.5,87.1h7.7v10.4h11.6V87.1h7.7v26.7h-7.7v-10H35.2v10h-7.7V87.1z"/>
		<path style="fill:#FFC50B;" d="M86.7,89.6c2.2,2,3.3,4.9,3.3,8.9v15.2h-7.2v-3.3c-1.5,2.5-4.2,3.7-8.1,3.7c-2,0-3.8-0.3-5.3-1
			c-1.5-0.7-2.7-1.7-3.4-2.9c-0.8-1.2-1.2-2.6-1.2-4.2c0-2.5,0.9-4.4,2.8-5.8c1.9-1.4,4.7-2.1,8.6-2.1h6.1c0-1.7-0.5-3-1.5-3.9
			c-1-0.9-2.6-1.4-4.6-1.4c-1.4,0-2.8,0.2-4.2,0.7c-1.4,0.4-2.5,1-3.5,1.8l-2.8-5.4c1.5-1,3.2-1.8,5.2-2.4s4.1-0.8,6.3-0.8
			C81.3,86.7,84.5,87.7,86.7,89.6z M80.1,108c1-0.6,1.8-1.5,2.2-2.7v-2.7H77c-3.2,0-4.8,1-4.8,3.1c0,1,0.4,1.8,1.2,2.4
			c0.8,0.6,1.8,0.9,3.2,0.9C77.9,108.9,79.1,108.6,80.1,108z"/>
		<path style="fill:#FFC50B;" d="M132.5,103.6h-4v10.1h-7.7V87.1h7.7v10.4h4.2l7.2-10.4h8.2l-9.3,12.8l10,13.9h-9.1L132.5,103.6z"/>
		<path style="fill:#FFC50B;" d="M182.7,87.1l-12,28.3c-1.2,3.1-2.7,5.2-4.5,6.5c-1.8,1.3-4,1.9-6.5,1.9c-1.4,0-2.8-0.2-4.1-0.6
			c-1.4-0.4-2.5-1-3.3-1.8l2.8-5.5c0.6,0.5,1.3,0.9,2.1,1.2c0.8,0.3,1.5,0.4,2.3,0.4c1.1,0,1.9-0.3,2.6-0.8c0.7-0.5,1.3-1.4,1.8-2.6
			l0.1-0.2l-11.5-26.9h8l7.5,18.1l7.5-18.1H182.7z"/>
		<path style="fill:#FFC50B;" d="M213.8,88.4c2,1.1,3.6,2.7,4.8,4.8c1.2,2.1,1.7,4.5,1.7,7.2s-0.6,5.1-1.7,7.2
			c-1.2,2.1-2.8,3.7-4.8,4.8s-4.3,1.7-6.8,1.7c-3.4,0-6.1-1.1-8-3.2v12.4h-7.7V87.1h7.4v3.1c1.9-2.3,4.7-3.5,8.4-3.5
			C209.6,86.7,211.8,87.2,213.8,88.4z M210.6,105.8c1.3-1.3,1.9-3.1,1.9-5.4s-0.6-4-1.9-5.4s-2.9-2-4.9-2c-2,0-3.6,0.7-4.9,2
			s-1.9,3.1-1.9,5.4s0.6,4,1.9,5.4s2.9,2,4.9,2C207.7,107.8,209.3,107.1,210.6,105.8z"/>
		<path style="fill:#FFC50B;" d="M235.7,112.4c-2.3-1.2-4-2.8-5.3-4.9c-1.3-2.1-1.9-4.4-1.9-7.1s0.6-5,1.9-7.1
			c1.3-2.1,3-3.7,5.3-4.9c2.3-1.2,4.8-1.8,7.7-1.8c2.8,0,5.3,0.6,7.4,1.8c2.1,1.2,3.6,2.8,4.6,5l-6,3.2c-1.4-2.4-3.4-3.7-6-3.7
			c-2,0-3.7,0.7-5,2c-1.3,1.3-2,3.1-2,5.4c0,2.3,0.7,4.1,2,5.4c1.3,1.3,3,2,5,2c2.6,0,4.6-1.2,6-3.7l6,3.3c-1,2.1-2.5,3.8-4.6,5
			s-4.6,1.8-7.4,1.8C240.6,114.1,238,113.5,235.7,112.4z"/>
	</g>
</g>
</svg>
