<?xml version="1.0" encoding="utf-8"?>
<!-- Generator: Adobe Illustrator 22.0.0, SVG Export Plug-In . SVG Version: 6.00 Build 0)  -->
<svg version="1.1" id="Layer_1" xmlns="http://www.w3.org/2000/svg" xmlns:xlink="http://www.w3.org/1999/xlink" x="0px" y="0px"
	 viewBox="0 0 256.2 256" style="enable-background:new 0 0 256.2 256;" xml:space="preserve">
<radialGradient id="SVGID_1_" cx="124.8575" cy="214.6397" r="110.9669" gradientTransform="matrix(0.9684 0 0 1.0731 4.0699 -104.1785)" gradientUnits="userSpaceOnUse">
	<stop  offset="0.3243" style="stop-color:#880AFF"/>
	<stop  offset="1" style="stop-color:#9543FF;stop-opacity:0"/>
</radialGradient>
<circle style="fill:url(#SVGID_1_);" cx="129" cy="128.4" r="128"/>
<g>
	<g>
		<g>
			<g>
				<g>
					<g>
						<path style="fill:#7118C4;" d="M196.4,108.4l4.4,6.5c2.7,4.1,6.9,5.2,10.7,3.9l14.5-5.1c3-0.8,2.3-1.4,1.2-5.2l-1.5-5.2
							c-1.2-3.8-0.6-4.9-3.9-3.7l-15.6,5.3C202.3,106.1,197.7,108,196.4,108.4z"/>
						<path style="fill:#792BD8;" d="M198.9,107.4l4.3,6.5c2.7,3.6,5.3,5.9,9.2,4.6l15.6-5.3c3-0.8,2.3-1.4,1.1-5.3l-1.6-5.3
							c-1.2-3.8-0.7-5-4-3.8l-15.6,5.3C204.1,105.5,200.2,107,198.9,107.4z"/>
					</g>
					
						<radialGradient id="SVGID_2_" cx="2893.7314" cy="2876.5918" r="29.8919" gradientTransform="matrix(0.4509 -1.0785 -0.8853 -1.8363 1491.6384 8510.5791)" gradientUnits="userSpaceOnUse">
						<stop  offset="0.5784" style="stop-color:#BB3AFB"/>
						<stop  offset="0.9459" style="stop-color:#FFFFFF;stop-opacity:0"/>
					</radialGradient>
					<path style="fill:url(#SVGID_2_);" d="M224.9,98.3l-11.6,3.8c-0.7,0.2-1.1,1-0.9,1.7l3.6,12c0.2,0.7,1,1.1,1.7,0.9l11.6-3.8
						c0.7-0.2,1.1-1,0.9-1.7l-3.6-12C226.3,98.4,225.6,98,224.9,98.3z"/>
					
						<linearGradient id="SVGID_3_" gradientUnits="userSpaceOnUse" x1="3129.3823" y1="4155.1777" x2="3159.2119" y2="4155.1777" gradientTransform="matrix(0.4563 -0.5604 -0.529 -0.7954 973.9282 5178.8838)">
						<stop  offset="0" style="stop-color:#231F20"/>
						<stop  offset="9.267996e-02" style="stop-color:#2C292A"/>
						<stop  offset="0.2481" style="stop-color:#464343"/>
						<stop  offset="0.4473" style="stop-color:#706D6E"/>
						<stop  offset="0.6825" style="stop-color:#A9A8A8"/>
						<stop  offset="0.9451" style="stop-color:#F2F2F2"/>
						<stop  offset="0.9892" style="stop-color:#FFFFFF"/>
					</linearGradient>
					<path style="opacity:0.5;fill:url(#SVGID_3_);" d="M196.7,108.9l4.4,6.3c2.8,3.6,6,5.3,12,3l11.1-3.7c2-0.5-3.6,0.2-4.8-3.6
						l-0.9-4.4c-1.2-3.8-0.9-4.9-3.1-4.1l-10.2,3.6C202.7,106.8,197.7,108.6,196.7,108.9z"/>
					
						<radialGradient id="SVGID_4_" cx="3603.6475" cy="3987.0308" r="54.5569" gradientTransform="matrix(0.7508 -0.6595 -0.6331 -0.7344 59.4353 5373.1519)" gradientUnits="userSpaceOnUse">
						<stop  offset="0.5784" style="stop-color:#533AFB"/>
						<stop  offset="0.9459" style="stop-color:#FFFFFF;stop-opacity:0"/>
					</radialGradient>
					<path style="fill:url(#SVGID_4_);" d="M225.6,98.7L225.6,98.7c-0.4,0.1-0.7,0.6-0.5,0.9l3.7,12.2c0.1,0.4,0.5,0.6,0.9,0.5
						l0.1,0c0.4-0.1,0.6-0.5,0.5-0.9l-3.7-12.2C226.4,98.8,226,98.6,225.6,98.7z"/>
				</g>
				<g>
					<g>
						<path style="fill:#7118C4;" d="M194.1,102.2l-0.2-8c-0.4-4.9,1.5-7.9,5.3-9.3l15.5-5.7c2.9-1.2,2.7-0.3,3.9,3.4l1.8,5.1
							c1.3,3.8,2.3,4.3-1,5.5L203.9,99C200.1,100.4,195.4,101.7,194.1,102.2z"/>
						<path style="fill:#792BD8;" d="M196.6,101.4l-0.3-7.9c0.1-4.6,0.8-8.1,4.6-9.5l15.5-5.7c2.9-1.2,2.7-0.3,3.9,3.5l1.8,5.2
							c1.3,3.8,2.3,4.4-1,5.5l-15.5,5.7C201.9,99.7,197.9,100.9,196.6,101.4z"/>
					</g>
					
						<radialGradient id="SVGID_5_" cx="2179.7134" cy="1006.9514" r="29.8919" gradientTransform="matrix(0.9813 0.5744 0.3533 2.0235 -2257.5173 -3220.53)" gradientUnits="userSpaceOnUse">
						<stop  offset="0.5784" style="stop-color:#BD3AFB"/>
						<stop  offset="0.9459" style="stop-color:#FFFFFF;stop-opacity:0"/>
					</radialGradient>
					<path style="fill:url(#SVGID_5_);" d="M222.6,92.3l-11.4,4.3c-0.7,0.3-1.5-0.1-1.7-0.8l-4.1-11.9c-0.2-0.7,0.1-1.5,0.8-1.7
						l11.4-4.3c0.7-0.3,1.5,0.1,1.7,0.8l4.1,11.9C223.7,91.3,223.3,92,222.6,92.3z"/>
					
						<linearGradient id="SVGID_6_" gradientUnits="userSpaceOnUse" x1="1410.1943" y1="-28.2445" x2="1439.6584" y2="-28.2445" gradientTransform="matrix(0.7023 0.1706 5.947617e-02 0.9534 -795.4078 -125.5387)">
						<stop  offset="0" style="stop-color:#231F20"/>
						<stop  offset="9.267996e-02" style="stop-color:#2C292A"/>
						<stop  offset="0.2481" style="stop-color:#464343"/>
						<stop  offset="0.4473" style="stop-color:#706D6E"/>
						<stop  offset="0.6825" style="stop-color:#A9A8A8"/>
						<stop  offset="0.9451" style="stop-color:#F2F2F2"/>
						<stop  offset="0.9892" style="stop-color:#FFFFFF"/>
					</linearGradient>
					<path style="opacity:0.5;fill:url(#SVGID_6_);" d="M194.1,101.6l-0.2-8.1c-0.5-4.4,1.4-7.7,7.6-9.6l11.2-4.1
						c1.9-0.8-3,2.1-1.7,5.9l1.9,4.1c1.3,3.8,2.1,4.5-0.1,5.2l-10.2,3.7C199.9,99.7,195,101.2,194.1,101.6z"/>
					
						<radialGradient id="SVGID_7_" cx="1867.8169" cy="-177.556" r="54.5569" gradientTransform="matrix(0.9787 5.076401e-02 -8.108543e-02 0.9857 -1589.8265 185.9822)" gradientUnits="userSpaceOnUse">
						<stop  offset="0.5784" style="stop-color:#533AFB"/>
						<stop  offset="0.9459" style="stop-color:#FFFFFF;stop-opacity:0"/>
					</radialGradient>
					<path style="fill:url(#SVGID_7_);" d="M222.9,91.4L222.9,91.4c-0.4,0.2-0.8,0-1-0.4l-4.1-12c-0.1-0.4,0.1-0.8,0.5-0.9l0.1,0
						c0.4-0.1,0.8,0.1,0.9,0.4l4.1,12C223.5,90.9,223.3,91.3,222.9,91.4z"/>
				</g>
				<g>
					
						<radialGradient id="SVGID_8_" cx="-1666.1071" cy="922.7944" r="25.9074" gradientTransform="matrix(4.0649 0.2781 -0.3595 3.6473 7279.6792 -2777.0625)" gradientUnits="userSpaceOnUse">
						<stop  offset="0" style="stop-color:#8063FF"/>
						<stop  offset="0.3353" style="stop-color:#7E61FC"/>
						<stop  offset="0.5397" style="stop-color:#785BF4"/>
						<stop  offset="0.7089" style="stop-color:#6D52E6"/>
						<stop  offset="0.8581" style="stop-color:#5E44D1"/>
						<stop  offset="0.9942" style="stop-color:#4A32B7"/>
						<stop  offset="1" style="stop-color:#4931B6"/>
					</radialGradient>
					<path style="fill:url(#SVGID_8_);" d="M126.1,207.2c-1-0.2-2-0.5-3-0.7c0,0,0,0-0.1,0c-1-0.3-1.9-0.6-2.8-0.9
						c-0.1,0-0.1,0-0.2-0.1c-0.9-0.3-1.8-0.7-2.8-1.1c-0.1,0-0.2-0.1-0.2-0.1c-0.9-0.4-1.8-0.8-2.7-1.2c-0.1,0-0.1-0.1-0.2-0.1
						c-0.9-0.4-1.8-0.9-2.7-1.4c-0.1,0-0.1-0.1-0.2-0.1c-0.9-0.5-1.8-1.1-2.7-1.6c0,0,0,0-0.1,0c-0.9-0.6-1.8-1.2-2.7-1.8
						c0,0-0.1-0.1-0.1-0.1c-0.9-0.6-1.8-1.3-2.7-2c-0.9-0.8-1.8-1.5-2.8-2.3c0,0,0,0,0,0c-0.9-0.8-1.8-1.6-2.6-2.5
						c0,0-0.1-0.1-0.1-0.1c-0.8-0.8-1.7-1.7-2.5-2.6c-0.1-0.1-0.1-0.1-0.2-0.2c-0.8-0.9-1.6-1.8-2.4-2.7c-0.1-0.1-0.1-0.1-0.2-0.2
						c-0.8-0.9-1.5-1.9-2.2-2.9c-0.1-0.1-0.1-0.2-0.2-0.3c-0.7-1-1.5-2-2.2-3c0-0.1-0.1-0.1-0.1-0.2c-0.7-1.1-1.4-2.1-2.1-3.2
						c0,0-0.1-0.1-0.1-0.1c-0.7-1.1-1.4-2.3-2-3.4c0-0.1-0.1-0.1-0.1-0.2c-0.7-1.2-1.3-2.4-1.9-3.6c0-0.1-0.1-0.2-0.1-0.3
						c-0.6-1.2-1.2-2.5-1.7-3.7c0-0.1-0.1-0.1-0.1-0.2c-0.6-1.3-1.1-2.5-1.6-3.8c0-0.1-0.1-0.2-0.1-0.3c0,0,0,0,0,0
						c-0.5-1.3-1-2.5-1.4-3.8c-0.1-0.2-0.1-0.3-0.2-0.5c-0.4-1.3-0.9-2.6-1.3-3.9c0-0.2-0.1-0.3-0.1-0.5c-0.4-1.3-0.7-2.5-1.1-3.8
						c0-0.2-0.1-0.4-0.1-0.5c-0.3-1.3-0.6-2.6-0.9-3.8c-0.1-0.3-0.1-0.5-0.2-0.8c-0.3-1.3-0.5-2.6-0.7-3.9c0-0.2-0.1-0.5-0.1-0.7
						c-0.1-0.9-0.3-1.8-0.4-2.7c-0.1-0.8-0.2-1.5-0.3-2.3c-0.1-0.8-0.2-1.5-0.2-2.3c-0.1-0.8-0.2-1.6-0.2-2.4
						c-0.1-0.7-0.1-1.5-0.1-2.2c0-0.8-0.1-1.7-0.1-2.5c0-0.7,0-1.4,0-2.1c0-0.9,0-1.7,0-2.6c0-0.7,0-1.4,0.1-2.1
						c0-0.9,0-1.7,0.1-2.6c0-0.8,0.1-1.5,0.2-2.3c0.1-0.8,0.1-1.6,0.2-2.4c0.1-1,0.2-1.9,0.3-2.9c0.1-0.6,0.1-1.2,0.2-1.8
						c0.2-1.6,0.5-3.1,0.7-4.7c1.3-7.4,3.4-14.3,6-20.5c2.6-6.1,5.7-11.5,9.2-16.2c3.4-4.6,7.2-8.5,11.3-11.7
						c1.6-1.2,3.2-2.3,4.8-3.3c1.5-0.9,2.9-1.8,4.4-2.5c1.1-0.5,2.1-1,3.2-1.4c0,0,0,0,0,0c0,0,0,0,0,0l-10.5,4.2
						c-4.3,1.7-8.5,4.1-12.4,7.1c-4.1,3.1-7.9,6.9-11.3,11.3c-3.5,4.6-6.6,9.8-9.2,15.6c-2.6,6-4.7,12.5-6,19.6
						c-0.3,1.5-0.5,3-0.7,4.4c-0.1,0.6-0.2,1.3-0.2,1.9c-0.1,0.8-0.2,1.6-0.3,2.4c0,0.1,0,0.1,0,0.2c-0.1,0.8-0.1,1.5-0.2,2.3
						c-0.1,0.7-0.1,1.4-0.2,2.2c0,0.8-0.1,1.6-0.1,2.4c0,0.6-0.1,1.2-0.1,1.8c0,0.1,0,0.2,0,0.3c0,0.8,0,1.6,0,2.4
						c0,0.7,0,1.4,0,2.1c0,0.8,0.1,1.5,0.1,2.3c0,0.5,0,1.1,0.1,1.6c0,0.2,0,0.4,0,0.5c0.1,0.7,0.1,1.4,0.2,2.2
						c0.1,0.8,0.1,1.5,0.2,2.3c0.1,0.7,0.2,1.4,0.3,2.1c0.1,0.5,0.1,1.1,0.2,1.6c0.1,0.4,0.1,0.8,0.2,1.1c0,0.1,0,0.2,0,0.3
						c0,0.1,0,0.2,0,0.2c0,0.2,0.1,0.4,0.1,0.7c0.1,0.8,0.3,1.6,0.4,2.3c0.1,0.3,0.1,0.6,0.2,0.8c0,0.2,0.1,0.4,0.1,0.7
						c0.1,0.3,0.1,0.5,0.2,0.8c0.2,0.8,0.4,1.5,0.5,2.3c0.1,0.2,0.1,0.4,0.2,0.6c0,0.2,0.1,0.3,0.1,0.5c0.1,0.2,0.1,0.5,0.2,0.7
						c0.2,0.6,0.3,1.2,0.5,1.8c0.1,0.4,0.2,0.8,0.4,1.2c0,0.2,0.1,0.3,0.1,0.4c0,0,0,0.1,0,0.1c0.2,0.6,0.4,1.2,0.6,1.8
						c0.2,0.5,0.3,1,0.5,1.5c0,0.1,0.1,0.2,0.1,0.3c0.1,0.2,0.1,0.3,0.2,0.5c0.1,0.2,0.2,0.5,0.2,0.7c0.2,0.5,0.4,1,0.6,1.5
						c0.2,0.5,0.4,1,0.6,1.4c0,0.1,0.1,0.2,0.1,0.3c0.1,0.3,0.3,0.7,0.4,1c0.2,0.4,0.4,0.8,0.5,1.3c0.2,0.4,0.4,0.8,0.6,1.3
						c0,0,0,0,0,0.1c0,0.1,0.1,0.2,0.1,0.3c0.1,0.3,0.3,0.6,0.4,0.9c0.2,0.4,0.4,0.8,0.6,1.2c0.2,0.4,0.4,0.8,0.6,1.1
						c0.1,0.1,0.1,0.2,0.2,0.4c0,0.1,0.1,0.1,0.1,0.2c0.1,0.2,0.2,0.4,0.3,0.6c0.2,0.4,0.4,0.7,0.6,1.1c0.2,0.4,0.4,0.7,0.6,1
						c0.1,0.2,0.3,0.5,0.4,0.7c0,0,0,0,0,0.1c0,0,0,0,0,0c0,0.1,0.1,0.1,0.1,0.2c0.2,0.3,0.4,0.7,0.6,1c0.2,0.3,0.4,0.7,0.6,1
						c0.2,0.3,0.4,0.6,0.6,0.9c0,0,0.1,0.1,0.1,0.1c0,0,0.1,0.1,0.1,0.1c0.1,0.2,0.3,0.4,0.4,0.6c0.2,0.3,0.4,0.6,0.6,0.9
						c0.2,0.3,0.4,0.6,0.6,0.9c0.1,0.2,0.3,0.4,0.5,0.7c0,0,0.1,0.1,0.1,0.1c0,0,0,0.1,0.1,0.1c0.2,0.3,0.4,0.6,0.6,0.9
						c0.2,0.3,0.4,0.6,0.6,0.8c0.2,0.3,0.4,0.6,0.6,0.8c0.1,0.1,0.2,0.2,0.3,0.3c0.1,0.1,0.1,0.1,0.2,0.2c0.1,0.1,0.1,0.2,0.2,0.3
						c0.2,0.3,0.4,0.5,0.6,0.8c0.2,0.3,0.4,0.5,0.6,0.8c0.2,0.3,0.4,0.5,0.6,0.8c0,0.1,0.1,0.1,0.2,0.2c0.1,0.1,0.1,0.2,0.2,0.2
						c0.1,0.1,0.2,0.2,0.3,0.3c0.2,0.2,0.4,0.5,0.6,0.7c0.2,0.2,0.4,0.5,0.6,0.7c0.2,0.2,0.4,0.5,0.6,0.7c0,0,0.1,0.1,0.1,0.1
						c0,0,0.1,0.1,0.1,0.1c0.1,0.1,0.3,0.3,0.4,0.4c0.2,0.2,0.4,0.5,0.7,0.7c0.2,0.2,0.4,0.4,0.7,0.7c0.2,0.2,0.4,0.4,0.7,0.7
						c0,0,0,0,0.1,0.1c0,0,0.1,0.1,0.1,0.1c0.2,0.1,0.3,0.3,0.5,0.4c0.2,0.2,0.5,0.4,0.7,0.6c0.2,0.2,0.5,0.4,0.7,0.6
						c0.2,0.2,0.5,0.4,0.7,0.6l0,0l0,0l0,0c0,0,0,0,0,0c0,0,0.1,0,0.1,0.1c0.2,0.2,0.4,0.3,0.6,0.5c0.2,0.2,0.5,0.4,0.7,0.6
						c0.2,0.2,0.5,0.4,0.7,0.6c0.2,0.2,0.4,0.4,0.7,0.5c0,0,0,0,0,0c0,0,0,0,0,0c0,0,0,0,0,0c0.3,0.2,0.5,0.4,0.8,0.6
						c0.3,0.2,0.5,0.4,0.8,0.6c0.3,0.2,0.5,0.4,0.8,0.6c0.1,0.1,0.2,0.1,0.3,0.2c0,0,0.1,0.1,0.1,0.1c0.1,0.1,0.2,0.2,0.3,0.2
						c0.3,0.2,0.5,0.4,0.8,0.5c0.3,0.2,0.5,0.4,0.8,0.5c0.2,0.2,0.5,0.3,0.7,0.4c0,0,0.1,0,0.1,0.1c0,0,0,0,0,0
						c0.3,0.2,0.5,0.3,0.8,0.5c0.3,0.2,0.6,0.3,0.9,0.5c0.3,0.2,0.6,0.3,0.9,0.5c0,0,0.1,0.1,0.1,0.1c0.1,0,0.1,0.1,0.2,0.1
						c0.2,0.1,0.3,0.2,0.5,0.3c0.3,0.2,0.6,0.3,0.9,0.5c0.3,0.2,0.6,0.3,1,0.5c0.1,0,0.2,0.1,0.3,0.1c0.1,0,0.2,0.1,0.2,0.1
						c0.1,0.1,0.3,0.1,0.4,0.2c0.3,0.1,0.6,0.3,1,0.4c0.3,0.1,0.6,0.3,1,0.4c0.1,0,0.2,0.1,0.3,0.1c0.1,0,0.2,0.1,0.2,0.1
						c0.2,0.1,0.3,0.1,0.5,0.2c0.3,0.1,0.7,0.3,1,0.4c0.3,0.1,0.7,0.3,1,0.4c0.1,0,0.1,0,0.2,0.1c0.1,0,0.1,0,0.2,0.1
						c0.2,0.1,0.4,0.1,0.6,0.2c0.4,0.1,0.8,0.2,1.2,0.4c0.3,0.1,0.7,0.2,1,0.3c0,0,0.1,0,0.1,0c0,0,0,0,0.1,0
						c0.4,0.1,0.8,0.2,1.2,0.3c0.4,0.1,0.8,0.2,1.2,0.3c0,0,0.1,0,0.2,0c0,0,0.1,0,0.2,0c0,0,0.1,0,0.1,0c0,0,0.1,0,0.2,0
						c3.7,0.8,7.3,1.6,11,2.3c0,0,0,0,0,0C126,207.2,126.1,207.2,126.1,207.2z"/>
					
						<radialGradient id="SVGID_9_" cx="-1652.8044" cy="915.6181" r="47.6106" gradientTransform="matrix(4.0649 0.2781 -0.3595 3.6473 7279.6792 -2777.0625)" gradientUnits="userSpaceOnUse">
						<stop  offset="0" style="stop-color:#FFFFFF"/>
						<stop  offset="0.2451" style="stop-color:#FEFCFF"/>
						<stop  offset="0.3946" style="stop-color:#F9F4FF"/>
						<stop  offset="0.5183" style="stop-color:#F2E6FF"/>
						<stop  offset="0.6281" style="stop-color:#E8D1FF"/>
						<stop  offset="0.7286" style="stop-color:#DBB7FF"/>
						<stop  offset="0.8224" style="stop-color:#CA96FF"/>
						<stop  offset="0.9109" style="stop-color:#B770FF"/>
						<stop  offset="0.9931" style="stop-color:#A144FF"/>
						<stop  offset="1" style="stop-color:#9F40FF"/>
					</radialGradient>
					<path style="fill:url(#SVGID_9_);" d="M193.1,136.7c0.5-8.6,0-17-1.3-25.1c-1.3-8.1-3.5-16-6.5-23.3c-3-7.6-7-14.7-11.6-21
						c-4.9-6.6-10.8-12.5-17.5-17c-7.2-4.8-14.8-7.8-22.5-8.8c-8.2-1.1-16.6,0.2-24.4,3.7C100.8,49,93,55.3,86.6,64.3
						c-6.8,9.5-12,21.5-14.5,35.8c-2.6,14.6-2.2,29.6,0.9,43.7c3,13.9,8.6,26.5,15.8,36.8c7,9.9,15.3,17.4,24.5,22.1
						c8.6,4.4,17.6,6.3,26.7,5.5c8.4-0.8,16-3.9,22.7-8.5c6.2-4.3,11.6-10.1,16-16.8c4.2-6.3,7.6-13.6,10-21.5
						C191.1,153.7,192.6,145.4,193.1,136.7z"/>
					
						<radialGradient id="SVGID_10_" cx="1905.7163" cy="-156.5238" r="120.3676" gradientTransform="matrix(1.0975 7.509712e-02 -9.707087e-02 0.9848 -1955.1115 101.679)" gradientUnits="userSpaceOnUse">
						<stop  offset="0" style="stop-color:#A32BFF"/>
						<stop  offset="0.1521" style="stop-color:#9E2FFC"/>
						<stop  offset="0.3347" style="stop-color:#8F3BF4"/>
						<stop  offset="0.5331" style="stop-color:#774FE6"/>
						<stop  offset="0.7425" style="stop-color:#556AD3"/>
						<stop  offset="0.9588" style="stop-color:#2A8EBA"/>
						<stop  offset="1" style="stop-color:#2195B5"/>
					</radialGradient>
					<path style="fill:url(#SVGID_10_);" d="M188.7,135.8c0.5-8,0-15.8-1.2-23.3c-1.2-7.5-3.3-14.8-6-21.7
						c-2.8-7-6.5-13.6-10.8-19.5c-4.6-6.1-10-11.6-16.2-15.8c-6.7-4.5-13.8-7.2-20.9-8.1c-7.7-1-15.4,0.1-22.6,3.4
						c-7.8,3.5-15.1,9.4-21.1,17.7c-6.3,8.8-11.1,20-13.5,33.2c-2.4,13.6-2,27.4,0.8,40.5c2.8,12.9,7.9,24.6,14.7,34.1
						c6.5,9.1,14.2,16.1,22.7,20.5c7.9,4.1,16.3,5.9,24.8,5.1c7.8-0.7,14.9-3.6,21.1-7.9c5.8-4,10.8-9.4,14.9-15.6
						c3.9-5.9,7-12.6,9.3-19.9C186.8,151.6,188.2,144,188.7,135.8z"/>
					
						<radialGradient id="SVGID_11_" cx="-1675.8877" cy="923.4505" r="13.1036" gradientTransform="matrix(4.0649 0.2781 -0.3595 3.6473 7279.6792 -2777.0625)" gradientUnits="userSpaceOnUse">
						<stop  offset="0" style="stop-color:#FFFFFF"/>
						<stop  offset="0.2451" style="stop-color:#FEFCFF"/>
						<stop  offset="0.3946" style="stop-color:#F9F4FF"/>
						<stop  offset="0.5183" style="stop-color:#F2E6FF"/>
						<stop  offset="0.6281" style="stop-color:#E8D1FF"/>
						<stop  offset="0.7286" style="stop-color:#DBB7FF"/>
						<stop  offset="0.8224" style="stop-color:#CA96FF"/>
						<stop  offset="0.9109" style="stop-color:#B770FF"/>
						<stop  offset="0.9931" style="stop-color:#A144FF"/>
						<stop  offset="1" style="stop-color:#9F40FF"/>
					</radialGradient>
					<path style="fill:url(#SVGID_11_);" d="M176.9,133.1c0.3-5.8,0-11.5-0.9-17c-0.9-5.5-2.4-10.8-4.4-15.8
						c-2.1-5.1-4.7-9.9-7.9-14.2c-3.3-4.5-7.3-8.4-11.8-11.5c-4.9-3.3-10-5.3-15.2-5.9c-5.6-0.7-11.2,0.1-16.5,2.5
						c-5.7,2.6-11,6.9-15.4,12.9c-4.6,6.4-8.1,14.6-9.8,24.2c-1.8,9.9-1.5,20,0.6,29.6c2.1,9.4,5.8,17.9,10.7,24.9
						c4.7,6.7,10.4,11.8,16.6,15c5.8,3,11.9,4.3,18.1,3.7c5.7-0.5,10.9-2.6,15.4-5.8c4.2-2.9,7.8-6.8,10.8-11.4
						c2.8-4.3,5.1-9.2,6.8-14.5C175.5,144.6,176.5,139,176.9,133.1z"/>
					
						<radialGradient id="SVGID_12_" cx="-1675.7438" cy="923.3404" r="8.2236" gradientTransform="matrix(4.0649 0.2781 -0.5632 5.7134 7467.7192 -4684.7153)" gradientUnits="userSpaceOnUse">
						<stop  offset="0" style="stop-color:#A32BFF"/>
						<stop  offset="0.1521" style="stop-color:#9E2FFC"/>
						<stop  offset="0.3347" style="stop-color:#8F3BF4"/>
						<stop  offset="0.5331" style="stop-color:#774FE6"/>
						<stop  offset="0.7425" style="stop-color:#556AD3"/>
						<stop  offset="0.9588" style="stop-color:#2A8EBA"/>
						<stop  offset="1" style="stop-color:#2195B5"/>
					</radialGradient>
					<path style="fill:url(#SVGID_12_);" d="M155.5,128.4c0.2-2.7,0-5.4-0.4-8c-0.4-2.6-1.1-5.1-2.1-7.4c-1-2.4-2.2-4.7-3.7-6.7
						c-1.6-2.1-3.4-4-5.6-5.4c-2.3-1.5-4.7-2.5-7.2-2.8c-2.6-0.3-5.3,0-7.8,1.2c-2.7,1.2-5.2,3.2-7.2,6.1c-2.2,3-3.8,6.9-4.6,11.4
						c-0.8,4.7-0.7,9.4,0.3,13.9c1,4.4,2.7,8.4,5.1,11.7c2.2,3.1,4.9,5.5,7.8,7.1c2.7,1.4,5.6,2,8.5,1.7c2.7-0.3,5.1-1.2,7.2-2.7
						c2-1.4,3.7-3.2,5.1-5.4c1.3-2,2.4-4.3,3.2-6.8C154.9,133.8,155.4,131.2,155.5,128.4z"/>
					<path style="fill:#4D4C4F;" d="M135.8,182.3c-4.5-0.3-9-1.6-13.4-3.9c-6.3-3.3-12.1-8.5-16.9-15.2c-5.1-7.2-8.8-15.9-10.9-25.2
						c-2.2-9.8-2.4-20.2-0.6-29.9c1.7-9.4,5.1-17.9,10-24.6c4.3-6,9.8-10.6,15.7-13.2c5.4-2.4,11.2-3.3,17-2.6
						c5.4,0.7,10.6,2.7,15.6,6.1c4.5,3,8.5,6.9,12.1,11.7c3.2,4.3,5.8,9.1,8,14.4c2,5.1,3.5,10.5,4.4,16c0.9,5.6,1.2,11.4,0.9,17.2
						l0,0c-0.3,5.9-1.4,11.5-3,16.8c-1.7,5.4-4,10.4-6.9,14.8c-3.2,4.8-6.9,8.7-11.1,11.6c-4.9,3.4-10.2,5.4-15.8,5.9
						C139.2,182.4,137.5,182.4,135.8,182.3z M134.7,69.3c-4.9-0.3-9.7,0.5-14.3,2.6c-5.7,2.5-10.9,6.9-15,12.6
						c-4.7,6.5-8,14.7-9.7,23.8c-1.7,9.5-1.5,19.6,0.6,29.2c2,9.1,5.7,17.6,10.6,24.6c4.6,6.5,10.2,11.6,16.3,14.7
						c5.7,3,11.6,4.2,17.6,3.6c5.3-0.5,10.3-2.4,14.9-5.6c4-2.8,7.6-6.6,10.6-11.1c2.8-4.2,5-9,6.7-14.3c1.6-5.2,2.6-10.7,2.9-16.4
						l0,0c0.3-5.6,0-11.3-0.9-16.8c-0.9-5.4-2.3-10.7-4.3-15.6c-2.1-5.2-4.7-9.9-7.8-14c-3.4-4.6-7.3-8.4-11.6-11.3
						c-4.7-3.2-9.7-5.1-14.9-5.8C135.9,69.4,135.3,69.3,134.7,69.3z"/>
					
						<radialGradient id="SVGID_13_" cx="1662.7227" cy="-221.1412" r="108.693" gradientTransform="matrix(0.9773 6.686830e-02 -9.707087e-02 0.9848 -1549.214 129.4522)" gradientUnits="userSpaceOnUse">
						<stop  offset="0.5784" style="stop-color:#533AFB"/>
						<stop  offset="0.9459" style="stop-color:#FFFFFF;stop-opacity:0"/>
					</radialGradient>
					<path style="fill:url(#SVGID_13_);" d="M155.5,128.6c0.2-2.7,0-5.4-0.4-8c-0.4-2.6-1.1-5.1-2.1-7.4c-1-2.4-2.2-4.7-3.7-6.7
						c-1.6-2.1-3.4-4-5.6-5.4c-2.3-1.5-4.7-2.5-7.2-2.8c-2.6-0.3-5.3,0-7.8,1.2c-2.7,1.2-5.2,3.2-7.2,6.1c-2.2,3-3.8,6.9-4.6,11.4
						c-0.8,4.7-0.7,9.4,0.3,13.9c1,4.4,2.7,8.4,5.1,11.7c2.2,3.1,4.9,5.5,7.8,7.1c2.7,1.4,5.6,2,8.5,1.7c2.7-0.3,5.1-1.2,7.2-2.7
						c2-1.4,3.7-3.2,5.1-5.4c1.3-2,2.4-4.3,3.2-6.8C154.9,134,155.4,131.4,155.5,128.6z"/>
					
						<radialGradient id="SVGID_14_" cx="1704.5321" cy="-30.801" r="91.8062" gradientTransform="matrix(0.9773 6.686830e-02 -9.707087e-02 0.9848 -1549.214 129.4522)" gradientUnits="userSpaceOnUse">
						<stop  offset="0.573" style="stop-color:#000000"/>
						<stop  offset="0.9459" style="stop-color:#FFFFFF;stop-opacity:0"/>
					</radialGradient>
					<path style="fill:url(#SVGID_14_);" d="M126.8,207.3c-1-0.2-2-0.5-3-0.7c0,0,0,0-0.1,0c-1-0.3-1.9-0.6-2.8-0.9
						c-0.1,0-0.1,0-0.2-0.1c-0.9-0.3-1.8-0.7-2.8-1.1c-0.1,0-0.2-0.1-0.2-0.1c-0.9-0.4-1.8-0.8-2.7-1.2c-0.1,0-0.1-0.1-0.2-0.1
						c-0.9-0.4-1.8-0.9-2.7-1.4c-0.1,0-0.1-0.1-0.2-0.1c-0.9-0.5-1.8-1.1-2.7-1.6c0,0,0,0-0.1,0c-0.9-0.6-1.8-1.2-2.7-1.8
						c0,0-0.1-0.1-0.1-0.1c-0.9-0.6-1.8-1.3-2.7-2c-0.9-0.8-1.8-1.5-2.8-2.3c0,0,0,0,0,0c-0.9-0.8-1.8-1.6-2.6-2.5
						c0,0-0.1-0.1-0.1-0.1c-0.8-0.8-1.7-1.7-2.5-2.6c-0.1-0.1-0.1-0.1-0.2-0.2c-0.8-0.9-1.6-1.8-2.4-2.7c-0.1-0.1-0.1-0.1-0.2-0.2
						c-0.8-0.9-1.5-1.9-2.2-2.9c-0.1-0.1-0.1-0.2-0.2-0.3c-0.7-1-1.5-2-2.2-3c0-0.1-0.1-0.1-0.1-0.2c-0.7-1.1-1.4-2.1-2.1-3.2
						c0,0-0.1-0.1-0.1-0.1c-0.7-1.1-1.4-2.3-2-3.4c0-0.1-0.1-0.1-0.1-0.2c-0.7-1.2-1.3-2.4-1.9-3.6c0-0.1-0.1-0.2-0.1-0.3
						c-0.6-1.2-1.2-2.5-1.7-3.7c0-0.1-0.1-0.1-0.1-0.2c-0.6-1.3-1.1-2.5-1.6-3.8c0-0.1-0.1-0.2-0.1-0.3c0,0,0,0,0,0
						c-0.5-1.3-1-2.5-1.4-3.8c-0.1-0.2-0.1-0.3-0.2-0.5c-0.4-1.3-0.9-2.6-1.3-3.9c0-0.2-0.1-0.3-0.1-0.5c-0.4-1.3-0.7-2.5-1.1-3.8
						c0-0.2-0.1-0.4-0.1-0.5c-0.3-1.3-0.6-2.6-0.9-3.8c-0.1-0.3-0.1-0.5-0.2-0.8c-0.3-1.3-0.5-2.6-0.7-3.9c0-0.2-0.1-0.5-0.1-0.7
						c-0.1-0.9-0.3-1.8-0.4-2.7c-0.1-0.8-0.2-1.5-0.3-2.3c-0.1-0.8-0.2-1.5-0.2-2.3c-0.1-0.8-0.2-1.6-0.2-2.4
						c-0.1-0.7-0.1-1.5-0.1-2.2c0-0.8-0.1-1.7-0.1-2.5c0-0.7,0-1.4,0-2.1c0-0.9,0-1.7,0-2.6c0-0.7,0-1.4,0.1-2.1
						c0-0.9,0-1.7,0.1-2.6c0-0.8,0.1-1.5,0.2-2.3c0.1-0.8,0.1-1.6,0.2-2.4c0.1-1,0.2-1.9,0.3-2.9c0.1-0.6,0.1-1.2,0.2-1.8
						c0.2-1.6,0.5-3.1,0.7-4.7c1.3-7.4,3.4-14.3,6-20.5c2.6-6.1,5.7-11.5,9.2-16.2c3.4-4.6,7.2-8.5,11.3-11.7
						c1.6-1.2,3.2-2.3,4.8-3.3c1.5-0.9,2.9-1.8,4.4-2.5c1.1-0.5,2.1-1,3.2-1.4c0,0,0,0,0,0c0,0,0,0,0,0l-10.5,4.2
						c-4.3,1.7-8.5,4.1-12.4,7.1c-4.1,3.1-7.9,6.9-11.3,11.3c-3.5,4.6-6.6,9.8-9.2,15.6c-2.6,6-4.7,12.5-6,19.6
						c-0.3,1.5-0.5,3-0.7,4.4c-0.1,0.6-0.2,1.3-0.2,1.9c-0.1,0.8-0.2,1.6-0.3,2.4c0,0.1,0,0.1,0,0.2c-0.1,0.8-0.1,1.5-0.2,2.3
						c-0.1,0.7-0.1,1.4-0.2,2.2c0,0.8-0.1,1.6-0.1,2.4c0,0.6-0.1,1.2-0.1,1.8c0,0.1,0,0.2,0,0.3c0,0.8,0,1.6,0,2.4
						c0,0.7,0,1.4,0,2.1c0,0.8,0.1,1.5,0.1,2.3c0,0.5,0,1.1,0.1,1.6c0,0.2,0,0.4,0,0.5c0.1,0.7,0.1,1.4,0.2,2.2
						c0.1,0.8,0.1,1.5,0.2,2.3c0.1,0.7,0.2,1.4,0.3,2.1c0.1,0.5,0.1,1.1,0.2,1.6c0.1,0.4,0.1,0.8,0.2,1.1c0,0.1,0,0.2,0,0.3
						c0,0.1,0,0.2,0,0.2c0,0.2,0.1,0.4,0.1,0.7c0.1,0.8,0.3,1.6,0.4,2.3c0.1,0.3,0.1,0.6,0.2,0.8c0,0.2,0.1,0.4,0.1,0.7
						c0.1,0.3,0.1,0.5,0.2,0.8c0.2,0.8,0.4,1.5,0.5,2.3c0.1,0.2,0.1,0.4,0.2,0.6c0,0.2,0.1,0.3,0.1,0.5c0.1,0.2,0.1,0.5,0.2,0.7
						c0.2,0.6,0.3,1.2,0.5,1.8c0.1,0.4,0.2,0.8,0.4,1.2c0,0.2,0.1,0.3,0.1,0.4c0,0,0,0.1,0,0.1c0.2,0.6,0.4,1.2,0.6,1.8
						c0.2,0.5,0.3,1,0.5,1.5c0,0.1,0.1,0.2,0.1,0.3c0.1,0.2,0.1,0.3,0.2,0.5c0.1,0.2,0.2,0.5,0.2,0.7c0.2,0.5,0.4,1,0.6,1.5
						c0.2,0.5,0.4,1,0.6,1.4c0,0.1,0.1,0.2,0.1,0.3c0.1,0.3,0.3,0.7,0.4,1c0.2,0.4,0.4,0.8,0.5,1.3c0.2,0.4,0.4,0.8,0.6,1.3
						c0,0,0,0,0,0.1c0,0.1,0.1,0.2,0.1,0.3c0.1,0.3,0.3,0.6,0.4,0.9c0.2,0.4,0.4,0.8,0.6,1.2c0.2,0.4,0.4,0.8,0.6,1.1
						c0.1,0.1,0.1,0.2,0.2,0.4c0,0.1,0.1,0.1,0.1,0.2c0.1,0.2,0.2,0.4,0.3,0.6c0.2,0.4,0.4,0.7,0.6,1.1c0.2,0.4,0.4,0.7,0.6,1
						c0.1,0.2,0.3,0.5,0.4,0.7c0,0,0,0,0,0.1c0,0,0,0,0,0c0,0.1,0.1,0.1,0.1,0.2c0.2,0.3,0.4,0.7,0.6,1c0.2,0.3,0.4,0.7,0.6,1
						c0.2,0.3,0.4,0.6,0.6,0.9c0,0,0.1,0.1,0.1,0.1c0,0,0.1,0.1,0.1,0.1c0.1,0.2,0.3,0.4,0.4,0.6c0.2,0.3,0.4,0.6,0.6,0.9
						c0.2,0.3,0.4,0.6,0.6,0.9c0.1,0.2,0.3,0.4,0.5,0.7c0,0,0.1,0.1,0.1,0.1c0,0,0,0.1,0.1,0.1c0.2,0.3,0.4,0.6,0.6,0.9
						c0.2,0.3,0.4,0.6,0.6,0.8c0.2,0.3,0.4,0.6,0.6,0.8c0.1,0.1,0.2,0.2,0.3,0.3c0.1,0.1,0.1,0.1,0.2,0.2c0.1,0.1,0.1,0.2,0.2,0.3
						c0.2,0.3,0.4,0.5,0.6,0.8c0.2,0.3,0.4,0.5,0.6,0.8c0.2,0.3,0.4,0.5,0.6,0.8c0,0.1,0.1,0.1,0.2,0.2c0.1,0.1,0.1,0.2,0.2,0.2
						c0.1,0.1,0.2,0.2,0.3,0.3c0.2,0.2,0.4,0.5,0.6,0.7c0.2,0.2,0.4,0.5,0.6,0.7c0.2,0.2,0.4,0.5,0.6,0.7c0,0,0.1,0.1,0.1,0.1
						c0,0,0.1,0.1,0.1,0.1c0.1,0.1,0.3,0.3,0.4,0.4c0.2,0.2,0.4,0.5,0.7,0.7c0.2,0.2,0.4,0.4,0.7,0.7c0.2,0.2,0.4,0.4,0.7,0.7
						c0,0,0,0,0.1,0.1c0,0,0.1,0.1,0.1,0.1c0.2,0.1,0.3,0.3,0.5,0.4c0.2,0.2,0.5,0.4,0.7,0.6c0.2,0.2,0.5,0.4,0.7,0.6
						c0.2,0.2,0.5,0.4,0.7,0.6l0,0l0,0l0,0c0,0,0,0,0,0c0,0,0.1,0,0.1,0.1c0.2,0.2,0.4,0.3,0.6,0.5c0.2,0.2,0.5,0.4,0.7,0.6
						c0.2,0.2,0.5,0.4,0.7,0.6c0.2,0.2,0.4,0.4,0.7,0.5c0,0,0,0,0,0c0,0,0,0,0,0c0,0,0,0,0,0c0.3,0.2,0.5,0.4,0.8,0.6
						c0.3,0.2,0.5,0.4,0.8,0.6c0.3,0.2,0.5,0.4,0.8,0.6c0.1,0.1,0.2,0.1,0.3,0.2c0,0,0.1,0.1,0.1,0.1c0.1,0.1,0.2,0.2,0.3,0.2
						c0.3,0.2,0.5,0.4,0.8,0.5c0.3,0.2,0.5,0.4,0.8,0.5c0.2,0.2,0.5,0.3,0.7,0.4c0,0,0.1,0,0.1,0.1c0,0,0,0,0,0
						c0.3,0.2,0.5,0.3,0.8,0.5c0.3,0.2,0.6,0.3,0.9,0.5c0.3,0.2,0.6,0.3,0.9,0.5c0,0,0.1,0.1,0.1,0.1c0.1,0,0.1,0.1,0.2,0.1
						c0.2,0.1,0.3,0.2,0.5,0.3c0.3,0.2,0.6,0.3,0.9,0.5c0.3,0.2,0.6,0.3,1,0.5c0.1,0,0.2,0.1,0.3,0.1c0.1,0,0.2,0.1,0.2,0.1
						c0.1,0.1,0.3,0.1,0.4,0.2c0.3,0.1,0.6,0.3,1,0.4c0.3,0.1,0.6,0.3,1,0.4c0.1,0,0.2,0.1,0.3,0.1c0.1,0,0.2,0.1,0.2,0.1
						c0.2,0.1,0.3,0.1,0.5,0.2c0.3,0.1,0.7,0.3,1,0.4c0.3,0.1,0.7,0.3,1,0.4c0.1,0,0.1,0,0.2,0.1c0.1,0,0.1,0,0.2,0.1
						c0.2,0.1,0.4,0.1,0.6,0.2c0.4,0.1,0.8,0.2,1.2,0.4c0.3,0.1,0.7,0.2,1,0.3c0,0,0.1,0,0.1,0c0,0,0,0,0.1,0
						c0.4,0.1,0.8,0.2,1.2,0.3c0.4,0.1,0.8,0.2,1.2,0.3c0,0,0.1,0,0.2,0c0,0,0.1,0,0.2,0c0,0,0.1,0,0.1,0c0,0,0.1,0,0.2,0
						c3.7,0.8,7.3,1.6,11,2.3c0,0,0,0,0,0C126.7,207.2,126.7,207.2,126.8,207.3z"/>
					
						<radialGradient id="SVGID_15_" cx="1387.6208" cy="-320.4086" r="83.1707" gradientTransform="matrix(0.863 6.219038e-03 -0.1469 0.9583 -1099.498 368.2187)" gradientUnits="userSpaceOnUse">
						<stop  offset="0.5784" style="stop-color:#533AFB"/>
						<stop  offset="0.9459" style="stop-color:#FFFFFF;stop-opacity:0"/>
					</radialGradient>
					<path style="fill:url(#SVGID_15_);" d="M93,69.2c-10.2,18.6-5.1,42.8,8.3,49.9c13.4,7.1,19.7,2.7,35.3-12.9
						c19.7-19.6,27.9-31.8,16.8-44.7C134.8,39.9,103.2,50.6,93,69.2z"/>
					
						<linearGradient id="SVGID_16_" gradientUnits="userSpaceOnUse" x1="471.3456" y1="2650.3889" x2="560.4413" y2="2650.3889" gradientTransform="matrix(0.1821 0.7401 -0.8003 0.3005 2186.0247 -1028.4542)">
						<stop  offset="0" style="stop-color:#231F20"/>
						<stop  offset="9.267996e-02" style="stop-color:#2C292A"/>
						<stop  offset="0.2481" style="stop-color:#464343"/>
						<stop  offset="0.4473" style="stop-color:#706D6E"/>
						<stop  offset="0.6825" style="stop-color:#A9A8A8"/>
						<stop  offset="0.9451" style="stop-color:#F2F2F2"/>
						<stop  offset="0.9892" style="stop-color:#FFFFFF"/>
					</linearGradient>
					<path style="opacity:0.5;fill:url(#SVGID_16_);" d="M176.6,176.8l-41.2-49.3c-1.2-1.4-1-3.6,0.5-4.8l0.2-0.2
						c1.4-1.2,3.6-1.1,4.8,0.3l41.2,49.3c1.2,1.4,1,3.6-0.5,4.8l-0.2,0.2C180,178.3,177.8,178.2,176.6,176.8z"/>
					<g>
						<path style="fill:#2B6896;" d="M224.7,99.4l-84.9,29c-2.1,0.7-4.4-0.4-5.1-2.5v0c-0.7-2.1,0.5-4.4,2.7-5.2l84.9-29
							c2.1-0.7,4.4,0.4,5.1,2.5v0C228,96.3,226.8,98.7,224.7,99.4z"/>
						
							<linearGradient id="SVGID_17_" gradientUnits="userSpaceOnUse" x1="1706.2025" y1="-142.3892" x2="1796.474" y2="-142.3892" gradientTransform="matrix(0.9965 8.326537e-02 -8.326537e-02 0.9965 -1576.6968 106.0634)">
							<stop  offset="0" style="stop-color:#231F20"/>
							<stop  offset="9.267996e-02" style="stop-color:#2C292A"/>
							<stop  offset="0.2481" style="stop-color:#464343"/>
							<stop  offset="0.4473" style="stop-color:#706D6E"/>
							<stop  offset="0.6825" style="stop-color:#A9A8A8"/>
							<stop  offset="0.9451" style="stop-color:#F2F2F2"/>
							<stop  offset="0.9892" style="stop-color:#FFFFFF"/>
						</linearGradient>
						<path style="opacity:0.5;fill:url(#SVGID_17_);" d="M224.1,99.3l-84.9,29c-2.1,0.7-4.4-0.4-5.1-2.5v0
							c-0.7-2.1,0.5-4.4,2.7-5.2l84.9-29c2.1-0.7,4.4,0.4,5.1,2.5v0C227.4,96.3,226.2,98.6,224.1,99.3z"/>
						
							<radialGradient id="SVGID_18_" cx="1794.3616" cy="-164.2373" r="8.7915" gradientTransform="matrix(0.33 0.9189 -5.8682 2.2869 -1335.5605 -1185.4774)" gradientUnits="userSpaceOnUse">
							<stop  offset="0.5784" style="stop-color:#533AFB"/>
							<stop  offset="0.9459" style="stop-color:#FFFFFF;stop-opacity:0"/>
						</radialGradient>
						<path style="fill:url(#SVGID_18_);" d="M224.7,99.4l-84.9,29c-2.1,0.7-4.4-0.4-5.1-2.5v0c-0.7-2.1,0.5-4.4,2.7-5.2l84.9-29
							c2.1-0.7,4.4,0.4,5.1,2.5v0C228,96.3,226.8,98.7,224.7,99.4z"/>
						
							<radialGradient id="SVGID_19_" cx="1785.0193" cy="-162.0574" r="8.7915" gradientTransform="matrix(0.33 0.9189 -5.8682 2.2869 -1329.0275 -1180.3563)" gradientUnits="userSpaceOnUse">
							<stop  offset="0.5784" style="stop-color:#533AFB"/>
							<stop  offset="0.9459" style="stop-color:#FFFFFF;stop-opacity:0"/>
						</radialGradient>
						<path style="fill:url(#SVGID_19_);" d="M224.7,99.4l-84.9,29c-2.1,0.7-4.4-0.4-5.1-2.5v0c-0.7-2.1,0.5-4.4,2.7-5.2l84.9-29
							c2.1-0.7,4.4,0.4,5.1,2.5v0C228,96.3,226.8,98.7,224.7,99.4z"/>
						
							<radialGradient id="SVGID_20_" cx="3462.9304" cy="4002.0781" r="8.7915" gradientTransform="matrix(-0.2201 -0.9546 -6.0719 1.5932 25278.8398 -2962.4124)" gradientUnits="userSpaceOnUse">
							<stop  offset="0.5784" style="stop-color:#533AFB"/>
							<stop  offset="0.9459" style="stop-color:#FFFFFF;stop-opacity:0"/>
						</radialGradient>
						<path style="fill:url(#SVGID_20_);" d="M222.3,91.5l-85.7,26.4c-2.1,0.7-3.4,3-2.8,5.1v0c0.6,2.1,2.8,3.3,5,2.7l85.7-26.4
							c2.1-0.7,3.4-3,2.8-5.1v0C226.7,92.1,224.5,90.8,222.3,91.5z"/>
					</g>
				</g>
			</g>
		</g>
		
			<radialGradient id="SVGID_21_" cx="-2420.2651" cy="-1232.7288" r="85.5625" gradientTransform="matrix(0.7616 0.6481 -0.6481 0.7616 1163.1736 2653.8997)" gradientUnits="userSpaceOnUse">
			<stop  offset="0.4054" style="stop-color:#533AFB"/>
			<stop  offset="0.9459" style="stop-color:#FFFFFF;stop-opacity:0"/>
		</radialGradient>
		<path style="fill:url(#SVGID_21_);" d="M178,181.1c4.2-6.3,7.6-13.6,10-21.5c2.4-7.6,3.9-15.8,4.4-24.6c0.5-8.6,0-17-1.3-25.1
			c-0.1-0.3-0.1-0.6-0.2-0.9l5.1-1.7l3.8,5.6c0.7,1.2,1.6,2.2,2.6,3c1.4,1.2,3.1,1.9,5.2,1.8c1.1,0,2.1-0.2,3.2-0.5l0.3-0.1
			c0.1,0,0.2,0,0.2-0.1c0.1,0,0.2-0.1,0.3-0.1l6.6-2.2l5.2-1.7c0.3-0.1,0.4-0.1,0.4-0.2l1.3-0.5l3.3-1.1c0.4-0.1,0.8-0.5,0.9-0.9
			c0.1-0.2,0.1-0.4,0.1-0.6l0-0.1c0-0.1,0-0.1,0-0.2l-3.3-10.9c-0.1-0.2-0.1-0.4-0.2-0.6l-0.2-0.6c-0.1-0.3-0.2-0.5-0.4-0.6
			c1.2-1.1,1.7-2.7,1.2-4.3l0,0c-0.1-0.4-0.3-0.8-0.6-1.1c-0.7-1.1-1.9-1.7-3.3-1.7c0.1-0.3,0.1-0.5,0-0.8l-0.2-0.6
			c-0.1-0.2-0.1-0.4-0.2-0.6l-3.7-10.8c0-0.1,0-0.1-0.1-0.2l0-0.1c-0.1-0.2-0.2-0.3-0.4-0.4c-0.3-0.2-0.8-0.3-1.2-0.2l-3.3,1.2
			l-13.4,4.9c-0.1,0-0.2,0.1-0.2,0.1c-4.9,1.8-6.9,4.5-6.9,8c0,0.7,0,1.3,0,2.1l0.2,6L189,100c-1.2-4.6-2.6-9-4.4-13.3
			c-3-7.6-7-14.7-11.6-21c-4.9-6.6-10.8-12.5-17.5-17c-7.2-4.8-14.8-7.8-22.5-8.8c-8.2-1.1-16.5,0.1-24.4,3.7
			c0.6-0.3,1.1-0.5,1.7-0.7c0,0,0,0,0,0c0,0,0,0,0,0l-10.5,4.2c-4.3,1.7-8.5,4.1-12.4,7.1c-4.1,3.1-7.9,6.9-11.3,11.3
			c-3.5,4.6-6.6,9.8-9.2,15.6c-2.6,6-4.7,12.5-6,19.6c-0.3,1.5-0.5,3-0.7,4.4c-0.1,0.6-0.2,1.3-0.2,1.9c-0.1,0.8-0.2,1.6-0.3,2.4
			c0,0.1,0,0.1,0,0.2c-0.1,0.8-0.1,1.5-0.2,2.3c-0.1,0.7-0.1,1.4-0.2,2.2c0,0.8-0.1,1.6-0.1,2.4c0,0.6-0.1,1.2-0.1,1.8
			c0,0.1,0,0.2,0,0.3c0,0.8,0,1.6,0,2.4c0,0.7,0,1.4,0,2.1c0,0.8,0.1,1.5,0.1,2.3c0,0.5,0,1.1,0.1,1.6c0,0.2,0,0.4,0,0.5
			c0.1,0.7,0.1,1.4,0.2,2.2c0.1,0.8,0.1,1.5,0.2,2.3c0.1,0.7,0.2,1.4,0.3,2.1c0.1,0.5,0.1,1.1,0.2,1.6c0.1,0.4,0.1,0.8,0.2,1.1
			c0,0.1,0,0.2,0,0.3c0,0.1,0,0.2,0,0.2c0,0.2,0.1,0.4,0.1,0.7c0.1,0.8,0.3,1.6,0.4,2.3c0.1,0.3,0.1,0.6,0.2,0.8
			c0,0.2,0.1,0.4,0.1,0.7c0.1,0.3,0.1,0.5,0.2,0.8c0.2,0.8,0.4,1.5,0.5,2.3c0.1,0.2,0.1,0.4,0.2,0.6c0,0.2,0.1,0.3,0.1,0.5
			c0.1,0.2,0.1,0.5,0.2,0.7c0.2,0.6,0.3,1.2,0.5,1.8c0.1,0.4,0.2,0.8,0.4,1.2c0,0.2,0.1,0.3,0.1,0.4c0,0,0,0.1,0,0.1
			c0.2,0.6,0.4,1.2,0.6,1.8c0.2,0.5,0.3,1,0.5,1.5c0,0.1,0.1,0.2,0.1,0.3c0.1,0.2,0.1,0.3,0.2,0.5c0.1,0.2,0.2,0.5,0.2,0.7
			c0.2,0.5,0.4,1,0.6,1.5c0.2,0.5,0.4,1,0.6,1.4c0,0.1,0.1,0.2,0.1,0.3c0.1,0.3,0.3,0.7,0.4,1c0.2,0.4,0.4,0.8,0.5,1.3
			c0.2,0.4,0.4,0.8,0.6,1.3c0,0,0,0,0,0.1c0,0.1,0.1,0.2,0.1,0.3c0.1,0.3,0.3,0.6,0.4,0.9c0.2,0.4,0.4,0.8,0.6,1.2
			c0.2,0.4,0.4,0.8,0.6,1.1c0.1,0.1,0.1,0.2,0.2,0.4c0,0.1,0.1,0.1,0.1,0.2c0.1,0.2,0.2,0.4,0.3,0.6c0.2,0.4,0.4,0.7,0.6,1.1
			c0.2,0.4,0.4,0.7,0.6,1c0.1,0.2,0.3,0.5,0.4,0.7c0,0,0,0,0,0.1c0,0,0,0,0,0c0,0.1,0.1,0.1,0.1,0.2c0.2,0.3,0.4,0.7,0.6,1
			c0.2,0.3,0.4,0.7,0.6,1c0.2,0.3,0.4,0.6,0.6,0.9c0,0,0.1,0.1,0.1,0.1c0,0,0.1,0.1,0.1,0.1c0.1,0.2,0.3,0.4,0.4,0.6
			c0.2,0.3,0.4,0.6,0.6,0.9c0.2,0.3,0.4,0.6,0.6,0.9c0.1,0.2,0.3,0.4,0.5,0.7c0,0,0.1,0.1,0.1,0.1c0,0,0,0.1,0.1,0.1
			c0.2,0.3,0.4,0.6,0.6,0.9c0.2,0.3,0.4,0.6,0.6,0.8c0.2,0.3,0.4,0.6,0.6,0.8c0.1,0.1,0.2,0.2,0.3,0.3c0.1,0.1,0.1,0.1,0.2,0.2
			c0.1,0.1,0.1,0.2,0.2,0.3c0.2,0.3,0.4,0.5,0.6,0.8c0.2,0.3,0.4,0.5,0.6,0.8c0.2,0.3,0.4,0.5,0.6,0.8c0,0.1,0.1,0.1,0.2,0.2
			c0.1,0.1,0.1,0.2,0.2,0.2c0.1,0.1,0.2,0.2,0.3,0.3c0.2,0.2,0.4,0.5,0.6,0.7c0.2,0.2,0.4,0.5,0.6,0.7c0.2,0.2,0.4,0.5,0.6,0.7
			c0,0,0.1,0.1,0.1,0.1c0,0,0.1,0.1,0.1,0.1c0.1,0.1,0.3,0.3,0.4,0.4c0.2,0.2,0.4,0.5,0.7,0.7c0.2,0.2,0.4,0.4,0.7,0.7
			c0.2,0.2,0.4,0.4,0.7,0.6c0,0,0,0,0.1,0.1c0,0,0.1,0.1,0.1,0.1c0.2,0.1,0.3,0.3,0.5,0.4c0.2,0.2,0.5,0.4,0.7,0.6
			c0.2,0.2,0.5,0.4,0.7,0.6c0.2,0.2,0.5,0.4,0.7,0.6c0,0,0,0,0,0c0,0,0.1,0,0.1,0.1c0.2,0.2,0.4,0.3,0.6,0.5
			c0.2,0.2,0.5,0.4,0.7,0.6c0.2,0.2,0.5,0.4,0.7,0.6c0.2,0.2,0.4,0.4,0.7,0.5c0,0,0,0,0,0c0,0,0,0,0,0c0,0,0,0,0,0
			c0.3,0.2,0.5,0.4,0.8,0.6c0.3,0.2,0.5,0.4,0.8,0.6c0.3,0.2,0.5,0.4,0.8,0.6c0.1,0.1,0.2,0.1,0.3,0.2c0,0,0.1,0.1,0.1,0.1
			c0.1,0.1,0.2,0.2,0.3,0.2c0.3,0.2,0.5,0.4,0.8,0.5c0.3,0.2,0.5,0.4,0.8,0.5c0.2,0.2,0.5,0.3,0.7,0.4c0,0,0.1,0,0.1,0.1
			c0,0,0,0,0,0c0.3,0.2,0.5,0.3,0.8,0.5c0.3,0.2,0.6,0.3,0.9,0.5c0.3,0.2,0.6,0.3,0.9,0.5c0,0,0.1,0.1,0.1,0.1
			c0.1,0,0.1,0.1,0.2,0.1c0.2,0.1,0.3,0.2,0.5,0.3c0.3,0.2,0.6,0.3,0.9,0.5c0.3,0.2,0.6,0.3,1,0.5c0.1,0,0.2,0.1,0.3,0.1
			c0.1,0,0.2,0.1,0.2,0.1c0.1,0.1,0.3,0.1,0.4,0.2c0.3,0.1,0.6,0.3,1,0.4c0.3,0.1,0.6,0.3,1,0.4c0.1,0,0.2,0.1,0.3,0.1
			c0.1,0,0.2,0.1,0.2,0.1c0.2,0.1,0.3,0.1,0.5,0.2c0.3,0.1,0.7,0.3,1,0.4c0.3,0.1,0.7,0.3,1,0.4c0.1,0,0.1,0,0.2,0.1
			c0.1,0,0.1,0,0.2,0.1c0.2,0.1,0.4,0.1,0.6,0.2c0.4,0.1,0.8,0.2,1.2,0.4c0.3,0.1,0.7,0.2,1,0.3c0,0,0.1,0,0.1,0c0,0,0,0,0.1,0
			c0.4,0.1,0.8,0.2,1.2,0.3c0.4,0.1,0.8,0.2,1.2,0.3c0,0,0.1,0,0.2,0c0,0,0.1,0,0.2,0c0,0,0.1,0,0.1,0c0,0,0.1,0,0.2,0
			c3.7,0.8,7.3,1.6,11,2.3c0,0,0,0,0,0c0.1,0,0.1,0,0.2,0c0,0-0.1,0-0.1,0c4.6,1,9.3,1.3,14,0.8c8.4-0.8,16-3.9,22.7-8.5
			C168.2,193.6,173.6,187.8,178,181.1z M107.9,43.9c-0.3,0.1-0.5,0.3-0.8,0.4c0,0,0,0,0,0C107.4,44.1,107.6,44,107.9,43.9z"/>
		
			<radialGradient id="SVGID_22_" cx="-2445.2673" cy="-1264.7629" r="311.8281" gradientTransform="matrix(0.7616 0.6481 -0.6481 0.7616 1163.1736 2653.8997)" gradientUnits="userSpaceOnUse">
			<stop  offset="0" style="stop-color:#9D3AFB"/>
			<stop  offset="0.9459" style="stop-color:#FFFFFF;stop-opacity:0"/>
		</radialGradient>
		<path style="fill:url(#SVGID_22_);" d="M171.2,193.5c-17.1,20-55.3,18.6-82.4-4.5s-16.1-84.8,1-104.8s61.2-34.1,88.4-11
			S188.2,173.5,171.2,193.5z"/>
		<g>
			
				<radialGradient id="SVGID_23_" cx="-2444.8137" cy="-3926.2156" r="9.6477" gradientTransform="matrix(0.3754 -0.5096 2.6109 2.0984 11329.7363 7052)" gradientUnits="userSpaceOnUse">
				<stop  offset="0" style="stop-color:#FFFFFF"/>
				<stop  offset="1" style="stop-color:#FFFFFF;stop-opacity:0"/>
			</radialGradient>
			<path style="fill:url(#SVGID_23_);" d="M178.3,73.8c-4.4,5.1-15.4,2.9-24.6-5c-9.2-7.9-13.2-18.4-8.8-23.5
				c4.4-5.1,15.4-2.9,24.6,5S182.7,68.7,178.3,73.8z"/>
			
				<radialGradient id="SVGID_24_" cx="-7530.8765" cy="3060.8691" r="6.7531" gradientTransform="matrix(0.5096 0.3754 -2.0984 2.6109 10420.9121 -5104.9878)" gradientUnits="userSpaceOnUse">
				<stop  offset="0" style="stop-color:#FFFFFF"/>
				<stop  offset="1" style="stop-color:#FFFFFF;stop-opacity:0"/>
			</radialGradient>
			<path style="fill:url(#SVGID_24_);" d="M149.8,71.5c-3.6-3-2-10.7,3.5-17.2s12.9-9.2,16.4-6.2c3.6,3,2,10.7-3.5,17.2
				C160.7,71.7,153.4,74.5,149.8,71.5z"/>
		</g>
		
			<radialGradient id="SVGID_25_" cx="-2343.2246" cy="-1409.885" r="162.2433" gradientTransform="matrix(0.7469 0.6356 -0.6409 0.7531 1100.2468 2641.7166)" gradientUnits="userSpaceOnUse">
			<stop  offset="0.5946" style="stop-color:#FFFFFF;stop-opacity:0"/>
			<stop  offset="0.8838" style="stop-color:#196DCC;stop-opacity:0.2"/>
			<stop  offset="1" style="stop-color:#5C4491"/>
		</radialGradient>
		<path style="fill:url(#SVGID_25_);" d="M178.2,132.2c-6.7,5.2-13.9,9.6-21.5,13.2c-8.3,3.9-18.1,6.8-26.5,3.2
			c-9.3-4-13.9-15.3-12.6-25.3c1.2-10,7.1-18.9,14-26.4c10-10.9,22.2-19.7,35.8-25.6c2.5-1.1,5.5-2.7,5.4-5.5c0-1.6-1.1-2.9-2.2-4
			c-16-16.9-40.4-26.1-62.7-16.7C97,49.7,87.8,57.6,80,66.4c-10,11.3-18,24.7-20.7,39.5c-3.5,19.3,2.5,39.6,13.9,55.6
			c16.9,23.7,45.6,38.4,74.7,38.2c10.6-0.1,8.6-0.5,17.8-5.8c9.2-5.3,22.1-26.5,24.2-36.9c3.2-15.5,1.8-20.2,0.7-36
			C186.7,125.1,182.6,128.8,178.2,132.2z"/>
	</g>
	
		<radialGradient id="SVGID_26_" cx="-3363.5679" cy="5103.2402" r="4.8867" gradientTransform="matrix(-3.0167 3.9838 -10.3182 -8.1826 42597.4258 55332.3984)" gradientUnits="userSpaceOnUse">
		<stop  offset="0" style="stop-color:#FFFFFF"/>
		<stop  offset="1" style="stop-color:#FFFFFF;stop-opacity:0"/>
	</radialGradient>
	<path style="fill:url(#SVGID_26_);" d="M37.7,101.8c20.4-24,28,35.1,63,65s84.4,19.1,64,43.1s-65.4,19.2-100.4-10.6
		S17.3,125.8,37.7,101.8z"/>
</g>
</svg>
