<?xml version="1.0" encoding="utf-8"?>
<!-- Generator: Adobe Illustrator 22.0.0, SVG Export Plug-In . SVG Version: 6.00 Build 0)  -->
<svg version="1.1" id="Layer_1" xmlns="http://www.w3.org/2000/svg" xmlns:xlink="http://www.w3.org/1999/xlink" x="0px" y="0px"
	 viewBox="0 0 256.2 256" style="enable-background:new 0 0 256.2 256;" xml:space="preserve">
<radialGradient id="SVGID_1_" cx="124.6078" cy="126.869" r="110.9669" gradientTransform="matrix(0.9684 0 0 1.0731 4.062 -9.4312)" gradientUnits="userSpaceOnUse">
	<stop  offset="0.3243" style="stop-color:#2CFFFF"/>
	<stop  offset="1" style="stop-color:#008639;stop-opacity:0"/>
</radialGradient>
<circle style="fill:url(#SVGID_1_);" cx="128.7" cy="129" r="128"/>
<g>
	<g>
		<linearGradient id="SVGID_2_" gradientUnits="userSpaceOnUse" x1="96.2617" y1="82.2166" x2="205.1837" y2="176.5073">
			<stop  offset="0" style="stop-color:#4FFFC7"/>
			<stop  offset="1" style="stop-color:#02FFAF"/>
		</linearGradient>
		<rect x="61.3" y="69.2" style="fill:url(#SVGID_2_);" width="131.5" height="79.4"/>
		<radialGradient id="SVGID_3_" cx="115.8486" cy="99.5166" r="175.3977" gradientUnits="userSpaceOnUse">
			<stop  offset="4.054054e-02" style="stop-color:#0BD893"/>
			<stop  offset="1" style="stop-color:#02FFAF"/>
		</radialGradient>
		<polyline style="fill:url(#SVGID_3_);" points="196.2,129.3 193,144.7 60.5,150.4 90.6,65.1 192.2,64.3 		"/>
		<g>
			<path style="fill:#02FFAF;" d="M188.8,63.4H64.6c-4.4,0-7.9,3.3-7.9,7.3v75.8c0,4.1,3.6,7.3,7.9,7.3h124.2c4.4,0,7.9-3.3,7.9-7.3
				V70.7C196.7,66.7,193.2,63.4,188.8,63.4z M191,146.7H62.4V70.5H191V146.7z"/>
			<polygon style="fill:#02FFAF;" points="194,148.4 140.2,148.4 113.3,148.4 59.5,148.4 40.9,171.9 113.3,171.9 140.2,171.9 
				212.5,171.9 			"/>
			<path style="fill:#00D65B;" d="M212.5,171.9h-72.3h-26.9H40.9c0,0-0.2,5.8,12.8,5.8c7.7,0,36.7,0,59.1,0c15.4,0,27.7,0,27.7,0
				c22.4,0,51.5,0,59.1,0C212.7,177.7,212.5,171.9,212.5,171.9z"/>
			<polygon style="fill:#02FFAF;" points="194,148.4 140.6,148.4 140.2,148.4 113.3,148.4 112.8,148.4 59.5,148.4 40.9,171.9 
				113.3,171.9 140.2,171.9 212.5,171.9 			"/>
		</g>
	</g>
</g>
<radialGradient id="SVGID_4_" cx="113.8489" cy="159.0034" r="154.2095" gradientUnits="userSpaceOnUse">
	<stop  offset="4.054054e-02" style="stop-color:#0BD893"/>
	<stop  offset="1" style="stop-color:#02FFAF"/>
</radialGradient>
<path style="fill:url(#SVGID_4_);" d="M195.4,168.3l-136.6,0.8c-3.6,0-2.4-2.4,0.8-7.3l3.3-4.9c2.4-4.9,3.7-4.9,7.3-4.9H184
	c3.6,0,4.1-0.8,6.5,3.3l4.1,7.3C197,165.9,197.9,168.3,195.4,168.3z"/>
<radialGradient id="SVGID_5_" cx="191.3578" cy="82.1551" r="99.261" gradientUnits="userSpaceOnUse">
	<stop  offset="0" style="stop-color:#24FFAC"/>
	<stop  offset="1" style="stop-color:#24FFAC;stop-opacity:0"/>
</radialGradient>
<path style="fill:url(#SVGID_5_);" d="M178.4,143.9h-104c-5.4,0-9.8-4.4-9.8-9.8V75.7c0-5.4,4.4-9.8,9.8-9.8h104
	c5.4,0,9.8,4.4,9.8,9.8v58.5C188.1,139.5,183.7,143.9,178.4,143.9z"/>
<radialGradient id="SVGID_6_" cx="-2344.6387" cy="753.3381" r="12.066" gradientTransform="matrix(13.2654 0 0 1.2656 31216.5703 -786.6944)" gradientUnits="userSpaceOnUse">
	<stop  offset="4.054054e-02" style="stop-color:#0BD893"/>
	<stop  offset="1" style="stop-color:#02FFAF"/>
</radialGradient>
<path style="fill:url(#SVGID_6_);" d="M195.4,169.2H58.6c-0.9,0-1.7-0.8-1.7-1.7v-0.8c0-0.9,0.8-1.7,1.7-1.7h136.8
	c0.9,0,1.7,0.8,1.7,1.7v0.8C197,168.4,196.3,169.2,195.4,169.2z"/>
<radialGradient id="SVGID_7_" cx="-5068.2246" cy="3420.1013" r="6.8572" gradientTransform="matrix(2.1179 0.6116 -1.1587 4.0976 14776.8184 -10821.0615)" gradientUnits="userSpaceOnUse">
	<stop  offset="0" style="stop-color:#FFFFFF"/>
	<stop  offset="1" style="stop-color:#FFFFFF;stop-opacity:0"/>
</radialGradient>
<path style="fill:url(#SVGID_7_);" d="M68.9,124.6c-15.8-5.3-24-23.3-18.3-40.2s23-26.3,38.8-21.1c15.8,5.3,24,23.3,18.3,40.2
	C102,120.5,84.7,129.9,68.9,124.6z"/>
<radialGradient id="SVGID_8_" cx="-3761.0276" cy="4838.6099" r="6.8572" gradientTransform="matrix(0.2845 4.989 -13.161 0.4558 64872.9258 16688.5938)" gradientUnits="userSpaceOnUse">
	<stop  offset="0" style="stop-color:#FFFFFF"/>
	<stop  offset="1" style="stop-color:#FFFFFF;stop-opacity:0"/>
</radialGradient>
<ellipse style="fill:url(#SVGID_8_);" cx="118.8" cy="129.3" rx="99.9" ry="68.3"/>
<radialGradient id="SVGID_9_" cx="124.3231" cy="153.732" r="37.8677" gradientUnits="userSpaceOnUse">
	<stop  offset="0" style="stop-color:#FFFFFF"/>
	<stop  offset="1" style="stop-color:#FFFFFF;stop-opacity:0"/>
</radialGradient>
<path style="fill:url(#SVGID_9_);" d="M185.6,154.7H66.8c-0.5,0-1-0.4-1-1l0,0c0-0.5,0.4-1,1-1h118.8c0.5,0,1,0.4,1,1l0,0
	C186.6,154.3,186.1,154.7,185.6,154.7z"/>
<radialGradient id="SVGID_10_" cx="-3761.4834" cy="4835.6841" r="6.8572" gradientTransform="matrix(0.2845 4.989 -13.161 0.4558 64837.4727 16706.8125)" gradientUnits="userSpaceOnUse">
	<stop  offset="0" style="stop-color:#FFFFFF"/>
	<stop  offset="1" style="stop-color:#FFFFFF;stop-opacity:0"/>
</radialGradient>
<ellipse style="fill:url(#SVGID_10_);" cx="121.7" cy="143.9" rx="99.9" ry="68.3"/>
<radialGradient id="SVGID_11_" cx="232.3658" cy="-1314.1937" r="307.9701" gradientTransform="matrix(1 0 0 0.6786 0 941.6164)" gradientUnits="userSpaceOnUse">
	<stop  offset="0" style="stop-color:#FFFFFF"/>
	<stop  offset="1" style="stop-color:#FFFFFF;stop-opacity:0"/>
</radialGradient>
<path style="opacity:0.5;fill:url(#SVGID_11_);" d="M181.8,143H71.5c-5.3,0-9.6-4.3-9.6-9.6V97.1c0-5.3,4.3-9.6,9.6-9.6h110.3
	c5.3,0,9.6,4.3,9.6,9.6v36.3C191.5,138.7,187.1,143,181.8,143z"/>
<radialGradient id="SVGID_12_" cx="118.4056" cy="1497.9945" r="173.1563" gradientTransform="matrix(1 0 0 1.8974 0 -2631.7068)" gradientUnits="userSpaceOnUse">
	<stop  offset="0.3243" style="stop-color:#2CFFFF"/>
	<stop  offset="1" style="stop-color:#008639;stop-opacity:0"/>
</radialGradient>
<path style="fill:url(#SVGID_12_);" d="M179.8,146H73.6c-4.3,0-7.8-3.5-7.8-7.8V81.6c0-4.3,3.5-7.8,7.8-7.8h106.2
	c4.3,0,7.8,3.5,7.8,7.8v56.6C187.6,142.5,184.1,146,179.8,146z"/>
<g>
	
		<radialGradient id="SVGID_13_" cx="87.701" cy="-1710.3851" r="7.9994" gradientTransform="matrix(-4.440061e-02 -0.6314 3.3483 -9.405003e-02 5818.4775 -31.8626)" gradientUnits="userSpaceOnUse">
		<stop  offset="0" style="stop-color:#FFFFFF"/>
		<stop  offset="1" style="stop-color:#FFFFFF;stop-opacity:0"/>
	</radialGradient>
	<ellipse style="fill:url(#SVGID_13_);" cx="88.3" cy="73.8" rx="18.2" ry="10.1"/>
	
		<radialGradient id="SVGID_14_" cx="-6130.6567" cy="-946.4048" r="5.5993" gradientTransform="matrix(0.6314 -4.440061e-02 9.405003e-02 3.3483 4047.0652 2971.1682)" gradientUnits="userSpaceOnUse">
		<stop  offset="0" style="stop-color:#FFFFFF"/>
		<stop  offset="1" style="stop-color:#FFFFFF;stop-opacity:0"/>
	</radialGradient>
	<ellipse style="fill:url(#SVGID_14_);" cx="87.2" cy="74.9" rx="7.1" ry="12.7"/>
</g>
<g style="opacity:0.46;">
	
		<radialGradient id="SVGID_15_" cx="130.0293" cy="-1588.2177" r="11.7389" gradientTransform="matrix(-4.440061e-02 -0.6314 3.3483 -9.405003e-02 5453.6318 83.5622)" gradientUnits="userSpaceOnUse">
		<stop  offset="0" style="stop-color:#FFFFFF"/>
		<stop  offset="1" style="stop-color:#FFFFFF;stop-opacity:0"/>
	</radialGradient>
	<ellipse style="fill:url(#SVGID_15_);" cx="130.9" cy="151.1" rx="26.7" ry="14.8"/>
	
		<radialGradient id="SVGID_16_" cx="-6053.0269" cy="-1013.0846" r="8.2169" gradientTransform="matrix(0.6314 -4.440061e-02 9.405003e-02 3.3483 4046.4644 3275.509)" gradientUnits="userSpaceOnUse">
		<stop  offset="0" style="stop-color:#FFFFFF"/>
		<stop  offset="1" style="stop-color:#FFFFFF;stop-opacity:0"/>
	</radialGradient>
	<ellipse style="fill:url(#SVGID_16_);" cx="129.3" cy="152.7" rx="10.4" ry="18.7"/>
</g>
</svg>
