<?xml version="1.0" encoding="utf-8"?>
<!-- Generator: Adobe Illustrator 22.0.0, SVG Export Plug-In . SVG Version: 6.00 Build 0)  -->
<svg version="1.1" id="Layer_1" xmlns="http://www.w3.org/2000/svg" xmlns:xlink="http://www.w3.org/1999/xlink" x="0px" y="0px"
	 viewBox="0 0 456.7 68.9" style="enable-background:new 0 0 456.7 68.9;" xml:space="preserve">
<g>
	<g style="opacity:0.19;">
		<path style="fill:#02FFAF;" d="M27.8,34.7H11.7l-3.1,7.4H0.4L15.9,7.4h7.9l15.5,34.7h-8.4L27.8,34.7z M25.3,28.6l-5.5-13.3
			l-5.5,13.3H25.3z"/>
		<path style="fill:#02FFAF;" d="M60,32h-4v10.1h-7.7V15.5H56v10.4h4.2l7.2-10.4h8.2l-9.3,12.8l10,13.9h-9.1L60,32z"/>
		<path style="fill:#02FFAF;" d="M107.2,21.8h-9v20.3h-7.7V21.8h-9v-6.3h25.7V21.8z"/>
		<path style="fill:#02FFAF;" d="M143.2,15.5l-12,28.3c-1.2,3.1-2.7,5.2-4.5,6.5c-1.8,1.3-4,1.9-6.5,1.9c-1.4,0-2.8-0.2-4.1-0.6
			c-1.4-0.4-2.5-1-3.3-1.8l2.8-5.5c0.6,0.5,1.3,0.9,2.1,1.2c0.8,0.3,1.5,0.4,2.3,0.4c1.1,0,1.9-0.3,2.6-0.8c0.7-0.5,1.3-1.4,1.8-2.6
			l0.1-0.2l-11.5-26.9h8l7.5,18.1l7.5-18.1H143.2z"/>
		<path style="fill:#02FFAF;" d="M170.9,18c2.2,2,3.3,4.9,3.3,8.9v15.2h-7.2v-3.3c-1.5,2.5-4.2,3.7-8.1,3.7c-2,0-3.8-0.3-5.3-1
			c-1.5-0.7-2.7-1.7-3.4-2.9c-0.8-1.2-1.2-2.6-1.2-4.2c0-2.5,0.9-4.4,2.8-5.8c1.9-1.4,4.7-2.1,8.6-2.1h6.1c0-1.7-0.5-3-1.5-3.9
			c-1-0.9-2.6-1.4-4.6-1.4c-1.4,0-2.8,0.2-4.2,0.7s-2.5,1-3.5,1.8l-2.8-5.4c1.5-1,3.2-1.8,5.2-2.4c2-0.6,4.1-0.8,6.3-0.8
			C165.5,15.1,168.6,16,170.9,18z M164.3,36.4c1-0.6,1.8-1.5,2.2-2.7V31h-5.3c-3.2,0-4.8,1-4.8,3.1c0,1,0.4,1.8,1.2,2.4
			c0.8,0.6,1.8,0.9,3.2,0.9C162.1,37.3,163.2,37,164.3,36.4z"/>
		<path style="fill:#02FFAF;" d="M211.4,15.5v26.7h-7.7V21.8h-8.4l-0.2,4.7c-0.1,3.5-0.5,6.4-1,8.7c-0.5,2.3-1.4,4.1-2.6,5.5
			c-1.2,1.3-2.8,2-5,2c-1.1,0-2.5-0.2-4-0.6l0.4-6.3c0.5,0.1,0.9,0.1,1.1,0.1c1.2,0,2-0.4,2.6-1.3s1-1.9,1.2-3.2s0.3-3,0.4-5.2
			l0.4-10.7H211.4z"/>
		<path style="fill:#02FFAF;" d="M246.2,26.3c1.8,1.5,2.8,3.7,2.8,6.5c0,2.9-1,5.2-3.1,6.9c-2.1,1.6-5,2.5-8.7,2.5l-13.4,0V15.5h7.7
			V24h6.7C241.7,24,244.4,24.8,246.2,26.3z M239.9,35.7c0.8-0.7,1.2-1.7,1.2-3c0-1.3-0.4-2.2-1.2-2.8c-0.8-0.6-1.9-0.9-3.4-0.9l-5,0
			v7.7h5C238,36.7,239.1,36.4,239.9,35.7z"/>
		<path style="fill:#02FFAF;" d="M258.8,15.5h7.7v10.4H278V15.5h7.7v26.7H278v-10h-11.6v10h-7.7V15.5z"/>
		<path style="fill:#02FFAF;" d="M303,40.8c-2.2-1.2-4-2.8-5.2-4.9c-1.3-2.1-1.9-4.4-1.9-7.1s0.6-5,1.9-7.1c1.3-2.1,3-3.7,5.2-4.9
			c2.2-1.2,4.7-1.8,7.6-1.8s5.3,0.6,7.5,1.8c2.2,1.2,3.9,2.8,5.2,4.9c1.3,2.1,1.9,4.4,1.9,7.1s-0.6,5-1.9,7.1
			c-1.3,2.1-3,3.7-5.2,4.9c-2.2,1.2-4.7,1.8-7.5,1.8S305.3,41.9,303,40.8z M315.5,34.2c1.3-1.3,1.9-3.1,1.9-5.4s-0.6-4-1.9-5.4
			c-1.3-1.3-2.9-2-4.9-2c-2,0-3.6,0.7-4.9,2s-1.9,3.1-1.9,5.4s0.6,4,1.9,5.4s2.9,2,4.9,2C312.6,36.2,314.2,35.5,315.5,34.2z"/>
		<path style="fill:#02FFAF;" d="M340.5,40.8c-2.3-1.2-4-2.8-5.3-4.9c-1.3-2.1-1.9-4.4-1.9-7.1s0.6-5,1.9-7.1c1.3-2.1,3-3.7,5.3-4.9
			c2.3-1.2,4.8-1.8,7.7-1.8c2.8,0,5.3,0.6,7.4,1.8c2.1,1.2,3.6,2.8,4.6,5l-6,3.2c-1.4-2.4-3.4-3.7-6-3.7c-2,0-3.7,0.7-5,2
			c-1.3,1.3-2,3.1-2,5.4c0,2.3,0.7,4.1,2,5.4c1.3,1.3,3,2,5,2c2.6,0,4.6-1.2,6-3.7l6,3.3c-1,2.1-2.5,3.8-4.6,5
			c-2.1,1.2-4.6,1.8-7.4,1.8C345.3,42.5,342.8,41.9,340.5,40.8z"/>
		<path style="fill:#02FFAF;" d="M392.1,21.8h-9v20.3h-7.7V21.8h-9v-6.3h25.7V21.8z"/>
		<path style="fill:#02FFAF;" d="M423.5,26.3c1.8,1.5,2.8,3.7,2.8,6.5c0,2.9-1,5.2-3.1,6.9c-2.1,1.6-5,2.5-8.7,2.5l-13.4,0V15.5h7.7
			V24h6.7C419,24,421.7,24.8,423.5,26.3z M417.2,35.7c0.8-0.7,1.2-1.7,1.2-3c0-1.3-0.4-2.2-1.2-2.8c-0.8-0.6-1.9-0.9-3.4-0.9l-5,0
			v7.7h5C415.3,36.7,416.4,36.4,417.2,35.7z"/>
	</g>
	<g>
		<path style="fill:#02FFAF;" d="M52.2,48.3H36.1L33,55.7h-8.2L40.2,21h7.9l15.5,34.7h-8.4L52.2,48.3z M49.6,42.2l-5.5-13.3
			l-5.5,13.3H49.6z"/>
		<path style="fill:#02FFAF;" d="M84.4,45.6h-4v10.1h-7.7V29.1h7.7v10.4h4.2l7.2-10.4h8.2l-9.3,12.8l10,13.9h-9.1L84.4,45.6z"/>
		<path style="fill:#02FFAF;" d="M131.5,35.4h-9v20.3h-7.7V35.4h-9v-6.3h25.7V35.4z"/>
		<path style="fill:#02FFAF;" d="M167.6,29.1l-12,28.3c-1.2,3.1-2.7,5.2-4.5,6.5c-1.8,1.3-4,1.9-6.5,1.9c-1.4,0-2.8-0.2-4.1-0.6
			c-1.4-0.4-2.5-1-3.3-1.8l2.8-5.5c0.6,0.5,1.3,0.9,2.1,1.2c0.8,0.3,1.5,0.4,2.3,0.4c1.1,0,1.9-0.3,2.6-0.8c0.7-0.5,1.3-1.4,1.8-2.6
			l0.1-0.2l-11.5-26.9h8l7.5,18.1l7.5-18.1H167.6z"/>
		<path style="fill:#02FFAF;" d="M195.2,31.6c2.2,2,3.3,4.9,3.3,8.9v15.2h-7.2v-3.3c-1.5,2.5-4.2,3.7-8.1,3.7c-2,0-3.8-0.3-5.3-1
			c-1.5-0.7-2.7-1.7-3.4-2.9c-0.8-1.2-1.2-2.6-1.2-4.2c0-2.5,0.9-4.4,2.8-5.8c1.9-1.4,4.7-2.1,8.6-2.1h6.1c0-1.7-0.5-3-1.5-3.9
			c-1-0.9-2.6-1.4-4.6-1.4c-1.4,0-2.8,0.2-4.2,0.7s-2.5,1-3.5,1.8l-2.8-5.4c1.5-1,3.2-1.8,5.2-2.4c2-0.6,4.1-0.8,6.3-0.8
			C189.8,28.7,193,29.6,195.2,31.6z M188.6,50c1-0.6,1.8-1.5,2.2-2.7v-2.7h-5.3c-3.2,0-4.8,1-4.8,3.1c0,1,0.4,1.8,1.2,2.4
			c0.8,0.6,1.8,0.9,3.2,0.9C186.4,50.9,187.6,50.6,188.6,50z"/>
		<path style="fill:#02FFAF;" d="M235.8,29.1v26.7h-7.7V35.4h-8.4l-0.2,4.7c-0.1,3.5-0.5,6.4-1,8.7c-0.5,2.3-1.4,4.1-2.6,5.5
			c-1.2,1.3-2.8,2-5,2c-1.1,0-2.5-0.2-4-0.6l0.4-6.3c0.5,0.1,0.9,0.1,1.1,0.1c1.2,0,2-0.4,2.6-1.3s1-1.9,1.2-3.2s0.3-3,0.4-5.2
			l0.4-10.7H235.8z"/>
		<path style="fill:#02FFAF;" d="M270.6,39.9c1.8,1.5,2.8,3.7,2.8,6.5c0,2.9-1,5.2-3.1,6.9c-2.1,1.6-5,2.5-8.7,2.5l-13.4,0V29.1h7.7
			v8.5h6.7C266.1,37.6,268.7,38.4,270.6,39.9z M264.3,49.3c0.8-0.7,1.2-1.7,1.2-3c0-1.3-0.4-2.2-1.2-2.8c-0.8-0.6-1.9-0.9-3.4-0.9
			l-5,0v7.7h5C262.4,50.3,263.5,50,264.3,49.3z"/>
		<path style="fill:#02FFAF;" d="M283.1,29.1h7.7v10.4h11.6V29.1h7.7v26.7h-7.7v-10h-11.6v10h-7.7V29.1z"/>
		<path style="fill:#02FFAF;" d="M327.4,54.4c-2.2-1.2-4-2.8-5.2-4.9c-1.3-2.1-1.9-4.4-1.9-7.1s0.6-5,1.9-7.1c1.3-2.1,3-3.7,5.2-4.9
			c2.2-1.2,4.7-1.8,7.6-1.8s5.3,0.6,7.5,1.8c2.2,1.2,3.9,2.8,5.2,4.9c1.3,2.1,1.9,4.4,1.9,7.1s-0.6,5-1.9,7.1
			c-1.3,2.1-3,3.7-5.2,4.9c-2.2,1.2-4.7,1.8-7.5,1.8S329.6,55.5,327.4,54.4z M339.8,47.8c1.3-1.3,1.9-3.1,1.9-5.4s-0.6-4-1.9-5.4
			c-1.3-1.3-2.9-2-4.9-2c-2,0-3.6,0.7-4.9,2s-1.9,3.1-1.9,5.4s0.6,4,1.9,5.4s2.9,2,4.9,2C336.9,49.8,338.6,49.1,339.8,47.8z"/>
		<path style="fill:#02FFAF;" d="M364.9,54.4c-2.3-1.2-4-2.8-5.3-4.9c-1.3-2.1-1.9-4.4-1.9-7.1s0.6-5,1.9-7.1c1.3-2.1,3-3.7,5.3-4.9
			c2.3-1.2,4.8-1.8,7.7-1.8c2.8,0,5.3,0.6,7.4,1.8c2.1,1.2,3.6,2.8,4.6,5l-6,3.2c-1.4-2.4-3.4-3.7-6-3.7c-2,0-3.7,0.7-5,2
			c-1.3,1.3-2,3.1-2,5.4c0,2.3,0.7,4.1,2,5.4c1.3,1.3,3,2,5,2c2.6,0,4.6-1.2,6-3.7l6,3.3c-1,2.1-2.5,3.8-4.6,5
			c-2.1,1.2-4.6,1.8-7.4,1.8C369.7,56.1,367.1,55.5,364.9,54.4z"/>
		<path style="fill:#02FFAF;" d="M416.4,35.4h-9v20.3h-7.7V35.4h-9v-6.3h25.7V35.4z"/>
		<path style="fill:#02FFAF;" d="M447.9,39.9c1.8,1.5,2.8,3.7,2.8,6.5c0,2.9-1,5.2-3.1,6.9c-2.1,1.6-5,2.5-8.7,2.5l-13.4,0V29.1h7.7
			v8.5h6.7C443.4,37.6,446,38.4,447.9,39.9z M441.6,49.3c0.8-0.7,1.2-1.7,1.2-3c0-1.3-0.4-2.2-1.2-2.8c-0.8-0.6-1.9-0.9-3.4-0.9
			l-5,0v7.7h5C439.7,50.3,440.8,50,441.6,49.3z"/>
	</g>
</g>
</svg>
