<?xml version="1.0" encoding="utf-8"?>
<!-- Generator: Adobe Illustrator 22.0.0, SVG Export Plug-In . SVG Version: 6.00 Build 0)  -->
<svg version="1.1" id="Layer_1" xmlns="http://www.w3.org/2000/svg" xmlns:xlink="http://www.w3.org/1999/xlink" x="0px" y="0px"
	 viewBox="0 0 204.6 64.2" style="enable-background:new 0 0 204.6 64.2;" xml:space="preserve">
<g>
	<g>
		<g>
			<g>
				<path style="fill:#000201;" d="M203.2,22.9v18.4c0,11.9-9.6,21.5-21.5,21.5H22.9C11,62.7,1.4,53.1,1.4,41.3V22.9
					C1.4,11,11,1.4,22.9,1.4h158.8C193.6,1.4,203.2,11,203.2,22.9z"/>
				<path style="fill:#9543FF;" d="M181.7,64.2H22.9C10.3,64.2,0,53.9,0,41.3V22.9C0,10.3,10.3,0,22.9,0h158.8
					c12.6,0,22.9,10.3,22.9,22.9v18.4C204.6,53.9,194.3,64.2,181.7,64.2z M22.9,2.8c-11.1,0-20.1,9-20.1,20.1v18.4
					c0,11.1,9,20.1,20.1,20.1h158.8c11.1,0,20.1-9,20.1-20.1V22.9c0-11.1-9-20.1-20.1-20.1H22.9z"/>
			</g>
			<g style="opacity:0.23;">
				<path style="fill:#000201;" d="M203.2,22.9v18.4c0,11.9-9.6,21.5-21.5,21.5H22.9C11,62.7,1.4,53.1,1.4,41.3V22.9
					C1.4,11,11,1.4,22.9,1.4h158.8C193.6,1.4,203.2,11,203.2,22.9z"/>
				<path style="fill:#9543FF;" d="M181.7,64.2H22.9C10.3,64.2,0,53.9,0,41.3V22.9C0,10.3,10.3,0,22.9,0h158.8
					c12.6,0,22.9,10.3,22.9,22.9v18.4C204.6,53.9,194.3,64.2,181.7,64.2z M22.9,2.8c-11.1,0-20.1,9-20.1,20.1v18.4
					c0,11.1,9,20.1,20.1,20.1h158.8c11.1,0,20.1-9,20.1-20.1V22.9c0-11.1-9-20.1-20.1-20.1H22.9z"/>
			</g>
		</g>
	</g>
	<g>
		<path style="fill:#9543FF;" d="M64,36.8c-1.2-0.6-2.1-1.5-2.8-2.6c-0.7-1.1-1-2.4-1-3.7s0.3-2.6,1-3.7c0.7-1.1,1.6-2,2.8-2.6
			s2.5-1,4-1c1.5,0,2.8,0.3,4,1s2.1,1.5,2.8,2.6c0.7,1.1,1,2.4,1,3.7s-0.3,2.6-1,3.7c-0.7,1.1-1.6,2-2.8,2.6s-2.5,0.9-4,0.9
			C66.5,37.7,65.2,37.4,64,36.8z M70.2,34.3c0.7-0.4,1.2-0.9,1.6-1.6c0.4-0.7,0.6-1.5,0.6-2.3s-0.2-1.7-0.6-2.3
			c-0.4-0.7-0.9-1.2-1.6-1.6c-0.7-0.4-1.4-0.6-2.3-0.6s-1.6,0.2-2.3,0.6c-0.7,0.4-1.2,0.9-1.6,1.6c-0.4,0.7-0.6,1.5-0.6,2.3
			s0.2,1.7,0.6,2.3c0.4,0.7,0.9,1.2,1.6,1.6c0.7,0.4,1.4,0.6,2.3,0.6S69.6,34.7,70.2,34.3z"/>
		<path style="fill:#9543FF;" d="M87.8,26.6h3.1v6.5l5.3-6.5h2.9v10.9h-3.1V31l-5.3,6.5h-2.9V26.6z"/>
		<path style="fill:#9543FF;" d="M112.8,29.2h-5.6v8.3h-3.1V26.6h8.7V29.2z"/>
		<path style="fill:#9543FF;" d="M125.7,27.1c0.8,0.5,1.5,1.1,1.9,2s0.7,1.8,0.7,2.9s-0.2,2.1-0.7,2.9s-1.1,1.5-1.9,2
			c-0.8,0.5-1.7,0.7-2.8,0.7c-1.4,0-2.5-0.4-3.3-1.3v5.1h-3.2V26.6h3v1.3c0.8-0.9,1.9-1.4,3.4-1.4C123.9,26.4,124.9,26.7,125.7,27.1
			z M124.4,34.2c0.5-0.5,0.8-1.3,0.8-2.2s-0.3-1.6-0.8-2.2c-0.5-0.5-1.2-0.8-2-0.8c-0.8,0-1.5,0.3-2,0.8c-0.5,0.5-0.8,1.3-0.8,2.2
			s0.3,1.6,0.8,2.2s1.2,0.8,2,0.8C123.2,35,123.9,34.8,124.4,34.2z"/>
		<path style="fill:#9543FF;" d="M143.1,32.9h-8.2c0.1,0.7,0.5,1.2,1.1,1.6s1.2,0.6,2.1,0.6c0.6,0,1.1-0.1,1.5-0.3
			c0.4-0.2,0.8-0.4,1.2-0.8l1.7,1.8c-1,1.2-2.5,1.8-4.5,1.8c-1.2,0-2.3-0.2-3.3-0.7c-0.9-0.5-1.7-1.1-2.2-2
			c-0.5-0.8-0.8-1.8-0.8-2.9c0-1.1,0.3-2,0.8-2.9c0.5-0.9,1.2-1.5,2.1-2c0.9-0.5,1.9-0.7,3-0.7c1.1,0,2,0.2,2.9,0.7s1.5,1.1,2,2
			c0.5,0.9,0.7,1.8,0.7,3C143.1,32.1,143.1,32.4,143.1,32.9z M135.7,29.4c-0.5,0.4-0.8,1-0.9,1.7h5.4c-0.1-0.7-0.4-1.2-0.9-1.6
			c-0.5-0.4-1.1-0.6-1.8-0.6C136.8,28.8,136.2,29,135.7,29.4z"/>
	</g>
</g>
</svg>
