<?xml version="1.0" encoding="utf-8"?>
<!-- Generator: Adobe Illustrator 22.0.0, SVG Export Plug-In . SVG Version: 6.00 Build 0)  -->
<svg version="1.1" id="Layer_1" xmlns="http://www.w3.org/2000/svg" xmlns:xlink="http://www.w3.org/1999/xlink" x="0px" y="0px"
	 viewBox="0 0 34 43" style="enable-background:new 0 0 34 43;" xml:space="preserve">
<g>
	<g>
		<g>
			<g>
				<g>
					<path style="fill:#9543FF;" d="M26,16.1H8.1c-0.5,0-0.9,0.4-0.9,0.9v14.3c0,2.2,1.5,4,3.6,4.4v4.6c0,1.5,1.2,2.7,2.7,2.7
						s2.7-1.2,2.7-2.7v-4.5h1.8v4.5c0,1.5,1.2,2.7,2.7,2.7s2.7-1.2,2.7-2.7v-4.6c2-0.4,3.6-2.2,3.6-4.4V17
						C26.9,16.5,26.5,16.1,26,16.1z"/>
				</g>
			</g>
			<g>
				<g>
					<path style="fill:#9543FF;" d="M21.7,4.8l1.5-3.5c0.2-0.5,0-1-0.5-1.2c-0.4-0.2-1,0-1.2,0.5l-1.5,3.5c-1-0.3-2-0.5-3-0.5
						c-1.1,0-2.1,0.2-3,0.5l-1.5-3.5c-0.2-0.5-0.7-0.7-1.2-0.5c-0.5,0.2-0.7,0.7-0.5,1.2l1.5,3.5c-3.1,1.7-5.2,4.9-5.2,8.7
						c0,0.5,0.4,0.9,0.9,0.9H26c0.5,0,0.9-0.4,0.9-0.9C26.9,9.7,24.8,6.4,21.7,4.8z M13.4,10.8c-0.5,0-0.9-0.4-0.9-0.9
						c0-0.5,0.4-0.9,0.9-0.9s0.9,0.4,0.9,0.9C14.3,10.4,13.9,10.8,13.4,10.8z M20.6,10.8c-0.5,0-0.9-0.4-0.9-0.9
						c0-0.5,0.4-0.9,0.9-0.9s0.9,0.4,0.9,0.9C21.5,10.4,21.1,10.8,20.6,10.8z"/>
				</g>
			</g>
			<g>
				<g>
					<path style="fill:#9543FF;" d="M31.4,16.1c-1.5,0-2.7,1.2-2.7,2.7v9c0,1.5,1.2,2.7,2.7,2.7c1.5,0,2.7-1.2,2.7-2.7v-9
						C34,17.3,32.8,16.1,31.4,16.1z"/>
				</g>
			</g>
			<g>
				<g>
					<path style="fill:#9543FF;" d="M2.7,16.1c-1.5,0-2.7,1.2-2.7,2.7v9c0,1.5,1.2,2.7,2.7,2.7s2.7-1.2,2.7-2.7v-9
						C5.4,17.3,4.2,16.1,2.7,16.1z"/>
				</g>
			</g>
		</g>
	</g>
</g>
</svg>
