<?xml version="1.0" encoding="utf-8"?>
<!-- Generator: Adobe Illustrator 22.0.0, SVG Export Plug-In . SVG Version: 6.00 Build 0)  -->
<svg version="1.1" id="Layer_1" xmlns="http://www.w3.org/2000/svg" xmlns:xlink="http://www.w3.org/1999/xlink" x="0px" y="0px"
	 viewBox="0 0 35.3 43" style="enable-background:new 0 0 35.3 43;" xml:space="preserve">
<g>
	<path style="fill:#9543FF;" d="M11.7,43C5.3,43,0,29.9,0,23.2C0,12.4,8.2,10,11.3,10c1.4,0,2.9,0.6,4.3,1c0.9,0.3,1.9,0.7,2.4,0.7
		c0.3,0,1.1-0.3,1.7-0.6c1.4-0.6,3.2-1.3,5.3-1.3c0,0,0,0,0,0c1.5,0,6.2,0.3,9,4.6l0.7,1l-0.9,0.7c-1.4,1-3.8,2.9-3.8,6.6
		c0,4.4,2.8,6.1,4.1,6.9c0.6,0.4,1.2,0.7,1.2,1.5c0,0.5-4.2,11.8-10.3,11.8c-1.5,0-2.5-0.4-3.5-0.8c-0.9-0.4-1.8-0.7-3.1-0.7
		c-0.7,0-1.5,0.3-2.4,0.7C14.7,42.5,13.3,43,11.7,43L11.7,43z"/>
	<path style="fill:#9543FF;" d="M25.6,0c0.2,5.7-3.9,9.7-8,9.4C17,4.9,21.7,0,25.6,0z"/>
</g>
</svg>
