<?xml version="1.0" encoding="utf-8"?>
<!-- Generator: Adobe Illustrator 22.0.0, SVG Export Plug-In . SVG Version: 6.00 Build 0)  -->
<svg version="1.1" id="Layer_1" xmlns="http://www.w3.org/2000/svg" xmlns:xlink="http://www.w3.org/1999/xlink" x="0px" y="0px"
	 viewBox="0 0 80 80" style="enable-background:new 0 0 80 80;" xml:space="preserve">
<g>
	<radialGradient id="SVGID_1_" cx="40" cy="40" r="40" gradientUnits="userSpaceOnUse">
		<stop  offset="0" style="stop-color:#008FE8;stop-opacity:0.8"/>
		<stop  offset="0.6486" style="stop-color:#000000;stop-opacity:0"/>
	</radialGradient>
	<circle style="fill:url(#SVGID_1_);" cx="40" cy="40" r="40"/>
	<path style="fill:#9543FF;" d="M43.3,40l14-14c0.9-0.9,0.9-2.4,0-3.3c-0.9-0.9-2.4-0.9-3.3,0l-14,14l-14-14c-0.9-0.9-2.4-0.9-3.3,0
		c-0.9,0.9-0.9,2.4,0,3.3l14,14l-14,14c-0.9,0.9-0.9,2.4,0,3.3c0.5,0.5,1.1,0.7,1.6,0.7s1.2-0.2,1.6-0.7l14-14l14,14
		c0.5,0.5,1.1,0.7,1.6,0.7c0.6,0,1.2-0.2,1.6-0.7c0.9-0.9,0.9-2.4,0-3.3L43.3,40z"/>
</g>
</svg>
