<?xml version="1.0" encoding="utf-8"?>
<!-- Generator: Adobe Illustrator 22.0.0, SVG Export Plug-In . SVG Version: 6.00 Build 0)  -->
<svg version="1.1" id="Layer_1" xmlns="http://www.w3.org/2000/svg" xmlns:xlink="http://www.w3.org/1999/xlink" x="0px" y="0px"
	 viewBox="0 0 662.9 477" style="enable-background:new 0 0 662.9 477;" xml:space="preserve">
<path style="fill:#9543FF;" d="M623.8,477H39.1C17.6,477,0,459.5,0,437.9V39.1C0,17.6,17.6,0,39.1,0h584.7
	c21.6,0,39.1,17.6,39.1,39.1v398.8C662.9,459.5,645.4,477,623.8,477z M39.1,2.8c-20,0-36.3,16.3-36.3,36.3v398.8
	c0,20,16.3,36.3,36.3,36.3h584.7c20,0,36.3-16.3,36.3-36.3V39.1c0-20-16.3-36.3-36.3-36.3H39.1z"/>
</svg>
