<?xml version="1.0" encoding="utf-8"?>
<!-- Generator: Adobe Illustrator 22.0.0, SVG Export Plug-In . SVG Version: 6.00 Build 0)  -->
<svg version="1.1" id="Layer_1" xmlns="http://www.w3.org/2000/svg" xmlns:xlink="http://www.w3.org/1999/xlink" x="0px" y="0px"
	 viewBox="0 0 363.5 59.9" style="enable-background:new 0 0 363.5 59.9;" xml:space="preserve">
<g>
	<g style="opacity:0.19;">
		<path style="fill:#9543FF;" d="M31.5,2.1v34.6h-8V8.6H8v28.1H0V2.1H31.5z"/>
		<path style="fill:#9543FF;" d="M49.4,35.3c-2.2-1.2-4-2.8-5.2-4.9c-1.3-2.1-1.9-4.4-1.9-7.1c0-2.6,0.6-5,1.9-7.1
			c1.3-2.1,3-3.7,5.2-4.9c2.2-1.2,4.7-1.8,7.5-1.8s5.3,0.6,7.5,1.8c2.2,1.2,3.9,2.8,5.2,4.9c1.3,2.1,1.9,4.4,1.9,7.1
			c0,2.6-0.6,5-1.9,7.1c-1.3,2.1-3,3.7-5.2,4.9c-2.2,1.2-4.7,1.8-7.5,1.8S51.6,36.5,49.4,35.3z M61.8,28.8c1.3-1.3,1.9-3.1,1.9-5.4
			c0-2.2-0.6-4-1.9-5.4c-1.3-1.3-2.9-2-4.9-2c-2,0-3.6,0.7-4.9,2c-1.3,1.3-1.9,3.1-1.9,5.4c0,2.2,0.6,4,1.9,5.4c1.3,1.3,2.9,2,4.9,2
			C58.9,30.8,60.6,30.1,61.8,28.8z"/>
		<path style="fill:#9543FF;" d="M104.2,11.4c2,1.1,3.6,2.7,4.8,4.8c1.2,2.1,1.7,4.5,1.7,7.2c0,2.7-0.6,5.1-1.7,7.2
			c-1.2,2.1-2.7,3.7-4.8,4.8c-2,1.1-4.3,1.7-6.8,1.7c-3.4,0-6.1-1.1-8-3.2v12.4h-7.7V10.1h7.4v3.1c1.9-2.3,4.7-3.5,8.4-3.5
			C99.9,9.7,102.2,10.3,104.2,11.4z M101,28.8c1.3-1.3,1.9-3.1,1.9-5.4c0-2.2-0.6-4-1.9-5.4c-1.3-1.3-2.9-2-4.9-2
			c-2,0-3.6,0.7-4.9,2c-1.3,1.3-1.9,3.1-1.9,5.4c0,2.2,0.6,4,1.9,5.4c1.3,1.3,2.9,2,4.9,2C98.1,30.8,99.7,30.1,101,28.8z"/>
		<path style="fill:#9543FF;" d="M142.4,16.4h-9v20.3h-7.7V16.4h-9v-6.3h25.7V16.4z"/>
		<path style="fill:#9543FF;" d="M183,33.1c-2.8,2.4-6.7,3.8-11.8,4.1v9.1h-7.1v-9.1c-5.1-0.4-9-1.7-11.8-4.1
			c-2.8-2.4-4.1-5.6-4.1-9.8c0-4.1,1.4-7.3,4.1-9.6s6.7-3.6,11.8-4V0h7.1v9.7c5.1,0.4,9,1.7,11.8,4c2.8,2.3,4.1,5.5,4.1,9.5
			C187.1,27.4,185.7,30.7,183,33.1z M157.7,28.8c1.4,1.3,3.5,2.1,6.4,2.4V15.7c-2.9,0.3-5.1,1.1-6.4,2.3s-2,3-2,5.3
			C155.7,25.7,156.3,27.5,157.7,28.8z M177.6,28.8c1.4-1.3,2.1-3.1,2.1-5.5c0-2.3-0.7-4-2.1-5.3c-1.4-1.2-3.5-2-6.5-2.3v15.5
			C174.1,30.9,176.3,30.1,177.6,28.8z"/>
		<path style="fill:#9543FF;" d="M202.2,35.3c-2.2-1.2-4-2.8-5.2-4.9c-1.3-2.1-1.9-4.4-1.9-7.1c0-2.6,0.6-5,1.9-7.1
			c1.3-2.1,3-3.7,5.2-4.9c2.2-1.2,4.7-1.8,7.5-1.8s5.3,0.6,7.5,1.8c2.2,1.2,3.9,2.8,5.2,4.9c1.3,2.1,1.9,4.4,1.9,7.1
			c0,2.6-0.6,5-1.9,7.1c-1.3,2.1-3,3.7-5.2,4.9c-2.2,1.2-4.7,1.8-7.5,1.8S204.4,36.5,202.2,35.3z M214.6,28.8
			c1.3-1.3,1.9-3.1,1.9-5.4c0-2.2-0.6-4-1.9-5.4c-1.3-1.3-2.9-2-4.9-2c-2,0-3.6,0.7-4.9,2c-1.3,1.3-1.9,3.1-1.9,5.4
			c0,2.2,0.6,4,1.9,5.4c1.3,1.3,2.9,2,4.9,2C211.7,30.8,213.4,30.1,214.6,28.8z"/>
		<path style="fill:#9543FF;" d="M259.7,10.1v26.6H252V16.4h-8.4l-0.2,4.7c-0.1,3.5-0.5,6.4-1,8.7c-0.5,2.3-1.4,4.1-2.6,5.4
			s-2.8,2-4.9,2c-1.1,0-2.5-0.2-4-0.6l0.4-6.3c0.5,0.1,0.9,0.1,1.1,0.1c1.2,0,2-0.4,2.6-1.3c0.6-0.8,1-1.9,1.2-3.2
			c0.2-1.3,0.3-3,0.4-5.2l0.4-10.7H259.7z"/>
		<path style="fill:#9543FF;" d="M272.1,10.1h7.7v15.8l13-15.8h7.1v26.6h-7.7V20.9l-12.9,15.8h-7.1V10.1z"/>
		<path style="fill:#9543FF;" d="M317,35.3c-2.2-1.2-4-2.8-5.2-4.9c-1.3-2.1-1.9-4.4-1.9-7.1c0-2.6,0.6-5,1.9-7.1
			c1.3-2.1,3-3.7,5.2-4.9c2.2-1.2,4.7-1.8,7.5-1.8s5.3,0.6,7.5,1.8c2.2,1.2,3.9,2.8,5.2,4.9c1.3,2.1,1.9,4.4,1.9,7.1
			c0,2.6-0.6,5-1.9,7.1c-1.3,2.1-3,3.7-5.2,4.9c-2.2,1.2-4.7,1.8-7.5,1.8S319.3,36.5,317,35.3z M329.4,28.8c1.3-1.3,1.9-3.1,1.9-5.4
			c0-2.2-0.6-4-1.9-5.4c-1.3-1.3-2.9-2-4.9-2c-2,0-3.6,0.7-4.9,2c-1.3,1.3-1.9,3.1-1.9,5.4c0,2.2,0.6,4,1.9,5.4c1.3,1.3,2.9,2,4.9,2
			C326.5,30.8,328.2,30.1,329.4,28.8z"/>
	</g>
	<g>
		<path style="fill:#9543FF;" d="M55.9,15.6v34.6h-8V22.2H32.3v28.1h-8V15.6H55.9z"/>
		<path style="fill:#9543FF;" d="M73.7,48.9c-2.2-1.2-4-2.8-5.2-4.9c-1.3-2.1-1.9-4.4-1.9-7.1c0-2.6,0.6-5,1.9-7.1
			c1.3-2.1,3-3.7,5.2-4.9c2.2-1.2,4.7-1.8,7.5-1.8s5.3,0.6,7.5,1.8c2.2,1.2,3.9,2.8,5.2,4.9c1.3,2.1,1.9,4.4,1.9,7.1
			c0,2.6-0.6,5-1.9,7.1c-1.3,2.1-3,3.7-5.2,4.9c-2.2,1.2-4.7,1.8-7.5,1.8S76,50.1,73.7,48.9z M86.1,42.3C87.4,41,88,39.2,88,37
			c0-2.2-0.6-4-1.9-5.4c-1.3-1.3-2.9-2-4.9-2c-2,0-3.6,0.7-4.9,2c-1.3,1.3-1.9,3.1-1.9,5.4c0,2.2,0.6,4,1.9,5.4c1.3,1.3,2.9,2,4.9,2
			C83.3,44.3,84.9,43.7,86.1,42.3z"/>
		<path style="fill:#9543FF;" d="M128.5,25c2,1.1,3.6,2.7,4.8,4.8c1.2,2.1,1.7,4.5,1.7,7.2c0,2.7-0.6,5.1-1.7,7.2
			c-1.2,2.1-2.7,3.7-4.8,4.8c-2,1.1-4.3,1.7-6.8,1.7c-3.4,0-6.1-1.1-8-3.2v12.4H106V23.7h7.4v3.1c1.9-2.3,4.7-3.5,8.4-3.5
			C124.2,23.3,126.5,23.8,128.5,25z M125.3,42.3c1.3-1.3,1.9-3.1,1.9-5.4c0-2.2-0.6-4-1.9-5.4c-1.3-1.3-2.9-2-4.9-2
			c-2,0-3.6,0.7-4.9,2c-1.3,1.3-1.9,3.1-1.9,5.4c0,2.2,0.6,4,1.9,5.4c1.3,1.3,2.9,2,4.9,2C122.4,44.3,124,43.7,125.3,42.3z"/>
		<path style="fill:#9543FF;" d="M166.7,30h-9v20.3h-7.7V30h-9v-6.3h25.7V30z"/>
		<path style="fill:#9543FF;" d="M207.3,46.6c-2.8,2.4-6.7,3.8-11.8,4.1v9.1h-7.1v-9.1c-5.1-0.4-9-1.7-11.8-4.1
			c-2.8-2.4-4.1-5.6-4.1-9.8c0-4.1,1.4-7.3,4.1-9.6s6.7-3.6,11.8-4v-9.7h7.1v9.7c5.1,0.4,9,1.7,11.8,4c2.8,2.3,4.1,5.5,4.1,9.5
			C211.4,41,210,44.2,207.3,46.6z M182,42.3c1.4,1.3,3.5,2.1,6.4,2.4V29.3c-2.9,0.3-5.1,1.1-6.4,2.3s-2,3-2,5.3
			C180,39.2,180.6,41.1,182,42.3z M202,42.3c1.4-1.3,2.1-3.1,2.1-5.5c0-2.3-0.7-4-2.1-5.3c-1.4-1.2-3.5-2-6.5-2.3v15.5
			C198.4,44.4,200.6,43.6,202,42.3z"/>
		<path style="fill:#9543FF;" d="M226.5,48.9c-2.2-1.2-4-2.8-5.2-4.9c-1.3-2.1-1.9-4.4-1.9-7.1c0-2.6,0.6-5,1.9-7.1
			c1.3-2.1,3-3.7,5.2-4.9c2.2-1.2,4.7-1.8,7.5-1.8s5.3,0.6,7.5,1.8c2.2,1.2,3.9,2.8,5.2,4.9c1.3,2.1,1.9,4.4,1.9,7.1
			c0,2.6-0.6,5-1.9,7.1c-1.3,2.1-3,3.7-5.2,4.9c-2.2,1.2-4.7,1.8-7.5,1.8S228.8,50.1,226.5,48.9z M238.9,42.3
			c1.3-1.3,1.9-3.1,1.9-5.4c0-2.2-0.6-4-1.9-5.4c-1.3-1.3-2.9-2-4.9-2c-2,0-3.6,0.7-4.9,2c-1.3,1.3-1.9,3.1-1.9,5.4
			c0,2.2,0.6,4,1.9,5.4c1.3,1.3,2.9,2,4.9,2C236,44.3,237.7,43.7,238.9,42.3z"/>
		<path style="fill:#9543FF;" d="M284,23.7v26.6h-7.7V30h-8.4l-0.2,4.7c-0.1,3.5-0.5,6.4-1,8.7c-0.5,2.3-1.4,4.1-2.6,5.4
			s-2.8,2-4.9,2c-1.1,0-2.5-0.2-4-0.6l0.4-6.3c0.5,0.1,0.9,0.1,1.1,0.1c1.2,0,2-0.4,2.6-1.3c0.6-0.8,1-1.9,1.2-3.2
			c0.2-1.3,0.3-3,0.4-5.2l0.4-10.7H284z"/>
		<path style="fill:#9543FF;" d="M296.4,23.7h7.7v15.8l13-15.8h7.1v26.6h-7.7V34.4l-12.9,15.8h-7.1V23.7z"/>
		<path style="fill:#9543FF;" d="M341.3,48.9c-2.2-1.2-4-2.8-5.2-4.9c-1.3-2.1-1.9-4.4-1.9-7.1c0-2.6,0.6-5,1.9-7.1
			c1.3-2.1,3-3.7,5.2-4.9c2.2-1.2,4.7-1.8,7.5-1.8s5.3,0.6,7.5,1.8c2.2,1.2,3.9,2.8,5.2,4.9c1.3,2.1,1.9,4.4,1.9,7.1
			c0,2.6-0.6,5-1.9,7.1c-1.3,2.1-3,3.7-5.2,4.9c-2.2,1.2-4.7,1.8-7.5,1.8S343.6,50.1,341.3,48.9z M353.8,42.3
			c1.3-1.3,1.9-3.1,1.9-5.4c0-2.2-0.6-4-1.9-5.4c-1.3-1.3-2.9-2-4.9-2c-2,0-3.6,0.7-4.9,2c-1.3,1.3-1.9,3.1-1.9,5.4
			c0,2.2,0.6,4,1.9,5.4c1.3,1.3,2.9,2,4.9,2C350.9,44.3,352.5,43.7,353.8,42.3z"/>
	</g>
</g>
</svg>
