<?xml version="1.0" encoding="utf-8"?>
<!-- Generator: Adobe Illustrator 22.0.0, SVG Export Plug-In . SVG Version: 6.00 Build 0)  -->
<svg version="1.1" id="Layer_1" xmlns="http://www.w3.org/2000/svg" xmlns:xlink="http://www.w3.org/1999/xlink" x="0px" y="0px"
	 viewBox="0 0 485.8 191" style="enable-background:new 0 0 485.8 191;" xml:space="preserve">
<g>
	<g style="opacity:0.4;">
		<linearGradient id="SVGID_1_" gradientUnits="userSpaceOnUse" x1="4.3505" y1="271.3355" x2="256.8482" y2="85.2086">
			<stop  offset="0" style="stop-color:#000000"/>
			<stop  offset="1" style="stop-color:#080807"/>
		</linearGradient>
		<path style="fill:url(#SVGID_1_);" d="M485.8,48.5v94.1c0,26.8-21.7,48.5-48.5,48.5H48.5C21.7,191,0,169.3,0,142.5l0-94.1
			C0,21.7,21.7,0,48.5,0l388.9,0C464.1,0,485.8,21.7,485.8,48.5z"/>
		<linearGradient id="SVGID_2_" gradientUnits="userSpaceOnUse" x1="4.3505" y1="271.3355" x2="256.8482" y2="85.2086">
			<stop  offset="0" style="stop-color:#00C5FF"/>
			<stop  offset="1" style="stop-color:#FF8639;stop-opacity:0"/>
		</linearGradient>
		<path style="opacity:0.23;fill:url(#SVGID_2_);" d="M485.8,48.5v94.1c0,26.8-21.7,48.5-48.5,48.5H48.5C21.7,191,0,169.3,0,142.5
			l0-94.1C0,21.7,21.7,0,48.5,0l388.9,0C464.1,0,485.8,21.7,485.8,48.5z"/>
	</g>
</g>
</svg>
