<?xml version="1.0" encoding="utf-8"?>
<!-- Generator: Adobe Illustrator 22.0.0, SVG Export Plug-In . SVG Version: 6.00 Build 0)  -->
<svg version="1.1" id="Layer_1" xmlns="http://www.w3.org/2000/svg" xmlns:xlink="http://www.w3.org/1999/xlink" x="0px" y="0px"
	 viewBox="0 0 1729 336" style="enable-background:new 0 0 1729 336;" xml:space="preserve">
<g>
	<linearGradient id="SVGID_1_" gradientUnits="userSpaceOnUse" x1="-151.6996" y1="16.9159" x2="1220.7853" y2="208.3168">
		<stop  offset="0" style="stop-color:#478EFF"/>
		<stop  offset="0.7297" style="stop-color:#FF8639;stop-opacity:0"/>
	</linearGradient>
	<path style="opacity:0.26;fill:url(#SVGID_1_);" d="M1729,0.9C1678.4,51.5,780.5,55.8,435.2,246C146.5,405-2.7,334,2.3,183.1
		C4.7,111.6,0-0.1,0-0.1S1730-0.1,1729,0.9z"/>
	<g>
		<linearGradient id="SVGID_2_" gradientUnits="userSpaceOnUse" x1="-85.7202" y1="74.3234" x2="667.72" y2="179.395">
			<stop  offset="0" style="stop-color:#478EFF"/>
			<stop  offset="0.7297" style="stop-color:#FF8639;stop-opacity:0"/>
		</linearGradient>
		<path style="fill:url(#SVGID_2_);" d="M955.5,1.5c0,68.2-521,47.8-710.6,229.3c-158.6,151.7-240.5,84-237.7-60
			C8.4,102.6,5.8,5.5,5.8,5.5S955.5-3.4,955.5,1.5z"/>
		<linearGradient id="SVGID_3_" gradientUnits="userSpaceOnUse" x1="-91.6101" y1="73.6456" x2="666.2026" y2="179.327">
			<stop  offset="0" style="stop-color:#478EFF"/>
			<stop  offset="0.7297" style="stop-color:#FF8639;stop-opacity:0"/>
		</linearGradient>
		<path style="fill:url(#SVGID_3_);" d="M955.5,1.5c0,68.2-521,47.8-710.6,229.3C86.3,382.4,1,314.9,1,170.9c0-68,0-170,0-170
			S955.5-3.4,955.5,1.5z"/>
	</g>
</g>
</svg>
