<?xml version="1.0" encoding="utf-8"?>
<!-- Generator: Adobe Illustrator 22.0.0, SVG Export Plug-In . SVG Version: 6.00 Build 0)  -->
<svg version="1.1" id="Layer_1" xmlns="http://www.w3.org/2000/svg" xmlns:xlink="http://www.w3.org/1999/xlink" x="0px" y="0px"
	 viewBox="0 0 222 121.2" style="enable-background:new 0 0 222 121.2;" xml:space="preserve">
<g>
	<defs>
		<path id="XMLID_49_" d="M99.4,121.2L69,110.4L50.2,92.5l3.9,27.4l-38.3-0.4c-2.2,1.3-7-40.5-7-44.8L0,4.6
			C0.4-6.3,26.8,5.5,31.1,5.5L84,4.4L90.6,22l-2-17.9l55.8-0.7l10.4,13l9.8-12.7l22.2-0.7c25.7,0,32,22.4,32,26.7l3.3,64.8
			c-1,26.1-44.3,27.9-56.1,22c-14.4-7.2-14.1-6.7-14.4-6.7C148.6,109.9,115,116.6,99.4,121.2z"/>
	</defs>
	<use xlink:href="#XMLID_49_"  style="overflow:visible;fill:#001B29;"/>
	<clipPath id="XMLID_8_">
		<use xlink:href="#XMLID_49_"  style="overflow:visible;"/>
	</clipPath>
	<g style="clip-path:url(#XMLID_8_);">
		<defs>
			<path id="XMLID_50_" d="M99.4,119.2L69,108.4L50.2,90.5l3.9,27.4l-38.3-0.4c-2.2,1.3-7-40.5-7-44.8L0,2.7
				C0.4-8.2,26.8,3.5,31.1,3.5L84,2.4l6.5,17.6l-2-17.9l55.8-0.7l10.4,13l9.8-12.7l22.2-0.7c25.7,0,32,22.4,32,26.7l3.3,64.8
				c-1,26.1-44.3,27.9-56.1,22c-14.4-7.2-14.1-6.7-14.4-6.7C148.6,107.9,115,114.6,99.4,119.2z"/>
		</defs>
		<linearGradient id="XMLID_9_" gradientUnits="userSpaceOnUse" x1="259.8569" y1="178.3962" x2="-158.9556" y2="-148.4341">
			<stop  offset="0" style="stop-color:#00C775"/>
			<stop  offset="1" style="stop-color:#FFFFFF;stop-opacity:0"/>
		</linearGradient>
		<use xlink:href="#XMLID_50_"  style="overflow:visible;opacity:0.18;fill:url(#XMLID_9_);"/>
		<clipPath id="XMLID_10_">
			<use xlink:href="#XMLID_50_"  style="overflow:visible;opacity:0.18;"/>
		</clipPath>
		<g style="clip-path:url(#XMLID_10_);">
			<g>
				<g>
					<path style="fill:#FFFFB6;" d="M23,107.7L10.6,13.2l16.3,4.6L64.7,64l-3.9-50.2l21.6,4.3l11.6,90.3l-19.6-9.1L37.8,64l3.4,44.4
						L23,107.7z"/>
				</g>
				<g>
					<path style="fill:#FFFFB6;" d="M119.5,51.6h27.4v19.6L120.5,71v14.6l26.4-3.9l-0.7,18.3l-39.8,7.2L96,15.8l50.6,1.7v20.3
						l-27.1,0.2V51.6z"/>
				</g>
				<g>
					<path style="fill:#FFFFB6;" d="M161.3,80.3c-0.7,0,12.2,2.1,12.4,2.6c5.9,14.4,23.1,7.3,18.6-5c-3.3-9.2-14-10.8-21.9-14.6
						c-16.2-7.6-21-37.6-3.8-45.3c10.3-4.6,25-2.5,33.7,4.9c4.2,3.6,7.7,9.2,9.3,14.4c0.5,1.5,2,6.5,1.3,12.4c0,0-16.9-2.6-17-2.6
						c0.2,0.1,2-4.7-0.7-7.2c-5-4.7-16.2-3.5-16,5.1c0.1,5.1,6.9,7.2,10.8,8.5c13.7,4.6,24,10.9,24.8,26.1c0.4,8.5-4.6,21-13.8,25.4
						c-8.5,4-22.5,4.2-30.7-1.8c-7.8-5.8-12.9-15-14.8-28.7C153.4,74.5,161.1,80.4,161.3,80.3z"/>
				</g>
			</g>
			<g>
				<g>
					<defs>
						<path id="SVGID_1_" d="M23,103.2L10.6,12.5l14.1,0.6c1.4,0.1,2.7,0.7,3.6,1.8l36.4,44.6l-4.4-45.9h22.1l11,90.3l-18.9-9.1
							L37.8,59.4l2.7,43.7H23z"/>
					</defs>
					<linearGradient id="SVGID_2_" gradientUnits="userSpaceOnUse" x1="44.8749" y1="14.0843" x2="47.4843" y2="28.871">
						<stop  offset="0" style="stop-color:#F49816"/>
						<stop  offset="1" style="stop-color:#F4CB16"/>
					</linearGradient>
					<use xlink:href="#SVGID_1_"  style="overflow:visible;fill:url(#SVGID_2_);"/>
					<clipPath id="SVGID_3_">
						<use xlink:href="#SVGID_1_"  style="overflow:visible;"/>
					</clipPath>
					<g style="clip-path:url(#SVGID_3_);">
						<defs>
							<path id="SVGID_4_" d="M23,103.2L10.6,12.5l14.1,0.6c1.4,0.1,2.7,0.7,3.6,1.8l36.4,44.6l-4.4-45.9h22.1l11,90.3l-18.9-9.1
								L37.8,59.4l2.7,43.7H23z"/>
						</defs>
						<linearGradient id="SVGID_5_" gradientUnits="userSpaceOnUse" x1="290.2723" y1="159.4978" x2="-45.348" y2="16.639">
							<stop  offset="0" style="stop-color:#F49816"/>
							<stop  offset="1" style="stop-color:#000000;stop-opacity:0"/>
						</linearGradient>
						<use xlink:href="#SVGID_4_"  style="overflow:visible;fill:url(#SVGID_5_);"/>
						<clipPath id="SVGID_6_">
							<use xlink:href="#SVGID_4_"  style="overflow:visible;"/>
						</clipPath>
					</g>
					<path style="clip-path:url(#SVGID_3_);fill:#FFBD43;" d="M22.1,19.9L7.3,21.6c-4.3,0-7.8-2.2-7.8-6.5V7.9
						c0-4.3,3.5-7.8,7.8-7.8h24.8c3.6,0,10.2,21.3,3.3,20.2c-0.1,0-9.8-0.7-10.5-0.7L22,15L22.1,19.9z"/>
					<path style="clip-path:url(#SVGID_3_);fill:#FFBD43;" d="M68.6,19.7l-16.3,2c-4.3,0-7.8-2.2-7.8-6.5V7.9c0-4.3,3.5-7.8,7.8-7.8
						h24.8c3.6,0,19.2,21.9,12.4,20.9c-0.1,0-17-1.3-17.6-1.3l-8.5-3.9L68.6,19.7z"/>
				</g>
				<g>
					<defs>
						<polygon id="SVGID_7_" points="119.5,47.1 146.9,47.1 146.9,66.6 120.5,66.5 120.5,81 147.6,81 146.2,95.4 106.1,103.7 
							95.4,14.5 146.6,12.9 146.6,33.2 119.5,33.4 						"/>
					</defs>
					<linearGradient id="SVGID_8_" gradientUnits="userSpaceOnUse" x1="121.4946" y1="18.81" x2="121.4946" y2="31.8571">
						<stop  offset="0" style="stop-color:#F49816"/>
						<stop  offset="1" style="stop-color:#F4CB16"/>
					</linearGradient>
					<use xlink:href="#SVGID_7_"  style="overflow:visible;fill:url(#SVGID_8_);"/>
					<clipPath id="SVGID_9_">
						<use xlink:href="#SVGID_7_"  style="overflow:visible;"/>
					</clipPath>
					<g style="clip-path:url(#SVGID_9_);">
						<defs>
							<polygon id="SVGID_10_" points="119.5,47.1 146.9,47.1 146.9,66.7 120.5,66.5 120.5,81 147.6,81 146.3,95.4 106.1,103.7 
								95.4,14.5 146.6,12.9 146.6,33.2 119.5,33.4 							"/>
						</defs>
						<linearGradient id="SVGID_11_" gradientUnits="userSpaceOnUse" x1="301.5931" y1="132.9016" x2="-34.0272" y2="-9.9572">
							<stop  offset="0" style="stop-color:#F49816"/>
							<stop  offset="1" style="stop-color:#000000;stop-opacity:0"/>
						</linearGradient>
						<use xlink:href="#SVGID_10_"  style="overflow:visible;fill:url(#SVGID_11_);"/>
						<clipPath id="SVGID_12_">
							<use xlink:href="#SVGID_10_"  style="overflow:visible;"/>
						</clipPath>
					</g>
					<path style="clip-path:url(#SVGID_9_);fill:#FFBD43;" d="M127.8,21.3l-31.1,2.9c-6.7,0-6.5-3.2-6.5-8.2V7.8c0-5,5.5-9,12.2-9
						H141c5.6,0,15.9,24.5,5.2,23.3c-0.1,0-13.2-0.5-14.3-0.5l0.7-5.2L127.8,21.3z"/>
				</g>
				<g>
					<defs>
						<path id="SVGID_13_" d="M161.3,75.8c-0.7,0,12.2,2.1,12.4,2.6c5.9,14.4,23.1,7.3,18.6-5c-3.3-9.2-14-10.8-21.9-14.6
							c-16.2-7.6-20.6-34.8-2.7-43.8c10.1-5.1,23.9-4,32.6,3.4c4.2,3.6,7.7,9.2,9.3,14.4c0.5,1.5,2,6.5,1.3,12.4c0,0-15-1.9-15-2
							c0.2,0.1,0.1-5.3-2.6-7.8c-5-4.7-16.2-3.5-16,5.1c0.1,5.1,6.9,7.2,10.8,8.5c13.7,4.6,24.4,10.9,24.8,26.1
							c0.3,11.6-4.7,20.7-13.8,25.4c-9.8,5.1-21.1,4-30.5-1.2c-5.6-3.1-13-11.1-15-24.8C153.4,74.5,161.1,75.8,161.3,75.8z"/>
					</defs>
					<linearGradient id="SVGID_14_" gradientUnits="userSpaceOnUse" x1="177.9255" y1="14.7506" x2="178.904" y2="24.536">
						<stop  offset="0" style="stop-color:#F49816"/>
						<stop  offset="1" style="stop-color:#F4CB16"/>
					</linearGradient>
					<use xlink:href="#SVGID_13_"  style="overflow:visible;fill:url(#SVGID_14_);"/>
					<clipPath id="SVGID_15_">
						<use xlink:href="#SVGID_13_"  style="overflow:visible;"/>
					</clipPath>
					<g style="clip-path:url(#SVGID_15_);">
						<defs>
							<path id="SVGID_16_" d="M161,75.8c-0.7,0,12.2,2.1,12.4,2.6c5.9,14.4,23.1,7.3,18.6-5c-3.3-9.2-14-10.8-21.9-14.6
								c-16.2-7.6-20.6-34.8-2.7-43.8c10.1-5.1,23.9-4,32.6,3.4c4.2,3.6,7.7,9.2,9.3,14.4c0.5,1.5,1.3,6.5,0.7,12.4
								c0,0-14.3-1.9-14.4-2c0.2,0.1,0.1-5.3-2.6-7.8c-5-4.7-16.2-3.5-16,5.1c0.1,5.1,6.9,7.2,10.8,8.5
								c13.7,4.6,24.4,10.9,24.8,26.1c0.3,11.6-4.7,20.7-13.8,25.4c-9.8,5.1-21.1,4-30.5-1.2c-5.6-3.1-13-11.1-15-24.8
								C153.2,74.5,160.9,75.8,161,75.8z"/>
						</defs>
						<linearGradient id="SVGID_17_" gradientUnits="userSpaceOnUse" x1="310.2741" y1="111.9964" x2="-25.3058" y2="-30.8452">
							<stop  offset="0" style="stop-color:#F49816"/>
							<stop  offset="1" style="stop-color:#000000;stop-opacity:0"/>
						</linearGradient>
						<use xlink:href="#SVGID_16_"  style="overflow:visible;fill:url(#SVGID_17_);"/>
						<clipPath id="SVGID_18_">
							<use xlink:href="#SVGID_16_"  style="overflow:visible;"/>
						</clipPath>
					</g>
					<path style="clip-path:url(#SVGID_15_);fill:#FFBD43;" d="M173.6,16.4c-1.8,0.5-7.5,3-9.1,3.9c-4.6,2.6-7.8,7.2-11.1,12.4
						c-0.5,0.9,1.1-7.7,0.1-8c1.5-1.8,4.1-2.6,5.4-4.5c1.8-2.6,0.7-6.2,0.9-9.4c0.2-3,1.7-6.1,4.5-7.3c1.7-0.8,3.6-0.8,5.4-0.8
						c5,0,9.9,0,14.9,0c2.5,0,5.1-0.2,7.6,0c2,0.2,3.7,1.3,5.4,2.4c7.4,4.3,13.9,10.2,21.9,13.4c1.1,0.4,2.3,0.9,3.2,1.7
						c-0.9,1-2.5,1.2-3.8,1.3c-5.9,0.4-5.5,9.1-10.1,5.4c-6.5-5.2-13.8-9-17.6-10.4C186.6,14.7,178.3,15.2,173.6,16.4z"/>
				</g>
			</g>
			<radialGradient id="SVGID_19_" cx="17.5499" cy="20.3594" r="4.3275" gradientUnits="userSpaceOnUse">
				<stop  offset="0" style="stop-color:#F9FF7B"/>
				<stop  offset="1" style="stop-color:#F4CB16;stop-opacity:0"/>
			</radialGradient>
			<path style="fill:url(#SVGID_19_);" d="M23.6,19.6c0,0.4-1.5,0.4-5.6,0.9c-4.4,0.6-6.5,0.9-6.5,0.6c0-0.4,2.1-0.4,6.6-0.9
				C22.3,19.7,23.6,19.2,23.6,19.6z"/>
			
				<radialGradient id="SVGID_20_" cx="779.4211" cy="-548.4413" r="4.3275" gradientTransform="matrix(0.6547 0.1578 -0.2343 0.9722 -610.1069 429.884)" gradientUnits="userSpaceOnUse">
				<stop  offset="0" style="stop-color:#F9FF7B"/>
				<stop  offset="1" style="stop-color:#F4CB16;stop-opacity:0"/>
			</radialGradient>
			<path style="fill:url(#SVGID_20_);" d="M32.8,19.9c-0.1,0.4-1.1,0.2-3.9,0c-3-0.1-4.5-0.1-4.4-0.5c0.1-0.4,1.5-0.1,4.6,0.1
				C31.9,19.8,32.9,19.6,32.8,19.9z"/>
			
				<radialGradient id="SVGID_21_" cx="-4678.9468" cy="-3694.6169" r="7.6513" gradientTransform="matrix(5.371755e-02 0.241 -0.554 0.1235 -1771.6729 1601.1572)" gradientUnits="userSpaceOnUse">
				<stop  offset="0" style="stop-color:#F9FF7B"/>
				<stop  offset="1" style="stop-color:#F4CB16;stop-opacity:0"/>
			</radialGradient>
			<path style="fill:url(#SVGID_21_);" d="M25.2,19.8c-0.2,0-0.6-0.5-1.1-1.4c-0.6-1-2.2-3.3-2-3.3s2,2.4,2.5,3.4
				C25,19.5,25.4,19.8,25.2,19.8z"/>
			
				<radialGradient id="SVGID_22_" cx="-2203.6082" cy="-378.573" r="4.3275" gradientTransform="matrix(2.6399 2.7731 -1.1984 1.1408 5418.1675 6617.7129)" gradientUnits="userSpaceOnUse">
				<stop  offset="0" style="stop-color:#F9FF7B"/>
				<stop  offset="1" style="stop-color:#F4CB16;stop-opacity:0"/>
			</radialGradient>
			<path style="fill:url(#SVGID_22_);" d="M71.5,91c-0.4,0.4-4.4-3.6-15.9-14.4C43.3,65,37.3,59.5,37.7,59.1s6.1,5.4,18.7,17.4
				C67.8,87.3,71.9,90.5,71.5,91z"/>
			
				<radialGradient id="SVGID_23_" cx="-2572.2407" cy="63.0212" r="4.3275" gradientTransform="matrix(0.5367 6.7127 -2.3147 0.1851 1614.0939 17314.8438)" gradientUnits="userSpaceOnUse">
				<stop  offset="0" style="stop-color:#F9FF7B"/>
				<stop  offset="1" style="stop-color:#F4CB16;stop-opacity:0"/>
			</radialGradient>
			<path style="fill:url(#SVGID_23_);" d="M92.6,100.3c-0.8,0.1-1.7-9.8-5.2-37.3c-3.7-29.5-5.7-43.6-4.8-43.7
				c0.8-0.1,2.1,14.2,5.7,44.4C91.7,91.3,93.5,100.2,92.6,100.3z"/>
			<g>
				<polygon style="fill:#A8640B;" points="146.3,97.7 106.3,106.2 106,103.5 146.6,92.7 				"/>
			</g>
			<g>
				<polygon style="fill:#A8640B;" points="93.9,107.2 74.7,95 71.2,91.4 93.1,101.3 				"/>
			</g>
			<g>
				<path style="fill:#A8640B;" d="M183,106.1c-2-0.1-4.1-0.5-6.1-1c-3.8-1-7.1-2.4-10.1-4.8c-6.7-5.4-9.1-13.9-11.6-17.2
					c9.4,12.1,25.2,18.9,29.5,19c11.7,0.3,23.7-14.7,27.4-19.1c-0.8,1-0.7,2.9-1,4.1c-0.4,2.2-1.1,4.4-2.3,6.3
					C203.7,102.2,193.1,106.6,183,106.1z"/>
			</g>
			<polygon style="fill:#A8640B;" points="41.2,106 22.8,105 22.8,103.2 40.7,102.9 			"/>
			<path style="fill:#CEB742;" d="M195.3,38.7c0.1,0.5-0.2-0.5-0.2-0.5c-2.7-4.8-6.8-5.3-9-5.2c-4.6,0.3-7.4,3.5-8.6,5.2
				c0,0-0.1,0-0.1,0c0.4-5.1,2.8-9.5,8.4-9.5C191.3,28.8,194.5,33.2,195.3,38.7z"/>
			<polygon style="fill:#CEB742;" points="210.9,47.5 195.6,45.1 195.9,42.6 211,43.1 			"/>
			<rect x="119.4" y="33.1" style="fill:#CEB742;" width="27.2" height="1.2"/>
			<rect x="120.5" y="66.3" style="fill:#CEB742;" width="26.4" height="1.3"/>
			<g>
				<linearGradient id="SVGID_24_" gradientUnits="userSpaceOnUse" x1="198.5376" y1="97.6991" x2="21.8747" y2="5.5638">
					<stop  offset="0" style="stop-color:#FBFF00"/>
					<stop  offset="1" style="stop-color:#FFFFFF;stop-opacity:0"/>
				</linearGradient>
				<path style="fill:url(#SVGID_24_);" d="M146.7,33.7l-0.1-4l0.1-3.5l-0.7-11.1c-4.6,0.1-48.8,3.5-49.9,3.6l10.1,85.9l40.3-8.6
					l0.6-6.5l0.7-8.4l-5.9-0.2l-21.4,0.2l0.1-14.1l26.4-0.2l0-2.7l-0.1-0.2v-9.7l0.1-7l-6.6,0.1L119.5,47l-0.3-13.5L146.7,33.7z"/>
				<linearGradient id="SVGID_25_" gradientUnits="userSpaceOnUse" x1="171.6361" y1="124.1887" x2="0.9473" y2="35.1691">
					<stop  offset="0" style="stop-color:#FBFF00"/>
					<stop  offset="1" style="stop-color:#FFFFFF;stop-opacity:0"/>
				</linearGradient>
				<path style="fill:url(#SVGID_25_);" d="M92.6,98c-0.1-1.8-0.6-6.7-1.3-12.2l-6.6-54c-0.2-1.3-1.2-9-1.4-10.1l-12.2-2.1
					c3.4,0.3-9.6,1.8-9.6,1.8l0.8,14.5L64.2,59L30.6,17.6c-2.1-2.3-6,4.7-7.3,3.1C22.7,19.8,11.9,22,11.9,22c0,0,0.6,7.7-0.6-2
					L23,103.2l18.3-0.7l-1.8-18.4L37.5,59l35.9,33.3l19.4,8.5L92.6,98z"/>
				<linearGradient id="SVGID_26_" gradientUnits="userSpaceOnUse" x1="217.7925" y1="76.5387" x2="32.7993" y2="-19.941">
					<stop  offset="0" style="stop-color:#FBFF00"/>
					<stop  offset="1" style="stop-color:#FFFFFF;stop-opacity:0"/>
				</linearGradient>
				<path style="fill:url(#SVGID_26_);" d="M178.2,15.4c-19.9,1.8-22.1,14-22.2,17.6c-0.4,10.1,5.5,20.9,14.8,25.3
					c7.9,3.7,18.7,5,21.7,13.9c0.1,0.2,0.9,3.3,0.1,7.3c-0.8,3.9-4.5,6.7-8.6,6.9c-3.9,0.1-8.2-2.3-10.6-8.1
					c-0.2-0.5-10.2-1.9-9.5-2c-0.1,0-8.4-1.5-8.4-1.5c0,0-2.2-0.4-2.2-0.4c0.5,3.5,1.2,6.3,2.2,9c3.8,9.6,10.6,14.4,14.9,17.3
					c8.2,5.6,19.1,4.4,27.6,0.5c9.3-4.3,14.9-12.3,14.6-23.9c0-0.5,0-2.4,0-2.8c0.1-1-0.5-3.8-0.7-5.1c-1.9-10.1-11-16.2-24.7-20.8
					c-3.4-1.1-10.6-3.8-10.2-8.7c2.2-13,16.9-10,18.3-2.1c0.7,4.1,0.3,6.3,0.3,6.3c0.2,0.1,15.3,0.4,15.3,0.4c0.2-2,0-1.9-0.1-3.2
					l-0.2-1.7l-0.4-3.4c-0.7-4.5-2.7-7.7-3.1-9.1c-0.9-2.8-4-5.9-6.5-8.4C199.7,17.6,191.6,14.2,178.2,15.4z"/>
			</g>
		</g>
	</g>
	<linearGradient id="SVGID_27_" gradientUnits="userSpaceOnUse" x1="259.7082" y1="146.4074" x2="-148.0476" y2="-171.7945">
		<stop  offset="0" style="stop-color:#FF0D0D"/>
		<stop  offset="1" style="stop-color:#FFFFFF;stop-opacity:0"/>
	</linearGradient>
	<path style="clip-path:url(#XMLID_8_);fill:url(#SVGID_27_);" d="M97.4,47.8L16.2,83.3C2.4,83.3-8.9,72-8.9,58.2V2.4
		c0-13.8,11.3-25.1,25.1-25.1h189.6c13.8,0,25.1,11.3,25.1,25.1v55.8C230.8,72,111.2,47.8,97.4,47.8z"/>
</g>
</svg>
