<?xml version="1.0" encoding="utf-8"?>
<!-- Generator: Adobe Illustrator 22.0.0, SVG Export Plug-In . SVG Version: 6.00 Build 0)  -->
<svg version="1.1" id="Layer_1" xmlns="http://www.w3.org/2000/svg" xmlns:xlink="http://www.w3.org/1999/xlink" x="0px" y="0px"
	 viewBox="0 0 262.8 58.6" style="enable-background:new 0 0 262.8 58.6;" xml:space="preserve">
<g>
	<g style="opacity:0.19;">
		<path style="fill:#FFA002;" d="M9.3,33.4c-2.9-1.5-5.2-3.7-6.9-6.4S0,21.2,0,17.8c0-3.4,0.8-6.4,2.5-9.1C4.1,6,6.4,3.9,9.3,2.3
			C12.2,0.8,15.5,0,19.2,0s6.9,0.8,9.8,2.3c2.9,1.5,5.2,3.7,6.9,6.4c1.7,2.7,2.5,5.8,2.5,9.1c0,3.4-0.8,6.4-2.5,9.1
			c-1.7,2.7-4,4.8-6.9,6.4c-2.9,1.5-6.2,2.3-9.8,2.3S12.2,34.9,9.3,33.4z M24.8,27.5c1.7-0.9,3-2.2,3.9-3.9s1.4-3.6,1.4-5.7
			c0-2.1-0.5-4-1.4-5.7c-1-1.7-2.3-3-3.9-3.9c-1.7-0.9-3.5-1.4-5.6-1.4c-2.1,0-3.9,0.5-5.6,1.4c-1.7,0.9-3,2.2-3.9,3.9
			c-1,1.7-1.4,3.6-1.4,5.7c0,2.1,0.5,4,1.4,5.7c1,1.7,2.3,3,3.9,3.9c1.7,0.9,3.5,1.4,5.6,1.4C21.2,28.9,23.1,28.4,24.8,27.5z"/>
		<path style="fill:#FFA002;" d="M80,25h-4.1v10.1h-7.8V8.6h7.8v10.3h4.2l7.3-10.3h8.3l-9.4,12.7l10.1,13.8h-9.2L80,25z"/>
		<path style="fill:#FFA002;" d="M130.7,8.6l-12.2,28.1c-1.2,3.1-2.8,5.2-4.6,6.5c-1.8,1.2-4,1.9-6.6,1.9c-1.4,0-2.8-0.2-4.2-0.6
			s-2.5-1-3.4-1.8l2.9-5.5c0.6,0.5,1.3,0.9,2.1,1.2c0.8,0.3,1.6,0.4,2.3,0.4c1.1,0,1.9-0.3,2.6-0.8c0.7-0.5,1.3-1.4,1.8-2.5l0.1-0.2
			L100,8.6h8.1l7.6,18l7.6-18H130.7z"/>
		<path style="fill:#FFA002;" d="M162.1,9.9c2.1,1.1,3.7,2.7,4.8,4.8s1.8,4.4,1.8,7.2S168.1,27,167,29s-2.8,3.6-4.8,4.8
			c-2.1,1.1-4.3,1.7-6.8,1.7c-3.4,0-6.1-1.1-8.1-3.2v12.4h-7.8V8.6h7.5v3.1c1.9-2.3,4.8-3.5,8.5-3.5C157.8,8.2,160.1,8.7,162.1,9.9z
			 M158.9,27.2c1.3-1.3,1.9-3.1,1.9-5.3s-0.6-4-1.9-5.3c-1.3-1.3-2.9-2-4.9-2s-3.6,0.7-4.9,2c-1.3,1.3-1.9,3.1-1.9,5.3
			s0.6,4,1.9,5.3s2.9,2,4.9,2S157.6,28.5,158.9,27.2z"/>
		<path style="fill:#FFA002;" d="M184.3,33.7c-2.3-1.2-4.1-2.8-5.4-4.9c-1.3-2.1-1.9-4.4-1.9-7s0.6-5,1.9-7c1.3-2.1,3.1-3.7,5.4-4.9
			c2.3-1.2,4.9-1.7,7.7-1.7c2.8,0,5.3,0.6,7.4,1.7c2.1,1.2,3.7,2.8,4.6,5l-6.1,3.2c-1.4-2.4-3.4-3.6-6.1-3.6c-2,0-3.7,0.7-5.1,2
			c-1.3,1.3-2,3.1-2,5.4c0,2.3,0.7,4.1,2,5.4c1.3,1.3,3,2,5.1,2c2.7,0,4.7-1.2,6.1-3.6l6.1,3.3c-1,2.1-2.5,3.7-4.6,4.9
			c-2.1,1.2-4.6,1.8-7.4,1.8C189.1,35.5,186.5,34.9,184.3,33.7z"/>
		<path style="fill:#FFA002;" d="M239.4,24h-20.4c0.4,1.6,1.2,2.9,2.6,3.9c1.4,1,3.1,1.4,5.1,1.4c1.4,0,2.6-0.2,3.7-0.6
			c1.1-0.4,2.1-1.1,3-1.9l4.2,4.4c-2.5,2.9-6.2,4.3-11.1,4.3c-3,0-5.7-0.6-8.1-1.8c-2.3-1.2-4.1-2.8-5.4-4.9s-1.9-4.4-1.9-7
			c0-2.6,0.6-4.9,1.9-7c1.3-2.1,3-3.7,5.2-4.9c2.2-1.2,4.6-1.7,7.3-1.7c2.6,0,5,0.6,7.2,1.7c2.1,1.1,3.8,2.7,5,4.8
			c1.2,2.1,1.8,4.5,1.8,7.3C239.6,22,239.5,22.7,239.4,24z M221.2,15.5c-1.2,1-1.9,2.3-2.2,4h13.3c-0.3-1.7-1-3-2.2-4
			c-1.2-1-2.7-1.5-4.4-1.5C223.9,14,222.4,14.5,221.2,15.5z"/>
	</g>
	<g>
		<path style="fill:#FFA002;" d="M32.6,46.9c-2.9-1.5-5.2-3.7-6.9-6.4s-2.5-5.8-2.5-9.1c0-3.4,0.8-6.4,2.5-9.1
			c1.7-2.7,3.9-4.8,6.9-6.4c2.9-1.5,6.2-2.3,9.8-2.3s6.9,0.8,9.8,2.3c2.9,1.5,5.2,3.7,6.9,6.4c1.7,2.7,2.5,5.8,2.5,9.1
			c0,3.4-0.8,6.4-2.5,9.1c-1.7,2.7-4,4.8-6.9,6.4c-2.9,1.5-6.2,2.3-9.8,2.3S35.5,48.4,32.6,46.9z M48,41c1.7-0.9,3-2.2,3.9-3.9
			s1.4-3.6,1.4-5.7c0-2.1-0.5-4-1.4-5.7c-1-1.7-2.3-3-3.9-3.9c-1.7-0.9-3.5-1.4-5.6-1.4c-2.1,0-3.9,0.5-5.6,1.4
			c-1.7,0.9-3,2.2-3.9,3.9c-1,1.7-1.4,3.6-1.4,5.7c0,2.1,0.5,4,1.4,5.7c1,1.7,2.3,3,3.9,3.9c1.7,0.9,3.5,1.4,5.6,1.4
			C44.5,42.4,46.3,41.9,48,41z"/>
		<path style="fill:#FFA002;" d="M103.2,38.6h-4.1v10.1h-7.8V22.1h7.8v10.3h4.2l7.3-10.3h8.3l-9.4,12.7l10.1,13.8h-9.2L103.2,38.6z"
			/>
		<path style="fill:#FFA002;" d="M153.9,22.1l-12.2,28.1c-1.2,3.1-2.8,5.2-4.6,6.5c-1.8,1.2-4,1.9-6.6,1.9c-1.4,0-2.8-0.2-4.2-0.6
			s-2.5-1-3.4-1.8l2.9-5.5c0.6,0.5,1.3,0.9,2.1,1.2c0.8,0.3,1.6,0.4,2.3,0.4c1.1,0,1.9-0.3,2.6-0.8c0.7-0.5,1.3-1.4,1.8-2.5l0.1-0.2
			l-11.7-26.7h8.1l7.6,18l7.6-18H153.9z"/>
		<path style="fill:#FFA002;" d="M185.4,23.4c2.1,1.1,3.7,2.7,4.8,4.8s1.8,4.4,1.8,7.2s-0.6,5.1-1.8,7.2s-2.8,3.6-4.8,4.8
			c-2.1,1.1-4.3,1.7-6.8,1.7c-3.4,0-6.1-1.1-8.1-3.2v12.4h-7.8V22.1h7.5v3.1c1.9-2.3,4.8-3.5,8.5-3.5
			C181,21.7,183.3,22.3,185.4,23.4z M182.1,40.7c1.3-1.3,1.9-3.1,1.9-5.3s-0.6-4-1.9-5.3c-1.3-1.3-2.9-2-4.9-2s-3.6,0.7-4.9,2
			c-1.3,1.3-1.9,3.1-1.9,5.3s0.6,4,1.9,5.3s2.9,2,4.9,2S180.8,42,182.1,40.7z"/>
		<path style="fill:#FFA002;" d="M207.5,47.3c-2.3-1.2-4.1-2.8-5.4-4.9c-1.3-2.1-1.9-4.4-1.9-7s0.6-5,1.9-7c1.3-2.1,3.1-3.7,5.4-4.9
			c2.3-1.2,4.9-1.7,7.7-1.7c2.8,0,5.3,0.6,7.4,1.7c2.1,1.2,3.7,2.8,4.6,5l-6.1,3.2c-1.4-2.4-3.4-3.6-6.1-3.6c-2,0-3.7,0.7-5.1,2
			c-1.3,1.3-2,3.1-2,5.4c0,2.3,0.7,4.1,2,5.4c1.3,1.3,3,2,5.1,2c2.7,0,4.7-1.2,6.1-3.6l6.1,3.3c-1,2.1-2.5,3.7-4.6,4.9
			c-2.1,1.2-4.6,1.8-7.4,1.8C212.3,49,209.8,48.4,207.5,47.3z"/>
		<path style="fill:#FFA002;" d="M262.7,37.5h-20.4c0.4,1.6,1.2,2.9,2.6,3.9c1.4,1,3.1,1.4,5.1,1.4c1.4,0,2.6-0.2,3.7-0.6
			c1.1-0.4,2.1-1.1,3-1.9l4.2,4.4c-2.5,2.9-6.2,4.3-11.1,4.3c-3,0-5.7-0.6-8.1-1.8c-2.3-1.2-4.1-2.8-5.4-4.9s-1.9-4.4-1.9-7
			c0-2.6,0.6-4.9,1.9-7c1.3-2.1,3-3.7,5.2-4.9c2.2-1.2,4.6-1.7,7.3-1.7c2.6,0,5,0.6,7.2,1.7c2.1,1.1,3.8,2.7,5,4.8
			c1.2,2.1,1.8,4.5,1.8,7.3C262.8,35.6,262.8,36.3,262.7,37.5z M244.4,29c-1.2,1-1.9,2.3-2.2,4h13.3c-0.3-1.7-1-3-2.2-4
			c-1.2-1-2.7-1.5-4.4-1.5C247.1,27.5,245.6,28,244.4,29z"/>
	</g>
</g>
</svg>
