<?xml version="1.0" encoding="utf-8"?>
<!-- Generator: Adobe Illustrator 22.0.0, SVG Export Plug-In . SVG Version: 6.00 Build 0)  -->
<svg version="1.1" id="Layer_1" xmlns="http://www.w3.org/2000/svg" xmlns:xlink="http://www.w3.org/1999/xlink" x="0px" y="0px"
	 viewBox="0 0 150 150" style="enable-background:new 0 0 150 150;" xml:space="preserve">
<g>
	<g>
		<g>
			<g>
				<g>
					<path style="fill:#FFC50B;" d="M88,63.7H61.5c-0.7,0-1.3,0.7-1.3,1.5v23.6c0,3.6,2.3,6.5,5.3,7.2v7.5c0,2.4,1.8,4.4,4,4.4
						c2.2,0,4-2,4-4.4v-7.4h2.7v7.4c0,2.4,1.8,4.4,4,4.4s4-2,4-4.4v-7.5c3-0.7,5.3-3.7,5.3-7.2V65.2C89.4,64.4,88.8,63.7,88,63.7z"
						/>
				</g>
			</g>
			<g>
				<g>
					<path style="fill:#FFC50B;" d="M81.7,45.1l2.2-5.8c0.3-0.7,0-1.6-0.7-1.9c-0.7-0.3-1.5,0-1.7,0.8l-2.2,5.8
						c-1.4-0.5-2.9-0.8-4.5-0.8c-1.6,0-3.1,0.3-4.5,0.8L68,38.1c-0.3-0.8-1.1-1.1-1.7-0.8c-0.7,0.3-1,1.2-0.7,1.9l2.2,5.8
						c-4.6,2.7-7.7,8.1-7.7,14.2c0,0.8,0.6,1.5,1.3,1.5H88c0.7,0,1.3-0.7,1.3-1.5C89.4,53.1,86.3,47.8,81.7,45.1z M69.4,54.9
						c-0.7,0-1.3-0.7-1.3-1.5c0-0.8,0.6-1.5,1.3-1.5s1.3,0.7,1.3,1.5C70.8,54.2,70.2,54.9,69.4,54.9z M80.1,54.9
						c-0.7,0-1.3-0.7-1.3-1.5c0-0.8,0.6-1.5,1.3-1.5s1.3,0.7,1.3,1.5C81.4,54.2,80.8,54.9,80.1,54.9z"/>
				</g>
			</g>
			<g>
				<g>
					<path style="fill:#FFC50B;" d="M96,63.7c-2.2,0-4,2-4,4.4v14.7c0,2.4,1.8,4.4,4,4.4s4-2,4-4.4V68.1C100,65.7,98.2,63.7,96,63.7
						z"/>
				</g>
			</g>
			<g>
				<g>
					<path style="fill:#FFC50B;" d="M53.5,63.7c-2.2,0-4,2-4,4.4v14.7c0,2.4,1.8,4.4,4,4.4c2.2,0,4-2,4-4.4V68.1
						C57.5,65.7,55.7,63.7,53.5,63.7z"/>
				</g>
			</g>
		</g>
	</g>
	
		<radialGradient id="SVGID_1_" cx="72.6719" cy="535.8207" r="62.9677" gradientTransform="matrix(1 0 0 1.1081 0 -520.0573)" gradientUnits="userSpaceOnUse">
		<stop  offset="0.3243" style="stop-color:#FFFF0B"/>
		<stop  offset="1" style="stop-color:#FF8639;stop-opacity:0"/>
	</radialGradient>
	<circle style="opacity:0.33;fill:url(#SVGID_1_);" cx="75" cy="75" r="75"/>
</g>
</svg>
