<?xml version="1.0" encoding="utf-8"?>
<!-- Generator: Adobe Illustrator 22.0.0, SVG Export Plug-In . SVG Version: 6.00 Build 0)  -->
<svg version="1.1" id="Layer_1" xmlns="http://www.w3.org/2000/svg" xmlns:xlink="http://www.w3.org/1999/xlink" x="0px" y="0px"
	 viewBox="0 0 150 150" style="enable-background:new 0 0 150 150;" xml:space="preserve">
<g>
	<g>
		<path style="fill:#FFC50B;" d="M65.3,111.5c-10.9-0.1-20-22.4-20-33.7c0-18.6,13.9-22.6,19.3-22.6c2.4,0,5,0.9,7.3,1.8
			c1.6,0.6,3.2,1.2,4.2,1.2c0.5,0,1.8-0.5,3-1c2.4-1,5.5-2.2,9-2.2c0,0,0,0,0,0c2.6,0,10.6,0.6,15.4,7.8l1.1,1.7l-1.6,1.2
			c-2.3,1.7-6.5,4.9-6.5,11.2c0,7.5,4.8,10.3,7.1,11.7c1,0.6,2.1,1.2,2.1,2.6c0,0.9-7.2,20.2-17.6,20.2c-2.5,0-4.3-0.8-5.9-1.4
			c-1.6-0.7-3-1.3-5.3-1.3c-1.2,0-2.6,0.5-4.2,1.1C70.5,110.6,68.1,111.5,65.3,111.5L65.3,111.5z"/>
		<path style="fill:#FFC50B;" d="M89.1,38.1c0.3,9.8-6.7,16.5-13.7,16.1C74.2,46.4,82.4,38.1,89.1,38.1z"/>
	</g>
</g>
<g>
	
		<radialGradient id="SVGID_1_" cx="229.1822" cy="-109.8315" r="72.4884" gradientTransform="matrix(0.8687 0 0 0.9626 -126.0014 179.2229)" gradientUnits="userSpaceOnUse">
		<stop  offset="0.3243" style="stop-color:#FFFF0B"/>
		<stop  offset="1" style="stop-color:#FF8639;stop-opacity:0"/>
	</radialGradient>
	<circle style="opacity:0.33;fill:url(#SVGID_1_);" cx="75.4" cy="74.8" r="75"/>
</g>
</svg>
