<?xml version="1.0" encoding="utf-8"?>
<!-- Generator: Adobe Illustrator 22.0.0, SVG Export Plug-In . SVG Version: 6.00 Build 0)  -->
<svg version="1.1" id="Layer_1" xmlns="http://www.w3.org/2000/svg" xmlns:xlink="http://www.w3.org/1999/xlink" x="0px" y="0px"
	 viewBox="0 0 150 150" style="enable-background:new 0 0 150 150;" xml:space="preserve">
<g>
	<g>
		<g>
			<path style="fill:#FFC50B;" d="M97.8,31.5c5.1,0,10.3,0,15.4,0c5,0,8.6,3.6,8.6,8.6c0,7.9,0,15.7,0,23.6c0,5.1-3.5,8.6-8.6,8.6
				c-3.8,0-7.5,0-11.3,0c-0.9,0-1.6,0.2-2.2,0.9c-3.1,3.2-6.3,6.3-9.4,9.4c-0.7,0.7-1.4,1.2-2.4,0.8c-1.1-0.4-1.2-1.3-1.2-2.3
				c0-2.5,0-5.1,0-7.6c0-0.9-0.3-1.2-1.2-1.3c-2,0-4,0-5.9-0.5c-3.4-0.9-5.7-3.9-5.7-7.4c-0.1-8.4-0.1-16.7,0-25.1
				c0-4.4,3.7-7.9,8.2-7.9C87.3,31.5,92.5,31.5,97.8,31.5z M109.9,53.7c0.3-0.2,0.4-0.3,0.5-0.3c2.7-1.7,4-4.6,3.2-7.4
				c-0.9-3.1-3.3-5-6.6-5c-1.4,0-2.8,0-4.2,0c-1.9,0-2.6,0.7-2.6,2.7c0,2.1,0,4.2,0,6.3c0,3.8,0,7.5,0,11.3c0,1.6,0.9,2.5,2.2,2.5
				c1.3,0,2.2-1,2.2-2.5c0-0.9,0-1.8,0-2.7c0-1.3,0-2.7,0-4c0.1,0,0.2-0.1,0.3-0.1c0.3,0.4,0.6,0.8,0.9,1.2c1.5,2.3,3.1,4.5,4.6,6.8
				c0.9,1.3,2.2,1.7,3.3,0.9c1.1-0.8,1.2-2.1,0.3-3.4C112.7,57.8,111.3,55.8,109.9,53.7z M96,63.6c1.6,0,2.6-1.4,2.1-3
				c-2.1-6-4.3-12.1-6.4-18.1c-0.3-1-1-1.5-2.1-1.5c-1.1,0-1.7,0.5-2.1,1.5c-0.5,1.2-0.9,2.3-1.3,3.5c-1.7,4.8-3.4,9.6-5.1,14.5
				c-0.5,1.5,0,2.7,1.3,3.1c1.3,0.4,2.4-0.2,2.9-1.7c0.3-0.7,0.6-1.4,0.7-2.2c0.2-0.8,0.7-1.1,1.5-1c1.3,0.1,2.7,0.1,4,0
				c1.1-0.1,1.5,0.3,1.7,1.3c0.2,0.7,0.4,1.4,0.7,2.1C94.3,62.9,94.9,63.6,96,63.6z"/>
			<path style="fill:#FFC50B;" d="M42.6,62.4c2.1,1.1,4.1,2,6,3.1c0.8,0.4,1.5,0.9,2,1.6c0.8,1.1,0.5,2.6-0.3,3.6
				c-0.9,1.1-2.3,1.4-3.6,0.8c-2.3-1.1-4.6-2.3-6.9-3.4c-0.3-0.2-0.6-0.3-1.1-0.5c0,0.6,0,1.1,0,1.5c0,8.8,0,17.5,0,26.3
				c0,0.9,0.3,1.4,1.1,1.8c7.8,3.8,15.5,7.7,23.3,11.6c0.5,0.2,1.2,0.2,1.7,0c7.8-3.8,15.5-7.7,23.3-11.6c0.9-0.4,1.2-1,1.1-2
				c-0.1-2.4,0-4.8,0-7.1c0-2,1.3-3.4,3.2-3.4c1.8,0,3.1,1.4,3.1,3.4c0,3.4,0,6.9,0,10.3c0,1.4-0.7,2.5-1.9,3.1
				c-9.3,4.6-18.5,9.3-27.8,13.9c-1.2,0.6-2.3,0.6-3.5,0c-9.3-4.6-18.5-9.3-27.8-13.9c-1.3-0.7-2-1.7-2-3.2c0-11.8,0-23.7,0-35.5
				c0-1.5,0.7-2.6,2-3.3c9.2-4.6,18.5-9.2,27.7-13.8c1.2-0.6,2.3-0.6,3.5,0c1.2,0.6,2.5,1.2,3.7,1.8c1.7,0.9,2.4,2.6,1.6,4.3
				c-0.8,1.6-2.7,2.4-4.3,1.3C64.6,51.7,63,52,61,53c-5.7,3-11.5,5.8-17.3,8.7C43.4,61.9,43.1,62.1,42.6,62.4z"/>
			<path style="fill:#FFC50B;" d="M77.6,89.6c1,0,1.7,0.7,1.7,1.7c0,0.9-0.6,1.5-1.5,1.5c-0.9,0-1.8-0.8-1.8-1.7
				C76.1,90.3,76.8,89.6,77.6,89.6z"/>
			<path style="fill:#FFC50B;" d="M83.4,92.6c1,0,1.9,0.8,1.8,1.7c-0.1,1-0.6,1.4-1.6,1.4c-1,0-1.7-0.8-1.7-1.6
				C81.8,93.2,82.5,92.6,83.4,92.6z"/>
			<path style="fill:#FFC50B;" d="M57.8,88.3c0,0.9-0.8,1.6-1.8,1.6c-0.9,0-1.5-0.6-1.5-1.5c0-0.9,0.8-1.6,1.8-1.6
				C57.1,86.8,57.8,87.5,57.8,88.3z"/>
			<path style="fill:#FFC50B;" d="M52,90.9c0,1.1-0.8,1.9-1.8,1.9c-0.8,0-1.6-0.7-1.5-1.5c0-0.8,0.8-1.6,1.8-1.6
				C51.4,89.6,51.9,90.2,52,90.9z"/>
			<path style="fill:#FFC50B;" d="M65.3,64.9c0,1-0.7,1.7-1.5,1.6c-1-0.1-1.4-0.7-1.4-1.7c0-1,0.6-1.7,1.6-1.6
				C65,63.3,65.4,63.9,65.3,64.9z"/>
			<path style="fill:#FFC50B;" d="M65.3,77.8c0,1-0.7,1.7-1.6,1.6c-1-0.1-1.4-0.7-1.4-1.8c0-1,0.6-1.6,1.6-1.6
				C65,76.2,65.4,76.8,65.3,77.8z"/>
			<path style="fill:#FFC50B;" d="M73.7,88.4c0,0.8-0.6,1.5-1.5,1.5c-1,0-1.8-0.6-1.8-1.5c0-1,0.4-1.5,1.4-1.6
				C72.7,86.7,73.6,87.5,73.7,88.4z"/>
			<path style="fill:#FFC50B;" d="M46.2,94.1c0,0.9-0.8,1.6-1.8,1.6c-0.9,0-1.5-0.7-1.5-1.5c0-0.9,0.8-1.6,1.8-1.6
				C45.6,92.6,46.2,93.2,46.2,94.1z"/>
			<path style="fill:#FFC50B;" d="M65.3,58.4c0,1-0.6,1.7-1.5,1.6c-0.9,0-1.5-0.6-1.5-1.7c0-1,0.6-1.7,1.5-1.7
				C64.8,56.8,65.3,57.4,65.3,58.4z"/>
			<path style="fill:#FFC50B;" d="M65.3,71.4c-0.1,1-0.7,1.6-1.6,1.5c-1.1-0.1-1.4-0.8-1.3-1.8c0-1,0.5-1.5,1.5-1.5
				C64.8,69.6,65.4,70.3,65.3,71.4z"/>
			<path style="fill:#FFC50B;" d="M104.7,45.3c1.6,0.1,3.3-0.7,4.3,1c0.4,0.6,0.4,1.7,0.1,2.3c-1,1.8-2.8,1-4.4,1.2
				C104.7,48.3,104.7,46.9,104.7,45.3z"/>
			<path style="fill:#FFC50B;" d="M89.7,50.1c0.5,1.3,0.9,2.7,1.4,4.1c-1.1,0-2.1,0-3.1,0c0.5-1.4,1-2.8,1.4-4.1
				C89.5,50.1,89.6,50.1,89.7,50.1z"/>
		</g>
	</g>
	<g>
		
			<radialGradient id="SVGID_1_" cx="40.8881" cy="-109.5623" r="72.4884" gradientTransform="matrix(0.8687 0 0 0.9626 37.154 179.1511)" gradientUnits="userSpaceOnUse">
			<stop  offset="0.3243" style="stop-color:#FFFF0B"/>
			<stop  offset="1" style="stop-color:#FF8639;stop-opacity:0"/>
		</radialGradient>
		<circle style="opacity:0.33;fill:url(#SVGID_1_);" cx="75" cy="75" r="75"/>
	</g>
</g>
</svg>
