<?xml version="1.0" encoding="utf-8"?>
<!-- Generator: Adobe Illustrator 22.0.0, SVG Export Plug-In . SVG Version: 6.00 Build 0)  -->
<svg version="1.1" id="Layer_1" xmlns="http://www.w3.org/2000/svg" xmlns:xlink="http://www.w3.org/1999/xlink" x="0px" y="0px"
	 viewBox="0 0 364.6 121" style="enable-background:new 0 0 364.6 121;" xml:space="preserve">
<path style="fill:#FFA002;" d="M345.1,121H19.5C8.7,121,0,112.2,0,101.5v-82C0,8.7,8.7,0,19.5,0h325.6c10.8,0,19.5,8.7,19.5,19.5v82
	C364.6,112.2,355.9,121,345.1,121z M19.5,2.8c-9.2,0-16.7,7.5-16.7,16.7v82c0,9.2,7.5,16.7,16.7,16.7h325.6
	c9.2,0,16.7-7.5,16.7-16.7v-82c0-9.2-7.5-16.7-16.7-16.7H19.5z"/>
</svg>
