<?xml version="1.0" encoding="utf-8"?>
<!-- Generator: Adobe Illustrator 22.0.0, SVG Export Plug-In . SVG Version: 6.00 Build 0)  -->
<svg version="1.1" id="Layer_1" xmlns="http://www.w3.org/2000/svg" xmlns:xlink="http://www.w3.org/1999/xlink" x="0px" y="0px"
	 viewBox="0 0 150 150" style="enable-background:new 0 0 150 150;" xml:space="preserve">
<g>
	<path style="fill:#FFC50B;" d="M102.3,63.6c-0.4,0.2-0.5,0.3-0.7,0.4c-7.2,4.5-14.5,9.1-21.7,13.6c-0.5,0.3-0.6,0.6-0.5,1.2
		c0.5,8.4,1.1,16.9,1.6,25.3c0,0.3,0.1,0.5,0.1,0.9c0.2-0.1,0.2-0.2,0.3-0.2c5.3-5.7,10.6-11.3,15.9-17c0.3-0.3,0.4-0.7,0.5-1.1
		c0.8-4,1.6-8,2.4-11.9C100.9,71.1,101.6,67.4,102.3,63.6z M113.4,52.2c-1,4.9-2.1,9.8-3.1,14.7c-1.1,5.2-2.2,10.4-3.3,15.6
		c-0.1,0.4-0.4,0.9-0.8,1.2c-2.1,1.4-4.3,2.7-6.5,4C99.2,88,99,88.3,99,89c0.2,2.6,0.4,5.1,0.5,7.7c0,0.4-0.1,0.8-0.3,1.1
		c-6.9,7.5-13.8,15-20.7,22.5c-0.1,0.1-0.3,0.3-0.5,0.4c-2.4-2.1-4.8-4.2-7.1-6.3c-5.5-4.9-11-9.9-16.5-14.8
		c-0.3-0.3-0.6-0.9-0.6-1.3c-0.2-2.6-0.3-5.2-0.4-7.7c0-0.5-0.3-0.9-0.7-1.1c-2.4-1.2-4.8-2.4-7.2-3.7c-0.3-0.2-0.7-0.5-0.8-0.9
		c-3.3-9.8-6.7-19.7-10-29.5c0,0,0,0,0,0c-0.1-0.4,0.1-0.7,0.5-0.7c0.1,0,0.2,0,0.3-0.1c9.7-3,19.4-5.9,29.1-8.9
		c0.4-0.1,1-0.1,1.3,0.1c2.4,1.2,4.8,2.4,7.1,3.7c0.5,0.3,0.9,0.2,1.4-0.1c2.2-1.4,4.3-2.8,6.5-4.2c0.3-0.2,1-0.3,1.4-0.2
		c9.9,2.2,19.9,4.4,29.8,6.7c0.3,0.1,0.7,0.1,1,0.1C113.2,52,113.3,52.1,113.4,52.2z M73.3,105.3c0-0.3,0-0.5,0-0.6
		c-0.5-8.6-1.1-17.1-1.6-25.7c0-0.6-0.4-0.8-0.8-1.1c-7.7-3.9-15.3-7.8-23-11.8c-0.3-0.1-0.5-0.3-0.9-0.5c0.1,0.4,0.1,0.6,0.2,0.7
		c2.4,7.4,4.8,14.7,7.2,22.1c0.1,0.3,0.4,0.7,0.6,0.9c4.5,4,9.1,8,13.6,12C70.2,102.6,71.7,103.9,73.3,105.3z M98,57.1
		c-0.3-0.1-0.4-0.2-0.5-0.2c-7.7-1.8-15.4-3.6-23.1-5.4c-0.4-0.1-0.8-0.1-1.1,0.1c-7.3,2.3-14.7,4.6-22,6.9
		c-0.2,0.1-0.4,0.2-0.8,0.3c0.4,0.2,0.5,0.3,0.8,0.4c7.7,4,15.4,7.9,23.1,11.9c0.6,0.3,1,0.2,1.5-0.1c7-4.4,14-8.8,20.9-13.1
		C97.1,57.7,97.5,57.4,98,57.1z"/>
	
		<radialGradient id="SVGID_1_" cx="134.6028" cy="-109.5478" r="72.4884" gradientTransform="matrix(0.8687 0 0 0.9626 -44.252 179.1371)" gradientUnits="userSpaceOnUse">
		<stop  offset="0.3243" style="stop-color:#FFFF0B"/>
		<stop  offset="1" style="stop-color:#FF8639;stop-opacity:0"/>
	</radialGradient>
	<circle style="opacity:0.33;fill:url(#SVGID_1_);" cx="75" cy="75" r="75"/>
</g>
</svg>
