<?xml version="1.0" encoding="utf-8"?>
<!-- Generator: Adobe Illustrator 22.0.0, SVG Export Plug-In . SVG Version: 6.00 Build 0)  -->
<svg version="1.1" id="Layer_1" xmlns="http://www.w3.org/2000/svg" xmlns:xlink="http://www.w3.org/1999/xlink" x="0px" y="0px"
	 viewBox="0 0 150 150" style="enable-background:new 0 0 150 150;" xml:space="preserve">
<g>
	<g>
		<g>
			<path style="fill:#FFC50B;" d="M76.1,54.7c10.4,0,20.7,0,31.1,0c6.5,0,10.7,4.7,10.7,11.9c0,6.6,0,13.1,0,19.7
				c0,7.1-4.1,11.8-10.6,11.9c-6.7,0.1-13.5,0.1-20.2,0c-2.3,0-3-0.7-3.4-3.3c-0.6-3.6-2.4-5.5-5.6-5.7c-1.6-0.1-3.2-0.1-4.8,0
				c-2.9,0.3-4.6,2.2-5.1,5.3c-0.5,3.1-1,3.6-3.9,3.6c-6.4,0-12.8,0-19.3,0c-7,0-11-4.5-11.1-12.2c0-6.6,0-13.1,0-19.7
				c0-6.9,4.3-11.6,10.6-11.6C55.1,54.7,65.6,54.7,76.1,54.7C76.1,54.7,76.1,54.7,76.1,54.7z M105.3,69.6c0.2-0.1,1.1-0.3,1.5,0.4
				c0.4,0.4,0.5,0.8,0.8,1.3c0.6,0.9,0.6,1.7,1.3,2.5c0.5,0.5,1,1.3,2,0.8c0.5-0.4,0.5-1.4,0.1-2.1c-0.8-1.3-1.8-2.5-2.3-3.3
				c2.8-0.5,2.7-7.4,0-7.8c-1.2-0.2-2-0.4-4.6-0.2c-0.9,0-1.1,1.1-1.2,1.7c-0.1,3.4-0.1,6.9,0,10.3c0,0.6,0.4,2,1.2,1.7
				c1.1-0.2,1.1-1.2,1.1-1.9C105.3,70.5,105.3,70.6,105.3,69.6z M95.9,69.8c-1-2.8-1.9-4.9-2.7-7.2c-0.4-1-0.9-2-1.9-1.3
				c-0.4,0.3-0.6,1.6-0.4,2.3c1.1,3.3,2.3,6.5,3.6,9.8c0.2,0.6,1,1.3,1.5,1.3c0.5,0,1.2-0.7,1.4-1.3c1.3-3.2,2.5-6.3,3.5-9.6
				c0.3-1.3,0.3-2.2-0.4-2.5c-0.8-0.5-1.6,0.8-1.9,1.5C97.6,64.9,96.8,67.1,95.9,69.8z M36.6,67.1c0,0.7,0,1.4,0,2.1
				c0,1.2-0.1,1.8,1.2,1.8c1.5,0.3,1.4-0.9,1.4-1.9c0-0.9,0-1.8,0.1-2.7c0.1-3.6,1.3-5.2,4.5-6c0.7-0.2,1.8-0.5,1.7-1.6
				c-0.1-1.5-1.2-1.3-2.2-1.2C39,58.2,36.6,61.6,36.6,67.1z M39.9,75.8c0.1-3.2-1.4-2.4-2-2.5c-1.3-0.2-1.3,1.2-1.3,2.2
				c0,1.1-0.3,2.6,1.2,2.5C38.4,78,40.1,78.5,39.9,75.8z"/>
			<path style="fill:#FFC50B;" d="M32.3,83.8c-2.8,0.3-3.3-0.2-3.3-3c0-3,0-6,0-9.1c0-2.6,0.8-3.3,3.3-2.7
				C32.3,73.9,32.3,78.8,32.3,83.8z"/>
			<path style="fill:#FFC50B;" d="M119.6,83.8c0-5,0-9.9,0-14.8c2.6-0.5,3.3,0.2,3.3,2.8c0,3,0,6,0,9.1
				C122.9,83.6,122.3,84.1,119.6,83.8z"/>
			<path style="fill:#FFC50B;" d="M69.2,52.6c-0.2-2.9,0.3-3.6,2.6-3.6c2.8,0,5.6,0,8.4,0c2.2,0,2.8,0.8,2.4,3.6
				C78.2,52.6,73.8,52.6,69.2,52.6z"/>
			<path style="fill:#FFC50B;" d="M105.3,67.7c0-1.5,0-1.6,0-4.4c0,0,1.9-0.1,2.1-0.1c1.4,0.3,1.5,1.7,1.3,2.9
				C108.4,67.9,106.5,67.7,105.3,67.7z"/>
		</g>
	</g>
	<g>
		
			<radialGradient id="SVGID_1_" cx="126.7146" cy="-110.0671" r="72.4884" gradientTransform="matrix(0.8687 0 0 0.9626 -37.3999 179.637)" gradientUnits="userSpaceOnUse">
			<stop  offset="0.3243" style="stop-color:#FFFF0B"/>
			<stop  offset="1" style="stop-color:#FF8639;stop-opacity:0"/>
		</radialGradient>
		<circle style="opacity:0.33;fill:url(#SVGID_1_);" cx="75" cy="75" r="75"/>
	</g>
</g>
</svg>
