<?xml version="1.0" encoding="utf-8"?>
<!-- Generator: Adobe Illustrator 22.0.0, SVG Export Plug-In . SVG Version: 6.00 Build 0)  -->
<svg version="1.1" id="Layer_1" xmlns="http://www.w3.org/2000/svg" xmlns:xlink="http://www.w3.org/1999/xlink" x="0px" y="0px"
	 viewBox="0 0 55.5 61" style="enable-background:new 0 0 55.5 61;" xml:space="preserve">
<g>
	<path id="XMLID_7_" style="fill:#111005;" d="M5,60.8L0,0l9.5,0.4c0.9,0,1.8,0.5,2.4,1.2l24.4,29.8L33.3,0.7h14.8L55.5,61
		l-12.7-6.1L18.3,31.4l1.8,29.2L5,60.8z"/>
	<path id="XMLID_4_" style="fill:#EFE45B;" d="M0.3,0.3l9.1,0.4c0.9,0,1.7,0.4,2.2,1.1l24.4,29.8l0.6,0.7l-0.1-0.9L33.6,1h14.3
		l7.3,59.6L43,54.7L18.5,31.2l-0.5-0.5l0,0.7l1.8,28.9L5.3,60.5L0.3,0.3 M0,0l5,60.8l15.1-0.2l-1.8-29.2l24.6,23.6L55.5,61L48.1,0.7
		H33.3l2.9,30.7L11.9,1.6c-0.6-0.7-1.5-1.2-2.4-1.2L0,0L0,0z"/>
</g>
</svg>
