<?xml version="1.0" encoding="utf-8"?>
<!-- Generator: Adobe Illustrator 22.0.0, SVG Export Plug-In . SVG Version: 6.00 Build 0)  -->
<svg version="1.1" id="Layer_1" xmlns="http://www.w3.org/2000/svg" xmlns:xlink="http://www.w3.org/1999/xlink" x="0px" y="0px"
	 viewBox="0 0 55.5 61" style="enable-background:new 0 0 55.5 61;" xml:space="preserve">
<g>
	<g>
		<defs>
			<path id="SVGID_1_" d="M5,60.8L0,0l9.5,0.4c0.9,0,1.8,0.5,2.4,1.2l24.4,29.8L33.3,0.7h14.8L55.5,61l-12.7-6.1L18.3,31.4l1.8,29.2
				L5,60.8z"/>
		</defs>
		<linearGradient id="SVGID_2_" gradientUnits="userSpaceOnUse" x1="21.3818" y1="1.332" x2="23.1263" y2="11.2175">
			<stop  offset="0" style="stop-color:#F49816"/>
			<stop  offset="1" style="stop-color:#F4CB16"/>
		</linearGradient>
		<use xlink:href="#SVGID_1_"  style="overflow:visible;fill:url(#SVGID_2_);"/>
		<clipPath id="SVGID_3_">
			<use xlink:href="#SVGID_1_"  style="overflow:visible;"/>
		</clipPath>
	</g>
	<g style="opacity:0.61;">
		<g>
			<path style="fill:#FFFDFD;" d="M3.5,42L5,60.8l15.1-0.2l-1.8-28.5C13.3,35.3,8.4,38.6,3.5,42z"/>
		</g>
		<g>
			<path style="fill:#FFFDFD;" d="M35.3,21.3l1,10.1l-5.8-7.1c-2.2,1.4-4.3,2.7-6.5,4.1c-1.8,1.1-3.5,2.3-5.3,3.4l24.1,23.1L55.5,61
				l-5.9-48.5C44.8,15.4,40.1,18.4,35.3,21.3z"/>
		</g>
	</g>
</g>
</svg>
