<?xml version="1.0" encoding="utf-8"?>
<!-- Generator: Adobe Illustrator 22.0.0, SVG Export Plug-In . SVG Version: 6.00 Build 0)  -->
<svg version="1.1" id="Layer_1" xmlns="http://www.w3.org/2000/svg" xmlns:xlink="http://www.w3.org/1999/xlink" x="0px" y="0px"
	 viewBox="0 0 205 64.3" style="enable-background:new 0 0 205 64.3;" xml:space="preserve">
<g>
	<path style="fill:#02FFAF;" d="M182.1,64.3H22.9C10.3,64.3,0,54,0,41.4V22.9C0,10.3,10.3,0,22.9,0h159.1C194.7,0,205,10.3,205,22.9
		v18.4C205,54,194.7,64.3,182.1,64.3z M22.9,2.8c-11.1,0-20.1,9-20.1,20.1v18.4c0,11.1,9,20.1,20.1,20.1h159.1
		c11.1,0,20.1-9,20.1-20.1V22.9c0-11.1-9-20.1-20.1-20.1H22.9z"/>
	<path style="fill:#02FFAF;" d="M182.1,64.3H22.9C10.3,64.3,0,54,0,41.4V22.9C0,10.3,10.3,0,22.9,0h159.1C194.7,0,205,10.3,205,22.9
		v18.4C205,54,194.7,64.3,182.1,64.3z M22.9,2.8c-11.1,0-20.1,9-20.1,20.1v18.4c0,11.1,9,20.1,20.1,20.1h159.1
		c11.1,0,20.1-9,20.1-20.1V22.9c0-11.1-9-20.1-20.1-20.1H22.9z"/>
</g>
<g>
	<path style="fill:#02FFAF;" d="M41.7,37.7h-8.3l-1.6,3.8h-4.2l7.9-17.8h4.1l8,17.8h-4.3L41.7,37.7z M40.4,34.5l-2.8-6.8l-2.8,6.8
		H40.4z"/>
	<path style="fill:#02FFAF;" d="M65.5,22.6v18.9h-3.8v-1.6c-1,1.2-2.4,1.8-4.3,1.8c-1.3,0-2.5-0.3-3.5-0.9c-1-0.6-1.9-1.4-2.5-2.5
		c-0.6-1.1-0.9-2.3-0.9-3.7s0.3-2.6,0.9-3.7c0.6-1.1,1.4-1.9,2.5-2.5c1-0.6,2.2-0.9,3.5-0.9c1.7,0,3.1,0.6,4.1,1.7v-6.6H65.5z
		 M60.6,37.4c0.7-0.7,1-1.6,1-2.8c0-1.2-0.3-2.1-1-2.8s-1.5-1-2.5-1c-1,0-1.9,0.3-2.5,1s-1,1.6-1,2.8c0,1.2,0.3,2.1,1,2.8
		c0.7,0.7,1.5,1,2.5,1C59.1,38.4,60,38.1,60.6,37.4z"/>
	<path style="fill:#02FFAF;" d="M85.3,27.8l-5.8,13.7h-4.1l-5.7-13.7h4.1l3.8,9.3l3.9-9.3H85.3z"/>
	<path style="fill:#02FFAF;" d="M99.4,29.1c1.1,1,1.7,2.5,1.7,4.6v7.8h-3.7v-1.7c-0.7,1.3-2.1,1.9-4.2,1.9c-1.1,0-2-0.2-2.7-0.5
		c-0.8-0.4-1.4-0.8-1.8-1.5c-0.4-0.6-0.6-1.3-0.6-2.1c0-1.3,0.5-2.3,1.4-3c1-0.7,2.4-1.1,4.4-1.1h3.2c0-0.9-0.3-1.5-0.8-2
		C95.8,31,95,30.7,94,30.7c-0.7,0-1.4,0.1-2.1,0.3c-0.7,0.2-1.3,0.5-1.8,0.9l-1.4-2.8c0.7-0.5,1.6-0.9,2.7-1.2
		c1-0.3,2.1-0.4,3.2-0.4C96.6,27.6,98.3,28.1,99.4,29.1z M96,38.5c0.5-0.3,0.9-0.8,1.1-1.4v-1.4h-2.7c-1.6,0-2.4,0.5-2.4,1.6
		c0,0.5,0.2,0.9,0.6,1.2c0.4,0.3,0.9,0.4,1.6,0.4C94.9,39,95.5,38.9,96,38.5z"/>
	<path style="fill:#02FFAF;" d="M119.7,29.1c1,1,1.6,2.5,1.6,4.5v7.8h-4v-7.2c0-1.1-0.2-1.9-0.7-2.4c-0.5-0.5-1.2-0.8-2.1-0.8
		c-1,0-1.8,0.3-2.4,0.9c-0.6,0.6-0.9,1.5-0.9,2.8v6.8h-4V27.8h3.8v1.6c0.5-0.6,1.2-1,2-1.3c0.8-0.3,1.6-0.5,2.6-0.5
		C117.2,27.6,118.6,28.1,119.7,29.1z"/>
	<path style="fill:#02FFAF;" d="M130.2,40.8c-1.2-0.6-2.1-1.4-2.7-2.5c-0.7-1.1-1-2.3-1-3.6s0.3-2.6,1-3.6c0.7-1.1,1.6-1.9,2.7-2.5
		c1.2-0.6,2.5-0.9,3.9-0.9c1.4,0,2.7,0.3,3.8,0.9c1.1,0.6,1.9,1.5,2.4,2.6l-3.1,1.7c-0.7-1.3-1.7-1.9-3.1-1.9c-1,0-1.9,0.3-2.6,1
		s-1,1.6-1,2.8s0.3,2.1,1,2.8c0.7,0.7,1.5,1,2.6,1c1.4,0,2.4-0.6,3.1-1.9l3.1,1.7c-0.5,1.1-1.3,1.9-2.4,2.5
		c-1.1,0.6-2.3,0.9-3.8,0.9C132.6,41.7,131.3,41.4,130.2,40.8z"/>
	<path style="fill:#02FFAF;" d="M158.2,35.8h-10.3c0.2,0.8,0.6,1.5,1.3,2c0.7,0.5,1.6,0.7,2.6,0.7c0.7,0,1.3-0.1,1.9-0.3
		s1.1-0.5,1.5-1l2.1,2.3c-1.3,1.5-3.2,2.2-5.6,2.2c-1.5,0-2.9-0.3-4.1-0.9s-2.1-1.4-2.7-2.5c-0.6-1.1-1-2.3-1-3.6
		c0-1.3,0.3-2.5,1-3.6c0.6-1.1,1.5-1.9,2.6-2.5c1.1-0.6,2.4-0.9,3.7-0.9c1.3,0,2.6,0.3,3.6,0.9c1.1,0.6,1.9,1.4,2.6,2.5
		c0.6,1.1,0.9,2.3,0.9,3.8C158.3,34.7,158.3,35.1,158.2,35.8z M148.9,31.4c-0.6,0.5-1,1.2-1.1,2.1h6.7c-0.1-0.9-0.5-1.6-1.1-2.1
		c-0.6-0.5-1.4-0.8-2.2-0.8C150.3,30.6,149.5,30.8,148.9,31.4z"/>
	<path style="fill:#02FFAF;" d="M177.4,22.6v18.9h-3.8v-1.6c-1,1.2-2.4,1.8-4.3,1.8c-1.3,0-2.5-0.3-3.5-0.9c-1-0.6-1.9-1.4-2.5-2.5
		c-0.6-1.1-0.9-2.3-0.9-3.7s0.3-2.6,0.9-3.7c0.6-1.1,1.4-1.9,2.5-2.5c1-0.6,2.2-0.9,3.5-0.9c1.7,0,3.1,0.6,4.1,1.7v-6.6H177.4z
		 M172.5,37.4c0.7-0.7,1-1.6,1-2.8c0-1.2-0.3-2.1-1-2.8s-1.5-1-2.5-1c-1,0-1.9,0.3-2.5,1s-1,1.6-1,2.8c0,1.2,0.3,2.1,1,2.8
		c0.7,0.7,1.5,1,2.5,1C171,38.4,171.9,38.1,172.5,37.4z"/>
</g>
</svg>
