<?xml version="1.0" encoding="utf-8"?>
<!-- Generator: Adobe Illustrator 22.0.0, SVG Export Plug-In . SVG Version: 6.00 Build 0)  -->
<svg version="1.1" id="Layer_1" xmlns="http://www.w3.org/2000/svg" xmlns:xlink="http://www.w3.org/1999/xlink" x="0px" y="0px"
	 viewBox="0 0 239.9 50.4" style="enable-background:new 0 0 239.9 50.4;" xml:space="preserve">
<g>
	<g>
		<g>
			<defs>
				<path id="XMLID_18_" d="M239.7,21.5v8.1c0,11.7-9.5,21.2-21.2,21.2H22c-11.7,0-21.2-9.5-21.2-21.2v-8.1C0.7,9.8,10.2,0.3,22,0.3
					h196.6C230.2,0.3,239.7,9.8,239.7,21.5z"/>
			</defs>
			<clipPath id="XMLID_2_">
				<use xlink:href="#XMLID_18_"  style="overflow:visible;"/>
			</clipPath>
		</g>
		<g>
			<defs>
				<path id="XMLID_17_" d="M239.7,21.5v8.1c0,11.7-9.5,21.2-21.2,21.2H22c-11.7,0-21.2-9.5-21.2-21.2v-8.1C0.7,9.8,10.2,0.3,22,0.3
					h196.6C230.2,0.3,239.7,9.8,239.7,21.5z"/>
			</defs>
			<clipPath id="XMLID_3_">
				<use xlink:href="#XMLID_17_"  style="overflow:visible;"/>
			</clipPath>
		</g>
	</g>
	<g>
		<g>
			<defs>
				<path id="XMLID_16_" d="M239.7,21.5v8.1c0,11.7-9.5,21.2-21.2,21.2H22c-11.7,0-21.2-9.5-21.2-21.2v-8.1C0.7,9.8,10.2,0.3,22,0.3
					h196.6C230.2,0.3,239.7,9.8,239.7,21.5z"/>
			</defs>
			<use xlink:href="#XMLID_16_"  style="overflow:visible;fill:#FFC50B;"/>
			<clipPath id="XMLID_4_">
				<use xlink:href="#XMLID_16_"  style="overflow:visible;"/>
			</clipPath>
			<path style="clip-path:url(#XMLID_4_);fill:#B78D18;" d="M225.4,2H10.5C9.7,2,9.1,1.4,9.1,0.6V0.6c0-0.8,0.6-1.4,1.4-1.4h214.9
				c0.8,0,1.4,0.6,1.4,1.4v0.1C226.8,1.4,226.2,2,225.4,2z"/>
		</g>
		<g>
			<defs>
				<path id="XMLID_15_" d="M239.7,21.5v8.1c0,11.7-9.5,21.2-21.2,21.2H22c-11.7,0-21.2-9.5-21.2-21.2v-8.1C0.7,9.8,10.2,0.3,22,0.3
					h196.6C230.2,0.3,239.7,9.8,239.7,21.5z"/>
			</defs>
			<use xlink:href="#XMLID_15_"  style="overflow:visible;opacity:0.23;fill:#FFC50B;"/>
			<clipPath id="XMLID_5_">
				<use xlink:href="#XMLID_15_"  style="overflow:visible;opacity:0.23;"/>
			</clipPath>
			<path style="clip-path:url(#XMLID_5_);fill:#B78D18;" d="M224,56.5H14.6c-2.3,0-4.1-1.9-4.1-4.1v-0.3c0-2.3,1.9-4.1,4.1-4.1H224
				c2.3,0,4.1,1.9,4.1,4.1v0.3C228.2,54.7,226.3,56.5,224,56.5z"/>
		</g>
	</g>
	<g>
		<g>
			<defs>
				<path id="XMLID_14_" d="M239.7,21.5v8.1c0,11.7-9.5,21.2-21.2,21.2H22c-11.7,0-21.2-9.5-21.2-21.2v-8.1C0.7,9.8,10.2,0.3,22,0.3
					h196.6C230.2,0.3,239.7,9.8,239.7,21.5z"/>
			</defs>
			<clipPath id="XMLID_6_">
				<use xlink:href="#XMLID_14_"  style="overflow:visible;"/>
			</clipPath>
		</g>
		<g>
			<defs>
				<path id="XMLID_13_" d="M239.7,21.5v8.1c0,11.7-9.5,21.2-21.2,21.2H22c-11.7,0-21.2-9.5-21.2-21.2v-8.1C0.7,9.8,10.2,0.3,22,0.3
					h196.6C230.2,0.3,239.7,9.8,239.7,21.5z"/>
			</defs>
			<clipPath id="XMLID_7_">
				<use xlink:href="#XMLID_13_"  style="overflow:visible;"/>
			</clipPath>
		</g>
	</g>
</g>
<text transform="matrix(1 0 0 1 17.7146 31.5162)" style="fill:#001B29; font-family:'Montserrat-Black'; font-size:19.6794px; letter-spacing:1;">Подать заявку</text>
<g>
	<linearGradient id="SVGID_1_" gradientUnits="userSpaceOnUse" x1="59.1725" y1="29.1765" x2="454.123" y2="73.4382">
		<stop  offset="0" style="stop-color:#FF0D0D"/>
		<stop  offset="1" style="stop-color:#FFFFFF;stop-opacity:0"/>
	</linearGradient>
	<path style="opacity:0.23;fill:url(#SVGID_1_);" d="M218.6,50.1H20.9c-11.4,0-20.7-9.8-20.7-21.8v-7c0-12,9.3-21.8,20.7-21.8
		C20.9-0.4,229.4,50.1,218.6,50.1z"/>
</g>
<g style="opacity:8.000000e-02;">
	<path style="fill:#0A2833;" d="M32.9,15.7v13.8h-4.6V19.3h-4.2v10.2h-4.6V15.7H32.9z"/>
	<path style="fill:#0A2833;" d="M40.4,28.9c-1.2-0.6-2.1-1.5-2.8-2.6c-0.7-1.1-1-2.3-1-3.7s0.3-2.6,1-3.7c0.7-1.1,1.6-2,2.8-2.6
		c1.2-0.6,2.5-0.9,4-0.9c1.5,0,2.8,0.3,4,0.9c1.2,0.6,2.1,1.5,2.8,2.6c0.7,1.1,1,2.3,1,3.7s-0.3,2.6-1,3.7c-0.7,1.1-1.6,2-2.8,2.6
		c-1.2,0.6-2.5,0.9-4,0.9C42.9,29.8,41.5,29.5,40.4,28.9z M45.9,25.6c0.5-0.3,0.8-0.7,1.1-1.2s0.4-1.1,0.4-1.8s-0.1-1.3-0.4-1.8
		s-0.6-0.9-1.1-1.2s-1-0.4-1.6-0.4s-1.1,0.1-1.6,0.4s-0.8,0.7-1.1,1.2s-0.4,1.1-0.4,1.8s0.1,1.3,0.4,1.8s0.6,0.9,1.1,1.2
		s1,0.4,1.6,0.4S45.4,25.9,45.9,25.6z"/>
	<path style="fill:#0A2833;" d="M70.8,25.9v6.3h-4.3v-2.7h-7.8v2.7h-4.3v-6.3h0.4c0.8,0,1.4-0.5,1.7-1.5c0.3-1,0.5-2.5,0.6-4.5
		l0.2-4.2H69v10.2H70.8z M60.9,23.7c-0.2,0.9-0.4,1.7-0.7,2.2h4.3v-6.6h-3.2l0,1C61.2,21.6,61.1,22.8,60.9,23.7z"/>
	<path style="fill:#0A2833;" d="M84.3,27.1H79l-0.9,2.4h-4.7l6-13.8H84l6,13.8h-4.8L84.3,27.1z M83,23.7l-1.3-3.5l-1.3,3.5H83z"/>
	<path style="fill:#0A2833;" d="M104.3,19.3h-4v10.2h-4.6V19.3h-4v-3.6h12.6V19.3z"/>
	<path style="fill:#0A2833;" d="M119.2,21.1c0.9,0.8,1.4,1.9,1.4,3.4c0,1.6-0.5,2.9-1.6,3.7s-2.5,1.3-4.4,1.3h-6.8V15.7h4.6v4.2h2.9
		C116.9,19.9,118.2,20.3,119.2,21.1z M115.4,25.8c0.3-0.3,0.5-0.7,0.5-1.2c0-0.9-0.5-1.4-1.6-1.4h-1.9v3.1h1.9
		C114.8,26.2,115.1,26.1,115.4,25.8z"/>
	<path style="fill:#0A2833;" d="M142.9,23.6c0.4,0.6,0.6,1.2,0.6,2c0,0.9-0.3,1.6-0.9,2.3c-0.6,0.6-1.4,1.1-2.5,1.5
		c-1,0.3-2.2,0.5-3.4,0.5c-2,0-3.9-0.4-5.7-1.2l1.4-3.2c0.6,0.3,1.3,0.5,2,0.6s1.4,0.2,2,0.2c0.7,0,1.4-0.1,1.8-0.3
		c0.5-0.2,0.7-0.5,0.7-0.9c0-0.6-0.5-0.8-1.4-0.8h-3.7v-3.3h3.3c0.4,0,0.7-0.1,0.9-0.2c0.2-0.1,0.3-0.3,0.3-0.6
		c0-0.3-0.2-0.6-0.5-0.8c-0.4-0.2-0.8-0.3-1.4-0.3c-0.6,0-1.1,0.1-1.8,0.2c-0.6,0.2-1.3,0.4-1.8,0.7l-1.4-3.4c1.5-0.7,3.2-1,5-1
		c1.2,0,2.3,0.2,3.3,0.5s1.8,0.8,2.4,1.4c0.6,0.6,0.9,1.4,0.9,2.2c0,0.6-0.2,1.2-0.5,1.7c-0.3,0.5-0.8,0.9-1.3,1.2
		C142,22.6,142.5,23.1,142.9,23.6z"/>
	<path style="fill:#0A2833;" d="M156.9,27.1h-5.2l-0.9,2.4H146l6-13.8h4.6l6,13.8h-4.8L156.9,27.1z M155.6,23.7l-1.3-3.5l-1.3,3.5
		H155.6z"/>
	<path style="fill:#0A2833;" d="M177.2,15.7v13.8h-4.6v-3.3h-1.2l-2.1,3.3h-4.9l2.7-3.9c-0.9-0.4-1.6-1-2.1-1.8s-0.7-1.7-0.7-2.7
		c0-1.1,0.3-2,0.8-2.8c0.5-0.8,1.3-1.4,2.2-1.8c1-0.4,2.1-0.6,3.4-0.6H177.2z M169,21c0,1.2,0.6,1.8,1.8,1.8h1.8v-3.4h-1.8
		C169.6,19.3,169,19.9,169,21z"/>
	<path style="fill:#0A2833;" d="M193.9,23.5c0.4,0.5,0.6,1.2,0.6,2c0,1.2-0.5,2.2-1.5,2.9c-1,0.7-2.4,1.1-4.1,1.1h-7.4V15.7h7
		c1.7,0,3,0.3,4,0.9s1.4,1.5,1.4,2.7c0,0.7-0.2,1.2-0.5,1.7c-0.3,0.5-0.7,0.9-1.3,1.2C193,22.5,193.5,23,193.9,23.5z M186.2,21h2
		c0.8,0,1.1-0.3,1.1-1c0-0.7-0.4-1-1.1-1h-2V21z M189.9,25.1c0-0.7-0.4-1.1-1.1-1.1h-2.6v2.2h2.6C189.5,26.2,189.9,25.9,189.9,25.1z
		"/>
	<path style="fill:#0A2833;" d="M207.8,22.4l4.1,7.1h-5.2l-2.6-5h-1.3v5h-4.6V15.7h4.6v5.1h1.4l2.9-5.1h4.8L207.8,22.4z"/>
	<path style="fill:#0A2833;" d="M229,15.7l-5.5,10.4c-0.7,1.2-1.5,2.2-2.4,2.8c-1,0.6-2,1-3.1,1c-0.9,0-1.8-0.2-2.7-0.6l1.1-3.3
		c0.6,0.2,1,0.2,1.4,0.2c0.3,0,0.6-0.1,0.9-0.2s0.5-0.3,0.7-0.6l-5.3-9.7h4.9l2.7,5.8l2.8-5.8H229z"/>
</g>
<g>
	<linearGradient id="SVGID_2_" gradientUnits="userSpaceOnUse" x1="205.5708" y1="-116.2105" x2="111.5208" y2="-42.8605">
		<stop  offset="0" style="stop-color:#FFFFFF"/>
		<stop  offset="1" style="stop-color:#FFFFFF;stop-opacity:0"/>
	</linearGradient>
	<polygon style="fill:url(#SVGID_2_);" points="18.3,31.5 22.9,31.5 22.9,21.4 27.1,21.4 27.1,31.5 31.6,31.5 31.6,17.8 18.3,17.8 	
		"/>
	<linearGradient id="SVGID_3_" gradientUnits="userSpaceOnUse" x1="212.407" y1="-107.4451" x2="118.357" y2="-34.0951">
		<stop  offset="0" style="stop-color:#FFFFFF"/>
		<stop  offset="1" style="stop-color:#FFFFFF;stop-opacity:0"/>
	</linearGradient>
	<path style="fill:url(#SVGID_3_);" d="M47,18.4c-1.2-0.6-2.5-0.9-4-0.9s-2.8,0.3-4,0.9c-1.2,0.6-2.1,1.5-2.8,2.6
		c-0.7,1.1-1,2.3-1,3.7s0.3,2.6,1,3.7c0.7,1.1,1.6,2,2.8,2.6c1.2,0.6,2.5,0.9,4,0.9s2.8-0.3,4-0.9c1.2-0.6,2.1-1.5,2.8-2.6
		s1-2.3,1-3.7s-0.3-2.6-1-3.7C49.1,19.8,48.2,19,47,18.4z M45.7,26.5c-0.3,0.5-0.6,0.9-1.1,1.2c-0.5,0.3-1,0.4-1.6,0.4
		c-0.6,0-1.1-0.1-1.6-0.4s-0.8-0.7-1.1-1.2c-0.3-0.5-0.4-1.1-0.4-1.8s0.1-1.3,0.4-1.8c0.3-0.5,0.6-0.9,1.1-1.2
		c0.5-0.3,1-0.4,1.6-0.4c0.6,0,1.1,0.1,1.6,0.4c0.5,0.3,0.8,0.7,1.1,1.2c0.3,0.5,0.4,1.1,0.4,1.8S46,25.9,45.7,26.5z"/>
	<linearGradient id="SVGID_4_" gradientUnits="userSpaceOnUse" x1="220.526" y1="-97.0349" x2="126.476" y2="-23.6848">
		<stop  offset="0" style="stop-color:#FFFFFF"/>
		<stop  offset="1" style="stop-color:#FFFFFF;stop-opacity:0"/>
	</linearGradient>
	<path style="fill:url(#SVGID_4_);" d="M67.7,17.8H56l-0.2,4.2c-0.1,2-0.3,3.5-0.6,4.5c-0.3,1-0.9,1.5-1.7,1.5h-0.4v6.3h4.3v-2.7
		h7.8v2.7h4.3v-6.3h-1.8V17.8z M63.1,27.9h-4.3c0.3-0.6,0.6-1.3,0.7-2.2c0.2-0.9,0.3-2,0.3-3.4l0-1h3.2V27.9z"/>
	<linearGradient id="SVGID_5_" gradientUnits="userSpaceOnUse" x1="227.6649" y1="-87.8813" x2="133.6149" y2="-14.5313">
		<stop  offset="0" style="stop-color:#FFFFFF"/>
		<stop  offset="1" style="stop-color:#FFFFFF;stop-opacity:0"/>
	</linearGradient>
	<path style="fill:url(#SVGID_5_);" d="M78.1,17.8l-6,13.8h4.7l0.9-2.4h5.2l0.9,2.4h4.8l-6-13.8H78.1z M79,25.8l1.3-3.5l1.3,3.5H79z
		"/>
	<linearGradient id="SVGID_6_" gradientUnits="userSpaceOnUse" x1="231.9186" y1="-82.4272" x2="137.8686" y2="-9.0772">
		<stop  offset="0" style="stop-color:#FFFFFF"/>
		<stop  offset="1" style="stop-color:#FFFFFF;stop-opacity:0"/>
	</linearGradient>
	<polygon style="fill:url(#SVGID_6_);" points="90.3,21.4 94.4,21.4 94.4,31.5 98.9,31.5 98.9,21.4 103,21.4 103,17.8 90.3,17.8 	
		"/>
	<linearGradient id="SVGID_7_" gradientUnits="userSpaceOnUse" x1="238.2007" y1="-74.3723" x2="144.1507" y2="-1.0223">
		<stop  offset="0" style="stop-color:#FFFFFF"/>
		<stop  offset="1" style="stop-color:#FFFFFF;stop-opacity:0"/>
	</linearGradient>
	<path style="fill:url(#SVGID_7_);" d="M117.9,23.1c-0.9-0.8-2.3-1.2-4-1.2H111v-4.2h-4.6v13.8h6.8c1.8,0,3.3-0.4,4.4-1.3
		c1.1-0.9,1.6-2.1,1.6-3.7C119.3,25,118.8,23.9,117.9,23.1z M114.1,27.8c-0.3,0.3-0.7,0.4-1.2,0.4H111v-3.1h1.9
		c1.1,0,1.6,0.5,1.6,1.4C114.6,27.1,114.4,27.5,114.1,27.8z"/>
	<linearGradient id="SVGID_8_" gradientUnits="userSpaceOnUse" x1="247.2407" y1="-62.781" x2="153.1907" y2="10.569">
		<stop  offset="0" style="stop-color:#FFFFFF"/>
		<stop  offset="1" style="stop-color:#FFFFFF;stop-opacity:0"/>
	</linearGradient>
	<path style="fill:url(#SVGID_8_);" d="M139.9,24.4c0.6-0.3,1-0.7,1.3-1.2c0.3-0.5,0.5-1.1,0.5-1.7c0-0.8-0.3-1.6-0.9-2.2
		c-0.6-0.6-1.4-1.1-2.4-1.4c-1-0.3-2.1-0.5-3.3-0.5c-1.8,0-3.4,0.3-5,1l1.4,3.4c0.6-0.3,1.2-0.5,1.8-0.7c0.6-0.2,1.2-0.2,1.8-0.2
		c0.6,0,1.1,0.1,1.4,0.3c0.4,0.2,0.5,0.4,0.5,0.8c0,0.3-0.1,0.5-0.3,0.6c-0.2,0.1-0.5,0.2-0.9,0.2h-3.3v3.3h3.7
		c0.9,0,1.4,0.3,1.4,0.8c0,0.4-0.2,0.7-0.7,0.9c-0.5,0.2-1.1,0.3-1.8,0.3c-0.6,0-1.3-0.1-2-0.2c-0.7-0.1-1.4-0.3-2-0.6l-1.4,3.2
		c1.8,0.8,3.7,1.2,5.7,1.2c1.3,0,2.4-0.2,3.4-0.5c1-0.3,1.8-0.8,2.5-1.5c0.6-0.6,0.9-1.4,0.9-2.3c0-0.7-0.2-1.4-0.6-2
		C141.2,25.1,140.7,24.7,139.9,24.4z"/>
	<linearGradient id="SVGID_9_" gradientUnits="userSpaceOnUse" x1="255.1438" y1="-52.6476" x2="161.0938" y2="20.7024">
		<stop  offset="0" style="stop-color:#FFFFFF"/>
		<stop  offset="1" style="stop-color:#FFFFFF;stop-opacity:0"/>
	</linearGradient>
	<path style="fill:url(#SVGID_9_);" d="M150.7,17.8l-6,13.8h4.7l0.9-2.4h5.2l0.9,2.4h4.8l-6-13.8H150.7z M151.6,25.8l1.3-3.5
		l1.3,3.5H151.6z"/>
	<linearGradient id="SVGID_10_" gradientUnits="userSpaceOnUse" x1="260.8925" y1="-45.2766" x2="166.8425" y2="28.0734">
		<stop  offset="0" style="stop-color:#FFFFFF"/>
		<stop  offset="1" style="stop-color:#FFFFFF;stop-opacity:0"/>
	</linearGradient>
	<path style="fill:url(#SVGID_10_);" d="M166,18.4c-1,0.4-1.7,1.1-2.2,1.8c-0.5,0.8-0.8,1.7-0.8,2.8c0,1.1,0.2,2,0.7,2.7
		c0.5,0.8,1.2,1.4,2.1,1.8l-2.7,3.9h4.9l2.1-3.3h1.2v3.3h4.6V17.8h-6.5C168.1,17.8,167,18,166,18.4z M171.3,21.3v3.4h-1.8
		c-1.2,0-1.8-0.6-1.8-1.8c0-1.1,0.6-1.7,1.8-1.7H171.3z"/>
	<linearGradient id="SVGID_11_" gradientUnits="userSpaceOnUse" x1="266.2291" y1="-38.4339" x2="172.1791" y2="34.9161">
		<stop  offset="0" style="stop-color:#FFFFFF"/>
		<stop  offset="1" style="stop-color:#FFFFFF;stop-opacity:0"/>
	</linearGradient>
	<path style="fill:url(#SVGID_11_);" d="M190.9,24.3c0.6-0.3,1-0.7,1.3-1.2c0.3-0.5,0.5-1.1,0.5-1.7c0-1.1-0.5-2-1.4-2.7
		c-0.9-0.6-2.3-0.9-4-0.9h-7v13.8h7.4c1.8,0,3.2-0.4,4.1-1.1c1-0.7,1.5-1.7,1.5-2.9c0-0.8-0.2-1.5-0.6-2
		C192.2,25,191.6,24.6,190.9,24.3z M184.8,21h2c0.8,0,1.1,0.3,1.1,1c0,0.7-0.4,1-1.1,1h-2V21z M187.4,28.3h-2.6v-2.2h2.6
		c0.8,0,1.1,0.4,1.1,1.1C188.6,27.9,188.2,28.3,187.4,28.3z"/>
	<linearGradient id="SVGID_12_" gradientUnits="userSpaceOnUse" x1="273.1554" y1="-29.553" x2="179.1054" y2="43.797">
		<stop  offset="0" style="stop-color:#FFFFFF"/>
		<stop  offset="1" style="stop-color:#FFFFFF;stop-opacity:0"/>
	</linearGradient>
	<polygon style="fill:url(#SVGID_12_);" points="205.7,17.8 202.8,22.9 201.4,22.9 201.4,17.8 196.8,17.8 196.8,31.5 201.4,31.5 
		201.4,26.6 202.7,26.6 205.3,31.5 210.6,31.5 206.5,24.4 210.6,17.8 	"/>
	<linearGradient id="SVGID_13_" gradientUnits="userSpaceOnUse" x1="277.7669" y1="-23.64" x2="183.7169" y2="49.71">
		<stop  offset="0" style="stop-color:#FFFFFF"/>
		<stop  offset="1" style="stop-color:#FFFFFF;stop-opacity:0"/>
	</linearGradient>
	<path style="fill:url(#SVGID_13_);" d="M223.2,17.8l-2.8,5.8l-2.7-5.8h-4.9l5.3,9.7c-0.2,0.3-0.5,0.5-0.7,0.6
		c-0.2,0.1-0.5,0.2-0.9,0.2c-0.4,0-0.8-0.1-1.4-0.2l-1.1,3.3c0.9,0.4,1.8,0.6,2.7,0.6c1.1,0,2.2-0.3,3.1-1c1-0.6,1.8-1.6,2.4-2.8
		l5.5-10.4H223.2z"/>
</g>
<radialGradient id="SVGID_14_" cx="331.6996" cy="-1170.4857" r="87.3535" gradientTransform="matrix(0.8115 0 0 0.8 -146.6279 940.0367)" gradientUnits="userSpaceOnUse">
	<stop  offset="0" style="stop-color:#FFFFFF"/>
	<stop  offset="1" style="stop-color:#FFFFFF;stop-opacity:0"/>
</radialGradient>
<ellipse style="fill:url(#SVGID_14_);" cx="122.5" cy="3.6" rx="100.2" ry="1.4"/>
</svg>
