<?xml version="1.0" encoding="utf-8"?>
<!-- Generator: Adobe Illustrator 22.0.0, SVG Export Plug-In . SVG Version: 6.00 Build 0)  -->
<svg version="1.1" id="Layer_1" xmlns="http://www.w3.org/2000/svg" xmlns:xlink="http://www.w3.org/1999/xlink" x="0px" y="0px"
	 viewBox="0 0 239.9 50.4" style="enable-background:new 0 0 239.9 50.4;" xml:space="preserve">
<style type="text/css">
	.st0{clip-path:url(#XMLID_4_);fill:#B78D18;}
	.st1{clip-path:url(#XMLID_5_);fill:#B78D18;}
	.st2{fill:#001B29;}
	.st3{opacity:8.000000e-02;}
	.st4{fill:#0A2833;}
	.st5{opacity:0.23;fill:url(#SVGID_1_);}
	.st6{fill:url(#SVGID_2_);}
</style>
<g>
	<g>
		<g>
			<g>
				<g>
					<defs>
						<path id="XMLID_18_" d="M239.8,22.3v6.6c0,11.4-9.3,20.7-20.7,20.7H21.5C10,49.6,0.8,40.3,0.8,28.9v-6.6
							C0.8,10.9,10,1.6,21.5,1.6h197.6C230.5,1.6,239.8,10.9,239.8,22.3z"/>
					</defs>
					<clipPath id="XMLID_2_">
						<use xlink:href="#XMLID_18_"  style="overflow:visible;"/>
					</clipPath>
				</g>
				<g>
					<defs>
						<path id="XMLID_17_" d="M239.8,22.3v6.6c0,11.4-9.3,20.7-20.7,20.7H21.5C10,49.6,0.8,40.3,0.8,28.9v-6.6
							C0.8,10.9,10,1.6,21.5,1.6h197.6C230.5,1.6,239.8,10.9,239.8,22.3z"/>
					</defs>
					<clipPath id="XMLID_3_">
						<use xlink:href="#XMLID_17_"  style="overflow:visible;"/>
					</clipPath>
				</g>
			</g>
			<g>
				<g>
					<defs>
						<path id="XMLID_16_" d="M239.8,22.3v6.6c0,11.4-9.3,20.7-20.7,20.7H21.5C10,49.6,0.8,40.3,0.8,28.9v-6.6
							C0.8,10.9,10,1.6,21.5,1.6h197.6C230.5,1.6,239.8,10.9,239.8,22.3z"/>
					</defs>
					<use xlink:href="#XMLID_16_"  style="overflow:visible;fill:#FFC50B;"/>
					<clipPath id="XMLID_4_">
						<use xlink:href="#XMLID_16_"  style="overflow:visible;"/>
					</clipPath>
					<path class="st0" d="M225.5,3.3h-215C9.7,3.3,9.1,2.7,9.1,2v0c0-0.7,0.6-1.4,1.4-1.4h215c0.7,0,1.4,0.6,1.4,1.4v0
						C226.8,2.7,226.2,3.3,225.5,3.3z"/>
				</g>
				<g>
					<defs>
						<path id="XMLID_15_" d="M239.8,22.3v6.6c0,11.4-9.3,20.7-20.7,20.7H21.5C10,49.6,0.8,40.3,0.8,28.9v-6.6
							C0.8,10.9,10,1.6,21.5,1.6h197.6C230.5,1.6,239.8,10.9,239.8,22.3z"/>
					</defs>
					<use xlink:href="#XMLID_15_"  style="overflow:visible;opacity:0.23;fill:#FFC50B;"/>
					<clipPath id="XMLID_5_">
						<use xlink:href="#XMLID_15_"  style="overflow:visible;opacity:0.23;"/>
					</clipPath>
					<path class="st1" d="M224.2,55H14.5c-2.2,0-4-1.8-4-4v-0.1c0-2.2,1.8-4,4-4h209.6c2.2,0,4,1.8,4,4V51
						C228.2,53.2,226.4,55,224.2,55z"/>
				</g>
			</g>
			<g>
				<g>
					<defs>
						<path id="XMLID_14_" d="M239.8,22.3v6.6c0,11.4-9.3,20.7-20.7,20.7H21.5C10,49.6,0.8,40.3,0.8,28.9v-6.6
							C0.8,10.9,10,1.6,21.5,1.6h197.6C230.5,1.6,239.8,10.9,239.8,22.3z"/>
					</defs>
					<clipPath id="XMLID_6_">
						<use xlink:href="#XMLID_14_"  style="overflow:visible;"/>
					</clipPath>
				</g>
				<g>
					<defs>
						<path id="XMLID_13_" d="M239.8,22.3v6.6c0,11.4-9.3,20.7-20.7,20.7H21.5C10,49.6,0.8,40.3,0.8,28.9v-6.6
							C0.8,10.9,10,1.6,21.5,1.6h197.6C230.5,1.6,239.8,10.9,239.8,22.3z"/>
					</defs>
					<clipPath id="XMLID_7_">
						<use xlink:href="#XMLID_13_"  style="overflow:visible;"/>
					</clipPath>
				</g>
			</g>
		</g>
		<g>
			<path class="st2" d="M31.8,18.2v13.9h-4.6V21.8H23v10.3h-4.6V18.2H31.8z"/>
			<path class="st2" d="M39.3,31.5c-1.2-0.6-2.1-1.5-2.8-2.6c-0.7-1.1-1-2.4-1-3.7c0-1.4,0.3-2.6,1-3.7s1.6-2,2.8-2.6
				c1.2-0.6,2.5-0.9,4-0.9c1.5,0,2.8,0.3,4,0.9c1.2,0.6,2.1,1.5,2.8,2.6s1,2.4,1,3.7c0,1.4-0.3,2.6-1,3.7c-0.7,1.1-1.6,2-2.8,2.6
				c-1.2,0.6-2.5,0.9-4,0.9C41.8,32.4,40.5,32.1,39.3,31.5z M44.9,28.2c0.5-0.3,0.8-0.7,1.1-1.2c0.3-0.5,0.4-1.1,0.4-1.8
				s-0.1-1.3-0.4-1.8c-0.3-0.5-0.7-0.9-1.1-1.2c-0.5-0.3-1-0.4-1.6-0.4c-0.6,0-1.1,0.1-1.6,0.4s-0.8,0.7-1.1,1.2
				c-0.3,0.5-0.4,1.1-0.4,1.8s0.1,1.3,0.4,1.8c0.3,0.5,0.7,0.9,1.1,1.2c0.5,0.3,1,0.4,1.6,0.4C43.9,28.6,44.4,28.5,44.9,28.2z"/>
			<path class="st2" d="M70,28.5v6.3h-4.3v-2.7h-7.9v2.7h-4.3v-6.3h0.4c0.8,0,1.4-0.5,1.7-1.5c0.3-1,0.5-2.5,0.6-4.5l0.2-4.2h11.7
				v10.3H70z M60,26.2c-0.2,0.9-0.4,1.7-0.7,2.2h4.3v-6.6h-3.2l0,1C60.3,24.2,60.2,25.3,60,26.2z"/>
			<path class="st2" d="M83.6,29.7h-5.3l-0.9,2.4h-4.8l6.1-13.9h4.6l6.1,13.9h-4.8L83.6,29.7z M82.3,26.3l-1.3-3.5l-1.3,3.5H82.3z"
				/>
			<path class="st2" d="M103.7,21.8h-4.1v10.3h-4.6V21.8H91v-3.6h12.7V21.8z"/>
			<path class="st2" d="M118.7,23.6c0.9,0.8,1.4,1.9,1.4,3.4c0,1.6-0.5,2.9-1.6,3.7c-1.1,0.9-2.5,1.3-4.4,1.3h-6.9V18.2h4.6v4.3h2.9
				C116.5,22.5,117.8,22.8,118.7,23.6z M115,28.4c0.3-0.3,0.5-0.7,0.5-1.2c0-0.9-0.5-1.4-1.6-1.4h-2v3.1h2
				C114.3,28.8,114.7,28.7,115,28.4z"/>
			<path class="st2" d="M142.7,26.2c0.4,0.6,0.6,1.2,0.6,2c0,0.9-0.3,1.6-0.9,2.3c-0.6,0.6-1.4,1.1-2.5,1.5c-1,0.3-2.2,0.5-3.5,0.5
				c-2,0-3.9-0.4-5.8-1.2l1.4-3.2c0.6,0.3,1.3,0.5,2,0.6c0.7,0.1,1.4,0.2,2,0.2c0.8,0,1.4-0.1,1.8-0.3c0.5-0.2,0.7-0.5,0.7-0.9
				c0-0.6-0.5-0.8-1.4-0.8h-3.7v-3.4h3.4c0.4,0,0.7-0.1,0.9-0.2c0.2-0.1,0.3-0.4,0.3-0.6c0-0.3-0.2-0.6-0.5-0.8s-0.8-0.3-1.4-0.3
				c-0.6,0-1.2,0.1-1.8,0.2c-0.6,0.2-1.3,0.4-1.8,0.7l-1.4-3.5c1.5-0.7,3.2-1.1,5-1.1c1.2,0,2.3,0.2,3.3,0.5c1,0.3,1.8,0.8,2.5,1.4
				s0.9,1.4,0.9,2.2c0,0.6-0.2,1.2-0.5,1.7c-0.3,0.5-0.8,0.9-1.3,1.2C141.7,25.2,142.3,25.6,142.7,26.2z"/>
			<path class="st2" d="M156.8,29.7h-5.3l-0.9,2.4h-4.8l6.1-13.9h4.6l6.1,13.9h-4.8L156.8,29.7z M155.5,26.3l-1.3-3.5l-1.3,3.5
				H155.5z"/>
			<path class="st2" d="M177.2,18.2v13.9h-4.6v-3.3h-1.2l-2.1,3.3h-4.9l2.7-4c-0.9-0.4-1.6-1-2.1-1.8c-0.5-0.8-0.7-1.7-0.7-2.7
				c0-1.1,0.3-2,0.8-2.9c0.5-0.8,1.3-1.4,2.2-1.9c1-0.4,2.1-0.7,3.4-0.7H177.2z M169,23.5c0,1.2,0.6,1.8,1.8,1.8h1.8v-3.5h-1.8
				C169.6,21.8,169,22.4,169,23.5z"/>
			<path class="st2" d="M194.1,26c0.4,0.5,0.6,1.2,0.6,2c0,1.2-0.5,2.2-1.5,2.9c-1,0.7-2.4,1.1-4.2,1.1h-7.4V18.2h7
				c1.7,0,3.1,0.3,4,1s1.4,1.5,1.4,2.7c0,0.7-0.2,1.2-0.5,1.7s-0.8,0.9-1.3,1.2C193.1,25.1,193.7,25.5,194.1,26z M186.3,23.5h2
				c0.8,0,1.2-0.3,1.2-1c0-0.7-0.4-1.1-1.2-1.1h-2V23.5z M190,27.7c0-0.7-0.4-1.1-1.2-1.1h-2.6v2.2h2.6
				C189.6,28.8,190,28.4,190,27.7z"/>
			<path class="st2" d="M208.1,24.9l4.1,7.1h-5.3l-2.7-5h-1.3v5h-4.7V18.2h4.7v5.2h1.4l3-5.2h4.9L208.1,24.9z"/>
			<path class="st2" d="M229.4,18.2l-5.6,10.5c-0.7,1.2-1.5,2.2-2.4,2.8c-1,0.6-2,1-3.2,1c-0.9,0-1.8-0.2-2.7-0.6l1.1-3.4
				c0.6,0.2,1.1,0.2,1.4,0.2c0.3,0,0.6-0.1,0.9-0.2c0.2-0.1,0.5-0.3,0.7-0.6l-5.3-9.8h4.9L222,24l2.9-5.9H229.4z"/>
		</g>
		<g class="st3">
			<path class="st4" d="M32.5,16.2V30h-4.6V19.8h-4.2V30h-4.6V16.2H32.5z"/>
			<path class="st4" d="M40,29.4c-1.2-0.6-2.1-1.5-2.8-2.6c-0.7-1.1-1-2.4-1-3.7c0-1.4,0.3-2.6,1-3.7s1.6-2,2.8-2.6
				c1.2-0.6,2.5-0.9,4-0.9c1.5,0,2.8,0.3,4,0.9c1.2,0.6,2.1,1.5,2.8,2.6s1,2.4,1,3.7c0,1.4-0.3,2.6-1,3.7c-0.7,1.1-1.6,2-2.8,2.6
				c-1.2,0.6-2.5,0.9-4,0.9C42.5,30.4,41.2,30,40,29.4z M45.6,26.1c0.5-0.3,0.8-0.7,1.1-1.2c0.3-0.5,0.4-1.1,0.4-1.8
				s-0.1-1.3-0.4-1.8c-0.3-0.5-0.7-0.9-1.1-1.2c-0.5-0.3-1-0.4-1.6-0.4c-0.6,0-1.1,0.1-1.6,0.4s-0.8,0.7-1.1,1.2
				c-0.3,0.5-0.4,1.1-0.4,1.8s0.1,1.3,0.4,1.8c0.3,0.5,0.7,0.9,1.1,1.2c0.5,0.3,1,0.4,1.6,0.4C44.6,26.6,45.1,26.4,45.6,26.1z"/>
			<path class="st4" d="M70.7,26.4v6.3h-4.3V30h-7.9v2.7h-4.3v-6.3h0.4c0.8,0,1.4-0.5,1.7-1.5c0.3-1,0.5-2.5,0.6-4.5l0.2-4.2h11.7
				v10.3H70.7z M60.7,24.2c-0.2,0.9-0.4,1.7-0.7,2.2h4.3v-6.6h-3.2l0,1C61,22.1,60.9,23.2,60.7,24.2z"/>
			<path class="st4" d="M84.2,27.6H79L78,30h-4.8l6.1-13.9h4.6L90,30h-4.8L84.2,27.6z M83,24.2l-1.3-3.5l-1.3,3.5H83z"/>
			<path class="st4" d="M104.4,19.8h-4.1V30h-4.6V19.8h-4.1v-3.6h12.7V19.8z"/>
			<path class="st4" d="M119.4,21.6c0.9,0.8,1.4,1.9,1.4,3.4c0,1.6-0.5,2.9-1.6,3.7c-1.1,0.9-2.5,1.3-4.4,1.3h-6.9V16.2h4.6v4.3h2.9
				C117.2,20.4,118.5,20.8,119.4,21.6z M115.7,26.3c0.3-0.3,0.5-0.7,0.5-1.2c0-0.9-0.5-1.4-1.6-1.4h-2v3.1h2
				C115,26.8,115.4,26.6,115.7,26.3z"/>
			<path class="st4" d="M143.4,24.2c0.4,0.6,0.6,1.2,0.6,2c0,0.9-0.3,1.6-0.9,2.3c-0.6,0.6-1.4,1.1-2.5,1.5c-1,0.3-2.2,0.5-3.5,0.5
				c-2,0-3.9-0.4-5.8-1.2l1.4-3.2c0.6,0.3,1.3,0.5,2,0.6c0.7,0.1,1.4,0.2,2,0.2c0.8,0,1.4-0.1,1.8-0.3c0.5-0.2,0.7-0.5,0.7-0.9
				c0-0.6-0.5-0.8-1.4-0.8h-3.7v-3.4h3.4c0.4,0,0.7-0.1,0.9-0.2c0.2-0.1,0.3-0.4,0.3-0.6c0-0.3-0.2-0.6-0.5-0.8s-0.8-0.3-1.4-0.3
				c-0.6,0-1.2,0.1-1.8,0.2c-0.6,0.2-1.3,0.4-1.8,0.7l-1.4-3.5c1.5-0.7,3.2-1.1,5-1.1c1.2,0,2.3,0.2,3.3,0.5c1,0.3,1.8,0.8,2.5,1.4
				s0.9,1.4,0.9,2.2c0,0.6-0.2,1.2-0.5,1.7c-0.3,0.5-0.8,0.9-1.3,1.2C142.4,23.1,143,23.6,143.4,24.2z"/>
			<path class="st4" d="M157.5,27.6h-5.3l-0.9,2.4h-4.8l6.1-13.9h4.6l6.1,13.9h-4.8L157.5,27.6z M156.2,24.2l-1.3-3.5l-1.3,3.5
				H156.2z"/>
			<path class="st4" d="M177.9,16.2V30h-4.6v-3.3H172l-2.1,3.3H165l2.7-4c-0.9-0.4-1.6-1-2.1-1.8c-0.5-0.8-0.7-1.7-0.7-2.7
				c0-1.1,0.3-2,0.8-2.9c0.5-0.8,1.3-1.4,2.2-1.9c1-0.4,2.1-0.7,3.4-0.7H177.9z M169.7,21.5c0,1.2,0.6,1.8,1.8,1.8h1.8v-3.5h-1.8
				C170.3,19.8,169.7,20.3,169.7,21.5z"/>
			<path class="st4" d="M194.8,24c0.4,0.5,0.6,1.2,0.6,2c0,1.2-0.5,2.2-1.5,2.9c-1,0.7-2.4,1.1-4.2,1.1h-7.4V16.2h7
				c1.7,0,3.1,0.3,4,1s1.4,1.5,1.4,2.7c0,0.7-0.2,1.2-0.5,1.7s-0.8,0.9-1.3,1.2C193.8,23,194.4,23.5,194.8,24z M186.9,21.5h2
				c0.8,0,1.2-0.3,1.2-1c0-0.7-0.4-1.1-1.2-1.1h-2V21.5z M190.7,25.7c0-0.7-0.4-1.1-1.2-1.1h-2.6v2.2h2.6
				C190.3,26.8,190.7,26.4,190.7,25.7z"/>
			<path class="st4" d="M208.8,22.9l4.1,7.1h-5.3l-2.7-5h-1.3v5h-4.7V16.2h4.7v5.2h1.4l3-5.2h4.9L208.8,22.9z"/>
			<path class="st4" d="M230.1,16.2l-5.6,10.5c-0.7,1.2-1.5,2.2-2.4,2.8c-1,0.6-2,1-3.2,1c-0.9,0-1.8-0.2-2.7-0.6l1.1-3.4
				c0.6,0.2,1.1,0.2,1.4,0.2c0.3,0,0.6-0.1,0.9-0.2c0.2-0.1,0.5-0.3,0.7-0.6l-5.3-9.8h4.9l2.8,5.9l2.9-5.9H230.1z"/>
		</g>
		<g>
			<linearGradient id="SVGID_1_" gradientUnits="userSpaceOnUse" x1="59.2061" y1="29.2819" x2="453.7669" y2="73.4999">
				<stop  offset="0" style="stop-color:#FF0D0D"/>
				<stop  offset="1" style="stop-color:#FFFFFF;stop-opacity:0"/>
			</linearGradient>
			<path class="st5" d="M218.6,48.9H21c-11.4,0-20.7-9.3-20.7-20.7v-6.6C0.3,10.2,9.5,1,21,1C21,1,229.4,48.9,218.6,48.9z"/>
		</g>
	</g>
	
		<radialGradient id="SVGID_2_" cx="226.6284" cy="-954.5045" r="88.0365" gradientTransform="matrix(0.8115 0 0 0.8 -61.082 767.6)" gradientUnits="userSpaceOnUse">
		<stop  offset="0" style="stop-color:#FFFFFF"/>
		<stop  offset="1" style="stop-color:#FFFFFF;stop-opacity:0"/>
	</radialGradient>
	<ellipse class="st6" cx="122.8" cy="4" rx="101" ry="1.4"/>
</g>
</svg>
