<?xml version="1.0" encoding="utf-8"?>
<!-- Generator: Adobe Illustrator 22.0.0, SVG Export Plug-In . SVG Version: 6.00 Build 0)  -->
<svg version="1.1" id="Layer_1" xmlns="http://www.w3.org/2000/svg" xmlns:xlink="http://www.w3.org/1999/xlink" x="0px" y="0px"
	 viewBox="0 0 205 64.3" style="enable-background:new 0 0 205 64.3;" xml:space="preserve">
<g>
	<g>
		<path style="fill:#9543FF;" d="M182.1,64.3H22.9C10.3,64.3,0,54,0,41.3V22.9C0,10.3,10.3,0,22.9,0h159.1
			C194.7,0,205,10.3,205,22.9v18.4C205,54,194.7,64.3,182.1,64.3z M22.9,2.8c-11.1,0-20.1,9-20.1,20.1v18.4c0,11.1,9,20.1,20.1,20.1
			h159.1c11.1,0,20.1-9,20.1-20.1V22.9c0-11.1-9-20.1-20.1-20.1H22.9z"/>
		<path style="opacity:0.23;fill:#9543FF;" d="M182.1,64.3H22.9C10.3,64.3,0,54,0,41.3V22.9C0,10.3,10.3,0,22.9,0h159.1
			C194.7,0,205,10.3,205,22.9v18.4C205,54,194.7,64.3,182.1,64.3z M22.9,2.8c-11.1,0-20.1,9-20.1,20.1v18.4c0,11.1,9,20.1,20.1,20.1
			h159.1c11.1,0,20.1-9,20.1-20.1V22.9c0-11.1-9-20.1-20.1-20.1H22.9z"/>
	</g>
</g>
<g>
	<path style="fill:#9543FF;" d="M51.5,31.9c0.6,0.8,0.9,1.7,0.9,2.8c0,1.6-0.6,2.8-1.8,3.6s-3,1.3-5.3,1.3H36V21.8h8.7
		c2.2,0,3.8,0.4,5,1.2c1.2,0.8,1.7,2,1.7,3.4c0,0.9-0.2,1.6-0.6,2.3c-0.4,0.7-1,1.2-1.7,1.6C50.1,30.6,50.9,31.2,51.5,31.9z
		 M40.1,24.9v4.2h4.1c1,0,1.8-0.2,2.3-0.5c0.5-0.4,0.8-0.9,0.8-1.6s-0.3-1.2-0.8-1.6c-0.5-0.3-1.3-0.5-2.3-0.5H40.1z M47.4,35.9
		c0.6-0.4,0.8-0.9,0.8-1.7c0-1.5-1.1-2.2-3.3-2.2h-4.8v4.4H45C46,36.5,46.9,36.3,47.4,35.9z"/>
	<path style="fill:#9543FF;" d="M71.1,33.9H60.7c0.2,0.8,0.6,1.5,1.3,2c0.7,0.5,1.6,0.7,2.6,0.7c0.7,0,1.3-0.1,1.9-0.3
		s1.1-0.5,1.5-1l2.1,2.3c-1.3,1.5-3.2,2.2-5.6,2.2c-1.5,0-2.9-0.3-4.1-0.9s-2.1-1.4-2.7-2.5c-0.6-1.1-1-2.3-1-3.6
		c0-1.3,0.3-2.5,1-3.6c0.6-1.1,1.5-1.9,2.6-2.5c1.1-0.6,2.4-0.9,3.7-0.9c1.3,0,2.6,0.3,3.6,0.9c1.1,0.6,1.9,1.4,2.6,2.5
		c0.6,1.1,0.9,2.3,0.9,3.8C71.2,32.8,71.1,33.2,71.1,33.9z M61.8,29.5c-0.6,0.5-1,1.2-1.1,2.1h6.7c-0.1-0.9-0.5-1.6-1.1-2.1
		c-0.6-0.5-1.4-0.8-2.2-0.8C63.2,28.7,62.4,28.9,61.8,29.5z"/>
	<path style="fill:#9543FF;" d="M90.5,25.9v11.4c0,2.5-0.7,4.4-2,5.6s-3.2,1.8-5.7,1.8c-1.3,0-2.6-0.2-3.8-0.5s-2.2-0.8-3-1.4
		l1.6-2.8c0.6,0.5,1.3,0.9,2.2,1.1c0.9,0.3,1.8,0.4,2.6,0.4c1.4,0,2.4-0.3,3-0.9c0.7-0.6,1-1.6,1-2.8v-0.6c-1,1.1-2.5,1.7-4.3,1.7
		c-1.3,0-2.4-0.3-3.4-0.8c-1-0.6-1.9-1.3-2.5-2.3s-0.9-2.2-0.9-3.5c0-1.3,0.3-2.5,0.9-3.5s1.4-1.8,2.5-2.3c1-0.6,2.2-0.8,3.4-0.8
		c2,0,3.5,0.7,4.5,2v-1.8H90.5z M85.6,34.7c0.7-0.6,1-1.4,1-2.4c0-1-0.3-1.8-1-2.4c-0.7-0.6-1.5-0.9-2.6-0.9c-1.1,0-1.9,0.3-2.6,0.9
		c-0.7,0.6-1,1.4-1,2.4c0,1,0.3,1.8,1,2.4c0.7,0.6,1.5,0.9,2.6,0.9C84,35.7,84.9,35.4,85.6,34.7z"/>
	<path style="fill:#9543FF;" d="M96.9,23.4c-0.5-0.4-0.7-0.9-0.7-1.6s0.2-1.2,0.7-1.6c0.5-0.4,1.1-0.6,1.8-0.6
		c0.7,0,1.3,0.2,1.8,0.6s0.7,0.9,0.7,1.5c0,0.7-0.2,1.2-0.7,1.6S99.4,24,98.7,24C98,24,97.4,23.8,96.9,23.4z M96.7,25.9h4v13.7h-4
		V25.9z"/>
	<path style="fill:#9543FF;" d="M119.3,27.2c1,1,1.6,2.5,1.6,4.5v7.8h-4v-7.2c0-1.1-0.2-1.9-0.7-2.4c-0.5-0.5-1.2-0.8-2.1-0.8
		c-1,0-1.8,0.3-2.4,0.9c-0.6,0.6-0.9,1.5-0.9,2.8v6.8h-4V25.9h3.8v1.6c0.5-0.6,1.2-1,2-1.3c0.8-0.3,1.6-0.5,2.6-0.5
		C116.9,25.7,118.3,26.2,119.3,27.2z"/>
	<path style="fill:#9543FF;" d="M139.4,27.2c1,1,1.6,2.5,1.6,4.5v7.8h-4v-7.2c0-1.1-0.2-1.9-0.7-2.4c-0.5-0.5-1.2-0.8-2.1-0.8
		c-1,0-1.8,0.3-2.4,0.9c-0.6,0.6-0.9,1.5-0.9,2.8v6.8h-4V25.9h3.8v1.6c0.5-0.6,1.2-1,2-1.3c0.8-0.3,1.6-0.5,2.6-0.5
		C137,25.7,138.4,26.2,139.4,27.2z"/>
	<path style="fill:#9543FF;" d="M160.6,33.9h-10.3c0.2,0.8,0.6,1.5,1.3,2c0.7,0.5,1.6,0.7,2.6,0.7c0.7,0,1.3-0.1,1.9-0.3
		s1.1-0.5,1.5-1l2.1,2.3c-1.3,1.5-3.2,2.2-5.6,2.2c-1.5,0-2.9-0.3-4.1-0.9s-2.1-1.4-2.7-2.5c-0.6-1.1-1-2.3-1-3.6
		c0-1.3,0.3-2.5,1-3.6c0.6-1.1,1.5-1.9,2.6-2.5c1.1-0.6,2.4-0.9,3.7-0.9c1.3,0,2.6,0.3,3.6,0.9c1.1,0.6,1.9,1.4,2.6,2.5
		c0.6,1.1,0.9,2.3,0.9,3.8C160.7,32.8,160.7,33.2,160.6,33.9z M151.3,29.5c-0.6,0.5-1,1.2-1.1,2.1h6.7c-0.1-0.9-0.5-1.6-1.1-2.1
		c-0.6-0.5-1.4-0.8-2.2-0.8C152.7,28.7,151.9,28.9,151.3,29.5z"/>
	<path style="fill:#9543FF;" d="M171.6,26.2c0.8-0.3,1.7-0.5,2.8-0.5v3.7c-0.4,0-0.7-0.1-0.9-0.1c-1.1,0-2,0.3-2.7,1
		c-0.6,0.6-1,1.6-1,2.9v6.5h-4V25.9h3.8v1.8C170.1,27,170.8,26.5,171.6,26.2z"/>
</g>
</svg>
