<?xml version="1.0" encoding="utf-8"?>
<!-- Generator: Adobe Illustrator 22.0.0, SVG Export Plug-In . SVG Version: 6.00 Build 0)  -->
<svg version="1.1" id="Layer_1" xmlns="http://www.w3.org/2000/svg" xmlns:xlink="http://www.w3.org/1999/xlink" x="0px" y="0px"
	 viewBox="0 0 39.6 39.6" style="enable-background:new 0 0 39.6 39.6;" xml:space="preserve">
<linearGradient id="SVGID_1_" gradientUnits="userSpaceOnUse" x1="1.2244" y1="36.6687" x2="38.3976" y2="2.9535">
	<stop  offset="0" style="stop-color:#9543FF"/>
	<stop  offset="1" style="stop-color:#9543FF"/>
</linearGradient>
<path style="fill:url(#SVGID_1_);" d="M32.6,39.6H7c-3.9,0-7-3.1-7-7V7c0-3.9,3.1-7,7-7h25.6c3.9,0,7,3.1,7,7v25.6
	C39.6,36.5,36.5,39.6,32.6,39.6z M7,2.8C4.7,2.8,2.8,4.7,2.8,7v25.6c0,2.3,1.9,4.2,4.2,4.2h25.6c2.3,0,4.2-1.9,4.2-4.2V7
	c0-2.3-1.9-4.2-4.2-4.2H7z"/>
<g>
	<g>
		<path style="fill:#9543FF;" d="M28.7,11.7c-0.9-0.7-2.3-0.4-3,0.5l-7.8,10c0,0,0,0,0,0l-2.8-2c-0.9-0.7-2.3-0.6-3,0.3
			c-0.8,0.9-0.6,2.3,0.4,3l4.6,3.3c0.3,0.2,0.6,0.3,0.9,0.4c0.7,0.1,1.5-0.2,2-0.8l9.2-11.8C29.9,13.8,29.7,12.4,28.7,11.7z"/>
	</g>
</g>
</svg>
