<?xml version="1.0" encoding="utf-8"?>
<!-- Generator: Adobe Illustrator 22.0.0, SVG Export Plug-In . SVG Version: 6.00 Build 0)  -->
<svg version="1.1" id="Layer_1" xmlns="http://www.w3.org/2000/svg" xmlns:xlink="http://www.w3.org/1999/xlink" x="0px" y="0px"
	 viewBox="0 0 32.6 32.6" style="enable-background:new 0 0 32.6 32.6;" xml:space="preserve">
<g>
	<path style="fill:#FFA002;" d="M29.2,8.6c-0.7,0.3-1,1.1-0.6,1.8c0.9,1.8,1.3,3.8,1.3,5.9c0,7.5-6.1,13.6-13.6,13.6
		S2.7,23.8,2.7,16.3S8.8,2.7,16.3,2.7c3.1,0,6,1,8.4,2.9c0.6,0.5,1.4,0.4,1.9-0.2C27.1,4.8,27,4,26.4,3.5C23.6,1.3,20,0,16.3,0
		C7.3,0,0,7.3,0,16.3s7.3,16.3,16.3,16.3s16.3-7.3,16.3-16.3c0-2.5-0.5-4.9-1.6-7.1C30.7,8.5,29.9,8.3,29.2,8.6z"/>
	<path style="fill:#FFA002;" d="M16.3,5.4C15.6,5.4,15,6,15,6.8v9.5c0,0.8,0.6,1.4,1.4,1.4h6.8c0.8,0,1.4-0.6,1.4-1.4
		S23.9,15,23.1,15h-5.4V6.8C17.7,6,17.1,5.4,16.3,5.4z"/>
</g>
</svg>
