<?xml version="1.0" encoding="utf-8"?>
<!-- Generator: Adobe Illustrator 22.0.0, SVG Export Plug-In . SVG Version: 6.00 Build 0)  -->
<svg version="1.1" id="Layer_1" xmlns="http://www.w3.org/2000/svg" xmlns:xlink="http://www.w3.org/1999/xlink" x="0px" y="0px"
	 viewBox="0 0 545 57.6" style="enable-background:new 0 0 545 57.6;" xml:space="preserve">
<g>
	<g>
		<g style="opacity:0.19;">
			<path style="fill:#FFA002;" d="M31.9,0v34.5h-8.1v-28H8.1v28H0V0H31.9z"/>
			<path style="fill:#FFA002;" d="M67.7,9.3c2.1,1.1,3.7,2.7,4.8,4.8c1.2,2.1,1.8,4.4,1.8,7.2s-0.6,5.1-1.8,7.2
				c-1.2,2.1-2.8,3.6-4.8,4.8c-2.1,1.1-4.3,1.7-6.8,1.7c-3.4,0-6.1-1.1-8.1-3.2v12.4H45V8h7.5V11c1.9-2.3,4.8-3.5,8.5-3.5
				C63.4,7.6,65.7,8.2,67.7,9.3z M64.5,26.6c1.3-1.3,1.9-3.1,1.9-5.3s-0.6-4-1.9-5.3c-1.3-1.3-2.9-2-4.9-2c-2,0-3.6,0.7-4.9,2
				c-1.3,1.3-1.9,3.1-1.9,5.3s0.6,4,1.9,5.3s2.9,2,4.9,2C61.5,28.6,63.2,27.9,64.5,26.6z"/>
			<path style="fill:#FFA002;" d="M84.7,8h7.8v15.8L105.6,8h7.2v26.5H105V18.7L91.9,34.5h-7.2V8z"/>
			<path style="fill:#FFA002;" d="M130.3,33.1c-2.3-1.2-4.1-2.8-5.4-4.9c-1.3-2.1-1.9-4.4-1.9-7s0.6-5,1.9-7
				c1.3-2.1,3.1-3.7,5.4-4.9c2.3-1.2,4.9-1.7,7.7-1.7c2.8,0,5.3,0.6,7.4,1.7c2.1,1.2,3.7,2.8,4.6,5l-6.1,3.2
				c-1.4-2.4-3.4-3.6-6.1-3.6c-2,0-3.7,0.7-5.1,2c-1.3,1.3-2,3.1-2,5.4c0,2.3,0.7,4.1,2,5.4c1.3,1.3,3,2,5.1,2
				c2.7,0,4.7-1.2,6.1-3.6l6.1,3.3c-1,2.1-2.5,3.7-4.6,4.9c-2.1,1.2-4.6,1.8-7.4,1.8C135.2,34.9,132.6,34.3,130.3,33.1z"/>
			<path style="fill:#FFA002;" d="M164.5,33.1c-2.3-1.2-4-2.8-5.3-4.9s-1.9-4.4-1.9-7s0.6-5,1.9-7s3-3.7,5.3-4.9
				c2.3-1.2,4.8-1.7,7.6-1.7c2.8,0,5.4,0.6,7.6,1.7c2.2,1.2,4,2.8,5.3,4.9c1.3,2.1,1.9,4.4,1.9,7s-0.6,5-1.9,7
				c-1.3,2.1-3,3.7-5.3,4.9c-2.2,1.2-4.8,1.8-7.6,1.8C169.3,34.9,166.7,34.3,164.5,33.1z M177,26.6c1.3-1.3,1.9-3.1,1.9-5.3
				s-0.6-4-1.9-5.3c-1.3-1.3-2.9-2-4.9-2s-3.7,0.7-5,2c-1.3,1.3-2,3.1-2,5.3s0.7,4,2,5.3c1.3,1.3,3,2,5,2S175.8,27.9,177,26.6z"/>
			<path style="fill:#FFA002;" d="M223.2,23.4h-20.4c0.4,1.6,1.2,2.9,2.6,3.9c1.4,1,3.1,1.4,5.1,1.4c1.4,0,2.6-0.2,3.7-0.6
				c1.1-0.4,2.1-1.1,3-1.9l4.2,4.4c-2.5,2.9-6.2,4.3-11.1,4.3c-3,0-5.7-0.6-8.1-1.8c-2.3-1.2-4.1-2.8-5.4-4.9s-1.9-4.4-1.9-7
				c0-2.6,0.6-4.9,1.9-7c1.3-2.1,3-3.7,5.2-4.9c2.2-1.2,4.6-1.7,7.3-1.7c2.6,0,5,0.6,7.2,1.7c2.1,1.1,3.8,2.7,5,4.8
				c1.2,2.1,1.8,4.5,1.8,7.3C223.4,21.4,223.3,22.1,223.2,23.4z M205,14.9c-1.2,1-1.9,2.3-2.2,4H216c-0.3-1.7-1-3-2.2-4
				c-1.2-1-2.7-1.5-4.4-1.5C207.7,13.4,206.2,13.9,205,14.9z"/>
			<path style="fill:#FFA002;" d="M264.3,28.2v12h-7.3v-5.7h-18.9v5.7h-7.3v-12h1.1c1.7,0,2.8-1,3.5-2.9c0.6-1.9,1-4.6,1.2-8.1
				L237,8h23.5v20.2H264.3z M243.1,24.3c-0.3,1.7-0.9,3-1.8,3.9h11.4V14.3h-8.8l-0.1,3.4C243.6,20.4,243.4,22.6,243.1,24.3z"/>
			<path style="fill:#FFA002;" d="M274.2,8h7.8v15.8L295.1,8h7.2v26.5h-7.8V18.7l-13.1,15.8h-7.2V8z"/>
			<path style="fill:#FFA002;" d="M314.7,8h7.8v10.4h11.7V8h7.8v26.5h-7.8v-9.9h-11.7v9.9h-7.8V8z"/>
			<path style="fill:#FFA002;" d="M354.4,8h7.8v15.8L375.3,8h7.2v26.5h-7.8V18.7l-13.1,15.8h-7.2V8z"/>
			<path style="fill:#FFA002;" d="M417.6,14.3h-9.1v20.2h-7.8V14.3h-9.1V8h26V14.3z"/>
			<path style="fill:#FFA002;" d="M449.3,18.8c1.9,1.5,2.8,3.7,2.8,6.5c0,2.9-1,5.2-3.1,6.8s-5,2.4-8.8,2.4l-13.5,0V8h7.8v8.5h6.8
				C444.8,16.5,447.5,17.3,449.3,18.8z M443,28.1c0.8-0.7,1.2-1.6,1.2-3c0-1.3-0.4-2.2-1.2-2.8c-0.8-0.6-1.9-0.9-3.5-0.9l-5.1,0v7.7
				h5.1C441,29.1,442.2,28.8,443,28.1z"/>
			<path style="fill:#FFA002;" d="M467.1,33.1c-2.3-1.2-4.1-2.8-5.4-4.9c-1.3-2.1-1.9-4.4-1.9-7s0.6-5,1.9-7
				c1.3-2.1,3.1-3.7,5.4-4.9c2.3-1.2,4.9-1.7,7.7-1.7c2.8,0,5.3,0.6,7.4,1.7c2.1,1.2,3.7,2.8,4.6,5l-6.1,3.2
				c-1.4-2.4-3.4-3.6-6.1-3.6c-2,0-3.7,0.7-5.1,2c-1.3,1.3-2,3.1-2,5.4c0,2.3,0.7,4.1,2,5.4c1.3,1.3,3,2,5.1,2
				c2.7,0,4.7-1.2,6.1-3.6l6.1,3.3c-1,2.1-2.5,3.7-4.6,4.9c-2.1,1.2-4.6,1.8-7.4,1.8C471.9,34.9,469.3,34.3,467.1,33.1z"/>
			<path style="fill:#FFA002;" d="M519.8,8v26.5h-7v-7.6h-5.8l-5.1,7.6h-8.3l6.2-8.7c-1.9-0.7-3.3-1.8-4.3-3.1c-1-1.4-1.5-3-1.5-5
				c0-3.1,1.1-5.5,3.4-7.2S503,8,507,8H519.8z M503.3,15.1c-0.9,0.6-1.3,1.5-1.3,2.9c0,1.3,0.4,2.3,1.2,2.9c0.8,0.6,2.1,0.9,3.7,0.9
				h5.9v-7.5h-5.8C505.4,14.2,504.2,14.5,503.3,15.1z"/>
		</g>
		<g>
			<path style="fill:#FFA002;" d="M57.1,13.5V48h-8.1V20H33.3v28h-8.1V13.5H57.1z"/>
			<path style="fill:#FFA002;" d="M92.9,22.8c2.1,1.1,3.7,2.7,4.8,4.8c1.2,2.1,1.8,4.4,1.8,7.2s-0.6,5.1-1.8,7.2
				c-1.2,2.1-2.8,3.6-4.8,4.8c-2.1,1.1-4.3,1.7-6.8,1.7c-3.4,0-6.1-1.1-8.1-3.2v12.4h-7.8V21.5h7.5v3.1c1.9-2.3,4.8-3.5,8.5-3.5
				C88.6,21.1,90.9,21.7,92.9,22.8z M89.7,40.1c1.3-1.3,1.9-3.1,1.9-5.3s-0.6-4-1.9-5.3c-1.3-1.3-2.9-2-4.9-2c-2,0-3.6,0.7-4.9,2
				c-1.3,1.3-1.9,3.1-1.9,5.3s0.6,4,1.9,5.3s2.9,2,4.9,2C86.8,42.1,88.4,41.5,89.7,40.1z"/>
			<path style="fill:#FFA002;" d="M110,21.5h7.8v15.8l13.1-15.8h7.2V48h-7.8V32.3L117.2,48H110V21.5z"/>
			<path style="fill:#FFA002;" d="M155.6,46.7c-2.3-1.2-4.1-2.8-5.4-4.9c-1.3-2.1-1.9-4.4-1.9-7s0.6-5,1.9-7
				c1.3-2.1,3.1-3.7,5.4-4.9c2.3-1.2,4.9-1.7,7.7-1.7c2.8,0,5.3,0.6,7.4,1.7c2.1,1.2,3.7,2.8,4.6,5l-6.1,3.2
				c-1.4-2.4-3.4-3.6-6.1-3.6c-2,0-3.7,0.7-5.1,2c-1.3,1.3-2,3.1-2,5.4c0,2.3,0.7,4.1,2,5.4c1.3,1.3,3,2,5.1,2
				c2.7,0,4.7-1.2,6.1-3.6l6.1,3.3c-1,2.1-2.5,3.7-4.6,4.9c-2.1,1.2-4.6,1.8-7.4,1.8C160.4,48.4,157.8,47.8,155.6,46.7z"/>
			<path style="fill:#FFA002;" d="M189.7,46.7c-2.3-1.2-4-2.8-5.3-4.9s-1.9-4.4-1.9-7s0.6-5,1.9-7s3-3.7,5.3-4.9
				c2.3-1.2,4.8-1.7,7.6-1.7c2.8,0,5.4,0.6,7.6,1.7c2.2,1.2,4,2.8,5.3,4.9c1.3,2.1,1.9,4.4,1.9,7s-0.6,5-1.9,7
				c-1.3,2.1-3,3.7-5.3,4.9c-2.2,1.2-4.8,1.8-7.6,1.8C194.5,48.4,192,47.8,189.7,46.7z M202.3,40.1c1.3-1.3,1.9-3.1,1.9-5.3
				s-0.6-4-1.9-5.3c-1.3-1.3-2.9-2-4.9-2s-3.7,0.7-5,2c-1.3,1.3-2,3.1-2,5.3s0.7,4,2,5.3c1.3,1.3,3,2,5,2S201,41.5,202.3,40.1z"/>
			<path style="fill:#FFA002;" d="M248.5,36.9h-20.4c0.4,1.6,1.2,2.9,2.6,3.9c1.4,1,3.1,1.4,5.1,1.4c1.4,0,2.6-0.2,3.7-0.6
				c1.1-0.4,2.1-1.1,3-1.9l4.2,4.4c-2.5,2.9-6.2,4.3-11.1,4.3c-3,0-5.7-0.6-8.1-1.8c-2.3-1.2-4.1-2.8-5.4-4.9s-1.9-4.4-1.9-7
				c0-2.6,0.6-4.9,1.9-7c1.3-2.1,3-3.7,5.2-4.9c2.2-1.2,4.6-1.7,7.3-1.7c2.6,0,5,0.6,7.2,1.7c2.1,1.1,3.8,2.7,5,4.8
				c1.2,2.1,1.8,4.5,1.8,7.3C248.6,35,248.6,35.7,248.5,36.9z M230.2,28.4c-1.2,1-1.9,2.3-2.2,4h13.3c-0.3-1.7-1-3-2.2-4
				c-1.2-1-2.7-1.5-4.4-1.5C232.9,26.9,231.4,27.4,230.2,28.4z"/>
			<path style="fill:#FFA002;" d="M289.5,41.7v12h-7.3V48h-18.9v5.7h-7.3v-12h1.1c1.7,0,2.8-1,3.5-2.9c0.6-1.9,1-4.6,1.2-8.1
				l0.3-9.2h23.5v20.2H289.5z M268.3,37.8c-0.3,1.7-0.9,3-1.8,3.9h11.4V27.8h-8.8l-0.1,3.4C268.8,33.9,268.6,36.1,268.3,37.8z"/>
			<path style="fill:#FFA002;" d="M299.4,21.5h7.8v15.8l13.1-15.8h7.2V48h-7.8V32.3L306.6,48h-7.2V21.5z"/>
			<path style="fill:#FFA002;" d="M340,21.5h7.8v10.4h11.7V21.5h7.8V48h-7.8v-9.9h-11.7V48H340V21.5z"/>
			<path style="fill:#FFA002;" d="M379.7,21.5h7.8v15.8l13.1-15.8h7.2V48h-7.8V32.3L386.9,48h-7.2V21.5z"/>
			<path style="fill:#FFA002;" d="M442.8,27.8h-9.1V48h-7.8V27.8h-9.1v-6.3h26V27.8z"/>
			<path style="fill:#FFA002;" d="M474.6,32.3c1.9,1.5,2.8,3.7,2.8,6.5c0,2.9-1,5.2-3.1,6.8s-5,2.4-8.8,2.4L452,48V21.5h7.8V30h6.8
				C470,30,472.7,30.8,474.6,32.3z M468.2,41.7c0.8-0.7,1.2-1.6,1.2-3c0-1.3-0.4-2.2-1.2-2.8c-0.8-0.6-1.9-0.9-3.5-0.9l-5.1,0v7.7
				h5.1C466.3,42.6,467.4,42.3,468.2,41.7z"/>
			<path style="fill:#FFA002;" d="M492.3,46.7c-2.3-1.2-4.1-2.8-5.4-4.9c-1.3-2.1-1.9-4.4-1.9-7s0.6-5,1.9-7
				c1.3-2.1,3.1-3.7,5.4-4.9c2.3-1.2,4.9-1.7,7.7-1.7c2.8,0,5.3,0.6,7.4,1.7c2.1,1.2,3.7,2.8,4.6,5l-6.1,3.2
				c-1.4-2.4-3.4-3.6-6.1-3.6c-2,0-3.7,0.7-5.1,2c-1.3,1.3-2,3.1-2,5.4c0,2.3,0.7,4.1,2,5.4c1.3,1.3,3,2,5.1,2
				c2.7,0,4.7-1.2,6.1-3.6l6.1,3.3c-1,2.1-2.5,3.7-4.6,4.9c-2.1,1.2-4.6,1.8-7.4,1.8C497.2,48.4,494.6,47.8,492.3,46.7z"/>
			<path style="fill:#FFA002;" d="M545,21.5V48h-7v-7.6h-5.8l-5.1,7.6h-8.3l6.2-8.7c-1.9-0.7-3.3-1.8-4.3-3.1c-1-1.4-1.5-3-1.5-5
				c0-3.1,1.1-5.5,3.4-7.2s5.4-2.5,9.4-2.5H545z M528.6,28.7c-0.9,0.6-1.3,1.5-1.3,2.9c0,1.3,0.4,2.3,1.2,2.9
				c0.8,0.6,2.1,0.9,3.7,0.9h5.9v-7.5h-5.8C530.7,27.8,529.4,28.1,528.6,28.7z"/>
		</g>
	</g>
</g>
</svg>
