<?xml version="1.0" encoding="utf-8"?>
<!-- Generator: Adobe Illustrator 22.0.0, SVG Export Plug-In . SVG Version: 6.00 Build 0)  -->
<svg version="1.1" id="Layer_1" xmlns="http://www.w3.org/2000/svg" xmlns:xlink="http://www.w3.org/1999/xlink" x="0px" y="0px"
	 viewBox="0 0 205 64.3" style="enable-background:new 0 0 205 64.3;" xml:space="preserve">
<g>
	<g>
		<path style="fill:#FFC50B;" d="M182.1,64.3H22.9C10.3,64.3,0,54,0,41.4V22.9C0,10.3,10.3,0,22.9,0h159.1
			C194.7,0,205,10.3,205,22.9v18.4C205,54,194.7,64.3,182.1,64.3z M22.9,2.8c-11.1,0-20.1,9-20.1,20.1v18.4c0,11.1,9,20.1,20.1,20.1
			h159.1c11.1,0,20.1-9,20.1-20.1V22.9c0-11.1-9-20.1-20.1-20.1H22.9z"/>
		<path style="opacity:0.23;fill:#FFC50B;" d="M182.1,64.3H22.9C10.3,64.3,0,54,0,41.4V22.9C0,10.3,10.3,0,22.9,0h159.1
			C194.7,0,205,10.3,205,22.9v18.4C205,54,194.7,64.3,182.1,64.3z M22.9,2.8c-11.1,0-20.1,9-20.1,20.1v18.4c0,11.1,9,20.1,20.1,20.1
			h159.1c11.1,0,20.1-9,20.1-20.1V22.9c0-11.1-9-20.1-20.1-20.1H22.9z"/>
	</g>
</g>
<g>
	<path style="fill:#FFC50B;" d="M68.4,42.1l0-10.7l-5.2,8.8h-1.9l-5.2-8.6v10.5h-3.9V24.3h3.4l6.7,11.1l6.6-11.1h3.4l0.1,17.8H68.4z
		"/>
	<path style="fill:#FFC50B;" d="M79,25.8c-0.5-0.4-0.7-0.9-0.7-1.6s0.2-1.2,0.7-1.6c0.5-0.4,1.1-0.6,1.8-0.6c0.7,0,1.3,0.2,1.8,0.6
		c0.5,0.4,0.7,0.9,0.7,1.5c0,0.7-0.2,1.2-0.7,1.6c-0.5,0.4-1.1,0.6-1.8,0.6C80,26.5,79.4,26.3,79,25.8z M78.7,28.4h4v13.7h-4V28.4z"
		/>
	<path style="fill:#FFC50B;" d="M102.9,23.2v18.9h-3.8v-1.6c-1,1.2-2.4,1.8-4.3,1.8c-1.3,0-2.5-0.3-3.5-0.9s-1.9-1.4-2.5-2.5
		c-0.6-1.1-0.9-2.3-0.9-3.7s0.3-2.6,0.9-3.7c0.6-1.1,1.4-1.9,2.5-2.5c1-0.6,2.2-0.9,3.5-0.9c1.7,0,3.1,0.6,4.1,1.7v-6.6H102.9z
		 M98,38c0.7-0.7,1-1.6,1-2.8c0-1.2-0.3-2.1-1-2.8s-1.5-1-2.5-1c-1,0-1.9,0.3-2.5,1s-1,1.6-1,2.8c0,1.2,0.3,2.1,1,2.8
		c0.7,0.7,1.5,1,2.5,1C96.5,39,97.3,38.7,98,38z"/>
	<path style="fill:#FFC50B;" d="M123,23.2v18.9h-3.8v-1.6c-1,1.2-2.4,1.8-4.3,1.8c-1.3,0-2.5-0.3-3.5-0.9s-1.9-1.4-2.5-2.5
		c-0.6-1.1-0.9-2.3-0.9-3.7s0.3-2.6,0.9-3.7c0.6-1.1,1.4-1.9,2.5-2.5c1-0.6,2.2-0.9,3.5-0.9c1.7,0,3.1,0.6,4.1,1.7v-6.6H123z
		 M118.1,38c0.7-0.7,1-1.6,1-2.8c0-1.2-0.3-2.1-1-2.8c-0.7-0.7-1.5-1-2.5-1c-1,0-1.9,0.3-2.5,1c-0.7,0.7-1,1.6-1,2.8
		c0,1.2,0.3,2.1,1,2.8c0.7,0.7,1.5,1,2.5,1C116.6,39,117.5,38.7,118.1,38z"/>
	<path style="fill:#FFC50B;" d="M129.2,23.2h4v18.9h-4V23.2z"/>
	<path style="fill:#FFC50B;" d="M152.7,36.3h-10.3c0.2,0.8,0.6,1.5,1.3,2c0.7,0.5,1.6,0.7,2.6,0.7c0.7,0,1.3-0.1,1.9-0.3
		s1.1-0.5,1.5-1l2.1,2.3c-1.3,1.5-3.2,2.2-5.6,2.2c-1.5,0-2.9-0.3-4.1-0.9s-2.1-1.4-2.7-2.5c-0.6-1.1-1-2.3-1-3.6
		c0-1.3,0.3-2.5,1-3.6c0.6-1.1,1.5-1.9,2.6-2.5c1.1-0.6,2.4-0.9,3.7-0.9c1.3,0,2.6,0.3,3.6,0.9c1.1,0.6,1.9,1.4,2.6,2.5
		c0.6,1.1,0.9,2.3,0.9,3.8C152.8,35.3,152.8,35.7,152.7,36.3z M143.5,31.9c-0.6,0.5-1,1.2-1.1,2.1h6.7c-0.1-0.9-0.5-1.6-1.1-2.1
		c-0.6-0.5-1.4-0.8-2.2-0.8C144.8,31.2,144.1,31.4,143.5,31.9z"/>
</g>
</svg>
