<?xml version="1.0" encoding="utf-8"?>
<!-- Generator: Adobe Illustrator 22.0.0, SVG Export Plug-In . SVG Version: 6.00 Build 0)  -->
<svg version="1.1" id="Layer_1" xmlns="http://www.w3.org/2000/svg" xmlns:xlink="http://www.w3.org/1999/xlink" x="0px" y="0px"
	 viewBox="0 0 70.3 70.3" style="enable-background:new 0 0 70.3 70.3;" xml:space="preserve">
<path style="fill:#FFA002;" d="M63,70.3H7.3c-4,0-7.3-3.3-7.3-7.3V7.3C0,3.3,3.3,0,7.3,0H63c4,0,7.3,3.3,7.3,7.3V63
	C70.3,67.1,67.1,70.3,63,70.3z M7.3,2.8c-2.5,0-4.5,2-4.5,4.5V63c0,2.5,2,4.5,4.5,4.5H63c2.5,0,4.5-2,4.5-4.5V7.3
	c0-2.5-2-4.5-4.5-4.5H7.3z"/>
</svg>
