<?xml version="1.0" encoding="utf-8"?>
<!-- Generator: Adobe Illustrator 22.0.0, SVG Export Plug-In . SVG Version: 6.00 Build 0)  -->
<svg version="1.1" id="Layer_1" xmlns="http://www.w3.org/2000/svg" xmlns:xlink="http://www.w3.org/1999/xlink" x="0px" y="0px"
	 viewBox="0 0 33 31.7" style="enable-background:new 0 0 33 31.7;" xml:space="preserve">
<path style="fill:#FFA002;" d="M19.4,1.8L22,7.1c0.5,0.9,1.4,1.6,2.4,1.7l5.8,0.9c2.6,0.4,3.7,3.6,1.8,5.5l-4.2,4.1
	c-0.8,0.7-1.1,1.8-0.9,2.8l1,5.8c0.4,2.6-2.3,4.6-4.6,3.4L18,28.5c-0.9-0.5-2-0.5-3,0l-5.2,2.8c-2.3,1.2-5.1-0.8-4.6-3.4l1-5.8
	c0.2-1-0.2-2.1-0.9-2.8L1,15.1c-1.9-1.9-0.9-5.1,1.8-5.5l5.8-0.9c1-0.2,1.9-0.8,2.4-1.7l2.6-5.3C14.8-0.6,18.2-0.6,19.4,1.8z"/>
</svg>
