<?xml version="1.0" encoding="utf-8"?>
<!-- Generator: Adobe Illustrator 22.0.0, SVG Export Plug-In . SVG Version: 6.00 Build 0)  -->
<svg version="1.1" id="Layer_1" xmlns="http://www.w3.org/2000/svg" xmlns:xlink="http://www.w3.org/1999/xlink" x="0px" y="0px"
	 viewBox="0 0 45.8 45.8" style="enable-background:new 0 0 45.8 45.8;" xml:space="preserve">
<g>
	<g>
		<path style="fill:#9543FF;" d="M44.9,9.2L23.3,0.1c-0.3-0.1-0.6-0.1-0.9,0L0.9,9.2C0.4,9.4,0,10,0,10.7c0,0.7,0.4,1.3,0.9,1.5
			l21.6,9.2c0.1,0.1,0.3,0.1,0.4,0.1c0.2,0,0.3,0,0.4-0.1l21.6-9.2c0.5-0.2,0.9-0.8,0.9-1.5C45.8,10,45.4,9.4,44.9,9.2z"/>
		<path style="fill:#9543FF;" d="M42.6,30.7v-14l-2.7,1.1v12.9c-0.8,0.6-1.4,1.6-1.4,2.8c0,1.2,0.5,2.2,1.4,2.8v7.9
			c0,0.9,0.6,1.6,1.3,1.6c0.7,0,1.3-0.7,1.3-1.6v-7.9c0.8-0.6,1.4-1.6,1.4-2.8C43.9,32.3,43.4,31.2,42.6,30.7z"/>
		<path style="fill:#9543FF;" d="M22.9,24.7c-0.5,0-0.9-0.1-1.3-0.3L9.4,19.3v7.1c0,1.7,1.5,3.2,4.5,4.4c2.6,1,5.8,1.6,9,1.6
			s6.4-0.6,9-1.6c3-1.2,4.5-2.6,4.5-4.4v-7.1l-12.1,5.2C23.8,24.7,23.4,24.7,22.9,24.7z"/>
	</g>
</g>
</svg>
