<?xml version="1.0" encoding="utf-8"?>
<!-- Generator: Adobe Illustrator 22.0.0, SVG Export Plug-In . SVG Version: 6.00 Build 0)  -->
<svg version="1.1" id="Layer_1" xmlns="http://www.w3.org/2000/svg" xmlns:xlink="http://www.w3.org/1999/xlink" x="0px" y="0px"
	 viewBox="0 0 239.9 50.4" style="enable-background:new 0 0 239.9 50.4;" xml:space="preserve">
<g>
	<g>
		<defs>
			<path id="SVGID_1_" d="M218,50.4H21.9C9.8,50.4,0,40.6,0,28.5v-6.6C0,9.8,9.8,0,21.9,0H218c12.1,0,21.9,9.8,21.9,21.9v6.6
				C239.9,40.6,230.1,50.4,218,50.4z M21.9,2.8c-10.5,0-19.1,8.6-19.1,19.1v6.6c0,10.5,8.6,19.1,19.1,19.1H218
				c10.5,0,19.1-8.6,19.1-19.1v-6.6c0-10.5-8.6-19.1-19.1-19.1H21.9z"/>
		</defs>
		<use xlink:href="#SVGID_1_"  style="overflow:visible;fill:#FFA002;"/>
		<clipPath id="SVGID_2_">
			<use xlink:href="#SVGID_1_"  style="overflow:visible;"/>
		</clipPath>
	</g>
	<g>
		<defs>
			<path id="SVGID_3_" d="M218,50.4H21.9C9.8,50.4,0,40.6,0,28.5v-6.6C0,9.8,9.8,0,21.9,0H218c12.1,0,21.9,9.8,21.9,21.9v6.6
				C239.9,40.6,230.1,50.4,218,50.4z M21.9,2.8c-10.5,0-19.1,8.6-19.1,19.1v6.6c0,10.5,8.6,19.1,19.1,19.1H218
				c10.5,0,19.1-8.6,19.1-19.1v-6.6c0-10.5-8.6-19.1-19.1-19.1H21.9z"/>
		</defs>
		<use xlink:href="#SVGID_3_"  style="overflow:visible;opacity:0.23;fill:#FFA002;"/>
		<clipPath id="SVGID_4_">
			<use xlink:href="#SVGID_3_"  style="overflow:visible;opacity:0.23;"/>
		</clipPath>
	</g>
</g>
<g>
	<path style="fill:#AFB1B2;" d="M47.7,17.1l-5.5,10.4c-0.7,1.2-1.5,2.2-2.4,2.8c-1,0.6-2,1-3.1,1c-0.9,0-1.8-0.2-2.7-0.6l1.1-3.3
		c0.6,0.2,1,0.2,1.4,0.2c0.3,0,0.6-0.1,0.9-0.2s0.5-0.3,0.7-0.6l-5.3-9.7h4.9l2.7,5.8l2.8-5.8H47.7z"/>
	<path style="fill:#AFB1B2;" d="M61.6,25.1c0.4,0.6,0.6,1.2,0.6,2c0,0.9-0.3,1.6-0.9,2.3c-0.6,0.6-1.4,1.1-2.5,1.5
		c-1,0.3-2.2,0.5-3.4,0.5c-2,0-3.9-0.4-5.7-1.2l1.4-3.2c0.6,0.3,1.3,0.5,2,0.6s1.4,0.2,2,0.2c0.7,0,1.4-0.1,1.8-0.3
		c0.5-0.2,0.7-0.5,0.7-0.9c0-0.6-0.5-0.8-1.4-0.8h-3.7v-3.3h3.3c0.4,0,0.7-0.1,0.9-0.2c0.2-0.1,0.3-0.3,0.3-0.6
		c0-0.3-0.2-0.6-0.5-0.8s-0.8-0.3-1.4-0.3c-0.6,0-1.1,0.1-1.8,0.2c-0.6,0.2-1.3,0.4-1.8,0.7L50,17.8c1.5-0.7,3.2-1,5-1
		c1.2,0,2.3,0.2,3.3,0.5c1,0.3,1.8,0.8,2.4,1.4c0.6,0.6,0.9,1.4,0.9,2.2c0,0.6-0.2,1.2-0.5,1.7c-0.3,0.5-0.8,0.9-1.3,1.2
		C60.6,24.1,61.2,24.5,61.6,25.1z"/>
	<path style="fill:#AFB1B2;" d="M79.4,17.1v13.8h-4.6v-5.1h-4.3v5.1h-4.6V17.1h4.6V22h4.3v-4.9H79.4z"/>
	<path style="fill:#AFB1B2;" d="M93.5,28.5h-5.2l-0.9,2.4h-4.7l6-13.8h4.6l6,13.8h-4.8L93.5,28.5z M92.3,25.2l-1.3-3.5l-1.3,3.5
		H92.3z"/>
	<path style="fill:#AFB1B2;" d="M113.6,20.7h-4v10.2H105V20.7h-4v-3.6h12.6V20.7z"/>
	<path style="fill:#AFB1B2;" d="M128.4,22.5c0.9,0.8,1.4,1.9,1.4,3.4c0,1.6-0.5,2.9-1.6,3.7s-2.5,1.3-4.4,1.3h-6.8V17.1h4.6v4.2h2.9
		C126.2,21.4,127.5,21.8,128.4,22.5z M124.7,27.2c0.3-0.3,0.5-0.7,0.5-1.2c0-0.9-0.5-1.4-1.6-1.4h-1.9v3.1h1.9
		C124,27.7,124.4,27.5,124.7,27.2z"/>
	<path style="fill:#AFB1B2;" d="M156.6,27.3v6.3h-4.3v-2.7h-11.1V17.1h4.6v10.2h4.4V17.1h4.6v10.2H156.6z"/>
	<path style="fill:#AFB1B2;" d="M171.6,27.4v3.5h-11.5V17.1h11.2v3.5h-6.6v1.6h5.8v3.3h-5.8v1.8H171.6z"/>
	<path style="fill:#AFB1B2;" d="M189,17.1v13.8h-4.6v-5.1h-4.3v5.1h-4.6V17.1h4.6V22h4.3v-4.9H189z"/>
	<path style="fill:#AFB1B2;" d="M207.2,17.1l-5.5,10.4c-0.7,1.2-1.5,2.2-2.4,2.8c-1,0.6-2,1-3.1,1c-0.9,0-1.8-0.2-2.7-0.6l1.1-3.3
		c0.6,0.2,1,0.2,1.4,0.2c0.3,0,0.6-0.1,0.9-0.2s0.5-0.3,0.7-0.6l-5.3-9.7h4.9l2.7,5.8l2.8-5.8H207.2z"/>
</g>
</svg>
