<?xml version="1.0" encoding="utf-8"?>
<!-- Generator: Adobe Illustrator 22.0.0, SVG Export Plug-In . SVG Version: 6.00 Build 0)  -->
<svg version="1.1" id="Layer_1" xmlns="http://www.w3.org/2000/svg" xmlns:xlink="http://www.w3.org/1999/xlink" x="0px" y="0px"
	 viewBox="0 0 730.1 764.8" style="enable-background:new 0 0 730.1 764.8;" xml:space="preserve">
<g>
	<g>
		<g>
			
				<linearGradient id="SVGID_1_" gradientUnits="userSpaceOnUse" x1="413.964" y1="2368.3352" x2="512.5596" y2="2368.3352" gradientTransform="matrix(-0.4028 -0.9153 0.9153 -0.4028 -1698.1376 1481.115)">
				<stop  offset="0" style="stop-color:#8AFF5A"/>
				<stop  offset="1" style="stop-color:#8AC688"/>
			</linearGradient>
			<polygon style="fill:url(#SVGID_1_);" points="267.4,68.1 271.3,99.5 303.2,95.8 307.3,127.4 334.3,124.2 335.5,133.9 
				298.6,138.3 294.6,106.7 262.6,110.5 258.7,79 231.7,82.2 230.5,72.4 			"/>
		</g>
		<g>
			
				<linearGradient id="SVGID_2_" gradientUnits="userSpaceOnUse" x1="-18.0165" y1="2643.7937" x2="25.045" y2="2643.7937" gradientTransform="matrix(-0.4028 -0.9153 0.9153 -0.4028 -1698.1376 1481.115)">
				<stop  offset="0" style="stop-color:#FFC50B"/>
				<stop  offset="1" style="stop-color:#FF8639"/>
			</linearGradient>
			<polygon style="fill:url(#SVGID_2_);" points="718.9,437.2 710.5,425 721.2,417.9 713.9,407.3 724.6,400 718.4,391.1 
				721.7,388.9 730.1,401 719.4,408.4 726.7,418.9 716.1,426.1 722.2,435 			"/>
		</g>
		<g>
			
				<linearGradient id="SVGID_3_" gradientUnits="userSpaceOnUse" x1="145.5619" y1="2055.3354" x2="188.6233" y2="2055.3354" gradientTransform="matrix(-0.4028 -0.9153 0.9153 -0.4028 -1698.1376 1481.115)">
				<stop  offset="0" style="stop-color:#FFC50B"/>
				<stop  offset="1" style="stop-color:#FF8639"/>
			</linearGradient>
			<polygon style="fill:url(#SVGID_3_);" points="114.4,524.5 106,512.3 116.7,505.1 109.4,494.6 120.1,487.3 113.9,478.4 
				117.2,476.2 125.6,488.3 114.9,495.6 122.2,506.2 111.6,513.4 117.7,522.3 			"/>
		</g>
		<g>
			
				<linearGradient id="SVGID_4_" gradientUnits="userSpaceOnUse" x1="203.3926" y1="2132.5276" x2="247.0022" y2="2132.5276" gradientTransform="matrix(-0.4028 -0.9153 0.9153 -0.4028 -1698.1376 1481.115)">
				<stop  offset="0" style="stop-color:#FFC50B"/>
				<stop  offset="1" style="stop-color:#FF8639"/>
			</linearGradient>
			<polygon style="fill:url(#SVGID_4_);" points="159.2,401.1 158.6,413.9 171.6,414.4 171.1,427.2 182,427.7 181.8,431.6 
				166.9,431 167.4,418.2 154.5,417.6 155,404.9 144.1,404.4 144.3,400.5 			"/>
		</g>
		<g>
			
				<linearGradient id="SVGID_5_" gradientUnits="userSpaceOnUse" x1="-42.0242" y1="2054.9521" x2="-19.0133" y2="2054.9521" gradientTransform="matrix(-0.4028 -0.9153 0.9153 -0.4028 -1698.1376 1481.115)">
				<stop  offset="0" style="stop-color:#FFC50B"/>
				<stop  offset="1" style="stop-color:#FF8639"/>
			</linearGradient>
			<path style="fill:url(#SVGID_5_);" d="M203.2,671.1l-9.2,23.3l-14.3-18.9L203.2,671.1z M192.9,686.3l4-10l-10.1,1.9L192.9,686.3z
				"/>
		</g>
		<g>
			
				<linearGradient id="SVGID_6_" gradientUnits="userSpaceOnUse" x1="427.6616" y1="2486.988" x2="452.3989" y2="2486.988" gradientTransform="matrix(-0.4028 -0.9153 0.9153 -0.4028 -1698.1376 1481.115)">
				<stop  offset="0" style="stop-color:#8A5F85"/>
				<stop  offset="1" style="stop-color:#008FE8"/>
			</linearGradient>
			<path style="fill:url(#SVGID_6_);" d="M416,83.6L392.2,84l10-21.4L416,83.6z M398.5,79.9l10.3-0.2l-6-9L398.5,79.9z"/>
		</g>
		<g>
			
				<linearGradient id="SVGID_7_" gradientUnits="userSpaceOnUse" x1="-166.229" y1="2199.9426" x2="-57.7604" y2="2199.9426" gradientTransform="matrix(-0.4028 -0.9153 0.9153 -0.4028 -1698.1376 1481.115)">
				<stop  offset="0" style="stop-color:#FFC50B"/>
				<stop  offset="1" style="stop-color:#FF8639"/>
			</linearGradient>
			<path style="fill:url(#SVGID_7_);" d="M342.5,764.8l-50.3-96.4l109.9-2.6L342.5,764.8z M322,685.8l21.6,41.4l25.7-42.6L322,685.8
				z"/>
		</g>
		<g>
			
				<linearGradient id="SVGID_8_" gradientUnits="userSpaceOnUse" x1="92.979" y1="2539.2715" x2="151.0894" y2="2539.2715" gradientTransform="matrix(-0.4028 -0.9153 0.9153 -0.4028 -1698.1376 1481.115)">
				<stop  offset="0" style="stop-color:#8A5F85"/>
				<stop  offset="1" style="stop-color:#008FE8"/>
			</linearGradient>
			<path style="fill:url(#SVGID_8_);" d="M603.8,335c6.5,14.6-0.2,31.8-15.1,38.2c-14.8,6.4-32.2-0.2-38.8-14.9s0.2-31.8,15.1-38.2
				C579.9,313.7,597.3,320.4,603.8,335z M559.9,354.1c4.1,9.3,15.1,13.5,24.5,9.4c9.4-4.1,13.7-14.9,9.5-24.2
				c-4.1-9.3-15.1-13.5-24.5-9.4C560,334,555.7,344.8,559.9,354.1z"/>
		</g>
		<g>
			
				<linearGradient id="SVGID_9_" gradientUnits="userSpaceOnUse" x1="111.049" y1="2173.75" x2="132.5514" y2="2173.75" gradientTransform="matrix(-0.4028 -0.9153 0.9153 -0.4028 -1698.1376 1481.115)">
				<stop  offset="0" style="stop-color:#8AFF5A"/>
				<stop  offset="1" style="stop-color:#8AC688"/>
			</linearGradient>
			<path style="fill:url(#SVGID_9_);" d="M252.4,489.8c2.4,5.4-0.1,11.8-5.6,14.1c-5.5,2.4-11.9-0.1-14.3-5.5
				c-2.4-5.4,0.1-11.8,5.6-14.1S250,484.4,252.4,489.8z M236.1,496.8c1.5,3.4,5.6,5,9.1,3.5c3.5-1.5,5.1-5.5,3.5-8.9
				c-1.5-3.4-5.6-5-9.1-3.5C236.2,489.4,234.6,493.4,236.1,496.8z"/>
		</g>
		<g>
			
				<linearGradient id="SVGID_10_" gradientUnits="userSpaceOnUse" x1="-109.4284" y1="2313.3037" x2="-86.8087" y2="2313.3037" gradientTransform="matrix(-0.4028 -0.9153 0.9153 -0.4028 -1698.1376 1481.115)">
				<stop  offset="0" style="stop-color:#FFC50B"/>
				<stop  offset="1" style="stop-color:#FF8639"/>
			</linearGradient>
			<path style="fill:url(#SVGID_10_);" d="M472.2,641.1l-15.4,11.3l-11.5-15.2l15.4-11.3L472.2,641.1z M457.6,646.9l9-6.6l-6.7-8.8
				l-9,6.6L457.6,646.9z"/>
		</g>
		<g>
			
				<linearGradient id="SVGID_11_" gradientUnits="userSpaceOnUse" x1="329.8013" y1="2077.4077" x2="393.0241" y2="2077.4077" gradientTransform="matrix(-0.4028 -0.9153 0.9153 -0.4028 -1698.1376 1481.115)">
				<stop  offset="0" style="stop-color:#FFC50B"/>
				<stop  offset="1" style="stop-color:#FF8639"/>
			</linearGradient>
			<path style="fill:url(#SVGID_11_);" d="M95.2,319l-43,31.5l-32-42.4l43-31.5L95.2,319z M54.5,335.1l25.1-18.4L60.9,292
				l-25.1,18.4L54.5,335.1z"/>
		</g>
		<g>
			
				<linearGradient id="SVGID_12_" gradientUnits="userSpaceOnUse" x1="425.4457" y1="2634.6211" x2="451.8308" y2="2634.6211" gradientTransform="matrix(-0.4028 -0.9153 0.9153 -0.4028 -1698.1376 1481.115)">
				<stop  offset="0" style="stop-color:#FFC50B"/>
				<stop  offset="1" style="stop-color:#FF8639"/>
			</linearGradient>
			<path style="fill:url(#SVGID_12_);" d="M549.8,15.2L540,31.4l-16.5-9.7l9.8-16.2L549.8,15.2z M538.6,26l5.7-9.5l-9.6-5.7
				l-5.7,9.5L538.6,26z"/>
		</g>
		
			<linearGradient id="SVGID_13_" gradientUnits="userSpaceOnUse" x1="230.4038" y1="2537.5403" x2="290.8179" y2="2537.5403" gradientTransform="matrix(-0.4028 -0.9153 0.9153 -0.4028 -1698.1376 1481.115)">
			<stop  offset="0" style="stop-color:#FFC50B"/>
			<stop  offset="1" style="stop-color:#FF8639"/>
		</linearGradient>
		<polygon style="fill:url(#SVGID_13_);" points="488.6,201.1 483.4,214.2 510.3,224.5 499.8,251 513.1,256.1 523.6,229.6 
			550.4,239.9 555.6,226.8 528.7,216.5 539.2,190 525.9,185 515.4,211.4 		"/>
		
			<linearGradient id="SVGID_14_" gradientUnits="userSpaceOnUse" x1="-52.8201" y1="2480.6665" x2="-35.8883" y2="2480.6665" gradientTransform="matrix(-0.4028 -0.9153 0.9153 -0.4028 -1698.1376 1481.115)">
			<stop  offset="0" style="stop-color:#FFC50B"/>
			<stop  offset="1" style="stop-color:#FF8639"/>
		</linearGradient>
		<polygon style="fill:url(#SVGID_14_);" points="581.6,517.1 580.2,520.8 587.7,523.7 584.8,531.1 588.5,532.5 591.4,525.1 
			598.9,528 600.4,524.3 592.9,521.4 595.8,514 592.1,512.6 589.1,520 		"/>
		
			<linearGradient id="SVGID_15_" gradientUnits="userSpaceOnUse" x1="471.024" y1="2157.9446" x2="491.2708" y2="2157.9446" gradientTransform="matrix(-0.4028 -0.9153 0.9153 -0.4028 -1698.1376 1481.115)">
			<stop  offset="0" style="stop-color:#FFC50B"/>
			<stop  offset="1" style="stop-color:#FF8639"/>
		</linearGradient>
		<polygon style="fill:url(#SVGID_15_);" points="73.6,175 75.7,178.4 82.6,174.3 86.8,181.1 90.2,179 86,172.2 92.9,168.1 
			90.8,164.7 83.9,168.9 79.7,162 76.3,164.1 80.5,170.9 		"/>
	</g>
	<g style="opacity:0.19;">
		<g>
			
				<linearGradient id="SVGID_16_" gradientUnits="userSpaceOnUse" x1="427.1665" y1="2352.0269" x2="525.7621" y2="2352.0269" gradientTransform="matrix(-0.4028 -0.9153 0.9153 -0.4028 -1698.1376 1481.115)">
				<stop  offset="0" style="stop-color:#8AFF5A"/>
				<stop  offset="1" style="stop-color:#8AC688"/>
			</linearGradient>
			<polygon style="fill:url(#SVGID_16_);" points="247.2,62.5 251,94 282.9,90.2 287,121.9 314.1,118.7 315.3,128.4 278.4,132.8 
				274.3,101.1 242.3,104.9 238.5,73.4 211.5,76.7 210.3,66.9 			"/>
		</g>
		<g>
			
				<linearGradient id="SVGID_17_" gradientUnits="userSpaceOnUse" x1="-4.814" y1="2627.4854" x2="38.2475" y2="2627.4854" gradientTransform="matrix(-0.4028 -0.9153 0.9153 -0.4028 -1698.1376 1481.115)">
				<stop  offset="0" style="stop-color:#FFC50B"/>
				<stop  offset="1" style="stop-color:#FF8639"/>
			</linearGradient>
			<polygon style="fill:url(#SVGID_17_);" points="698.7,431.7 690.2,419.5 700.9,412.3 693.6,401.8 704.3,394.5 698.2,385.6 
				701.5,383.4 709.9,395.5 699.2,402.8 706.5,413.4 695.8,420.6 702,429.4 			"/>
		</g>
		<g>
			
				<linearGradient id="SVGID_18_" gradientUnits="userSpaceOnUse" x1="158.7644" y1="2039.0271" x2="201.8259" y2="2039.0271" gradientTransform="matrix(-0.4028 -0.9153 0.9153 -0.4028 -1698.1376 1481.115)">
				<stop  offset="0" style="stop-color:#FFC50B"/>
				<stop  offset="1" style="stop-color:#FF8639"/>
			</linearGradient>
			<polygon style="fill:url(#SVGID_18_);" points="94.2,519 85.7,506.8 96.4,499.6 89.1,489.1 99.8,481.8 93.7,472.9 97,470.7 
				105.4,482.8 94.7,490.1 102,500.7 91.3,507.8 97.5,516.7 			"/>
		</g>
		<g>
			
				<linearGradient id="SVGID_19_" gradientUnits="userSpaceOnUse" x1="216.5951" y1="2116.2192" x2="260.2047" y2="2116.2192" gradientTransform="matrix(-0.4028 -0.9153 0.9153 -0.4028 -1698.1376 1481.115)">
				<stop  offset="0" style="stop-color:#FFC50B"/>
				<stop  offset="1" style="stop-color:#FF8639"/>
			</linearGradient>
			<polygon style="fill:url(#SVGID_19_);" points="139,395.6 138.4,408.4 151.3,408.9 150.8,421.7 161.8,422.2 161.6,426.1 
				146.7,425.5 147.2,412.7 134.2,412.1 134.8,399.4 123.9,398.9 124,395 			"/>
		</g>
		<g>
			
				<linearGradient id="SVGID_20_" gradientUnits="userSpaceOnUse" x1="-28.8217" y1="2038.6438" x2="-5.8108" y2="2038.6438" gradientTransform="matrix(-0.4028 -0.9153 0.9153 -0.4028 -1698.1376 1481.115)">
				<stop  offset="0" style="stop-color:#FFC50B"/>
				<stop  offset="1" style="stop-color:#FF8639"/>
			</linearGradient>
			<path style="fill:url(#SVGID_20_);" d="M183,665.6l-9.2,23.3L159.5,670L183,665.6z M172.7,680.8l4-10l-10.1,1.9L172.7,680.8z"/>
		</g>
		<g>
			
				<linearGradient id="SVGID_21_" gradientUnits="userSpaceOnUse" x1="440.8641" y1="2470.6799" x2="465.6014" y2="2470.6799" gradientTransform="matrix(-0.4028 -0.9153 0.9153 -0.4028 -1698.1376 1481.115)">
				<stop  offset="0" style="stop-color:#8A5F85"/>
				<stop  offset="1" style="stop-color:#008FE8"/>
			</linearGradient>
			<path style="fill:url(#SVGID_21_);" d="M395.8,78l-23.9,0.4l10-21.4L395.8,78z M378.2,74.4l10.3-0.2l-6-9L378.2,74.4z"/>
		</g>
		<g>
			
				<linearGradient id="SVGID_22_" gradientUnits="userSpaceOnUse" x1="-153.0264" y1="2183.6343" x2="-44.5578" y2="2183.6343" gradientTransform="matrix(-0.4028 -0.9153 0.9153 -0.4028 -1698.1376 1481.115)">
				<stop  offset="0" style="stop-color:#FFC50B"/>
				<stop  offset="1" style="stop-color:#FF8639"/>
			</linearGradient>
			<path style="fill:url(#SVGID_22_);" d="M322.2,759.2L272,662.9l109.9-2.6L322.2,759.2z M301.8,680.3l21.6,41.4l25.7-42.6
				L301.8,680.3z"/>
		</g>
		<g>
			
				<linearGradient id="SVGID_23_" gradientUnits="userSpaceOnUse" x1="106.1815" y1="2522.9631" x2="164.2919" y2="2522.9631" gradientTransform="matrix(-0.4028 -0.9153 0.9153 -0.4028 -1698.1376 1481.115)">
				<stop  offset="0" style="stop-color:#8A5F85"/>
				<stop  offset="1" style="stop-color:#008FE8"/>
			</linearGradient>
			<path style="fill:url(#SVGID_23_);" d="M583.6,329.5c6.5,14.6-0.2,31.8-15.1,38.2s-32.2-0.2-38.8-14.9s0.2-31.8,15.1-38.2
				C559.7,308.2,577.1,314.8,583.6,329.5z M539.6,348.5c4.1,9.3,15.1,13.5,24.5,9.4c9.4-4.1,13.7-14.9,9.5-24.2
				c-4.1-9.3-15.1-13.5-24.5-9.4C539.8,328.4,535.5,339.3,539.6,348.5z"/>
		</g>
		<g>
			
				<linearGradient id="SVGID_24_" gradientUnits="userSpaceOnUse" x1="124.2515" y1="2157.4419" x2="145.754" y2="2157.4419" gradientTransform="matrix(-0.4028 -0.9153 0.9153 -0.4028 -1698.1376 1481.115)">
				<stop  offset="0" style="stop-color:#8AFF5A"/>
				<stop  offset="1" style="stop-color:#8AC688"/>
			</linearGradient>
			<path style="fill:url(#SVGID_24_);" d="M232.2,484.3c2.4,5.4-0.1,11.8-5.6,14.1c-5.5,2.4-11.9-0.1-14.3-5.5
				c-2.4-5.4,0.1-11.8,5.6-14.1S229.7,478.9,232.2,484.3z M215.9,491.3c1.5,3.4,5.6,5,9.1,3.5s5.1-5.5,3.5-8.9
				c-1.5-3.4-5.6-5-9.1-3.5C215.9,483.9,214.4,487.9,215.9,491.3z"/>
		</g>
		<g>
			
				<linearGradient id="SVGID_25_" gradientUnits="userSpaceOnUse" x1="-96.2259" y1="2296.9954" x2="-73.6062" y2="2296.9954" gradientTransform="matrix(-0.4028 -0.9153 0.9153 -0.4028 -1698.1376 1481.115)">
				<stop  offset="0" style="stop-color:#FFC50B"/>
				<stop  offset="1" style="stop-color:#FF8639"/>
			</linearGradient>
			<path style="fill:url(#SVGID_25_);" d="M451.9,635.6l-15.4,11.3l-11.5-15.2l15.4-11.3L451.9,635.6z M437.4,641.4l9-6.6l-6.7-8.8
				l-9,6.6L437.4,641.4z"/>
		</g>
		<g>
			
				<linearGradient id="SVGID_26_" gradientUnits="userSpaceOnUse" x1="343.0038" y1="2061.0994" x2="406.2266" y2="2061.0994" gradientTransform="matrix(-0.4028 -0.9153 0.9153 -0.4028 -1698.1376 1481.115)">
				<stop  offset="0" style="stop-color:#FFC50B"/>
				<stop  offset="1" style="stop-color:#FF8639"/>
			</linearGradient>
			<path style="fill:url(#SVGID_26_);" d="M75,313.5L32,345L0,302.7l43-31.5L75,313.5z M34.3,329.6l25.1-18.4l-18.7-24.7l-25.1,18.4
				L34.3,329.6z"/>
		</g>
		<g>
			
				<linearGradient id="SVGID_27_" gradientUnits="userSpaceOnUse" x1="438.6483" y1="2618.3127" x2="465.0334" y2="2618.3127" gradientTransform="matrix(-0.4028 -0.9153 0.9153 -0.4028 -1698.1376 1481.115)">
				<stop  offset="0" style="stop-color:#FFC50B"/>
				<stop  offset="1" style="stop-color:#FF8639"/>
			</linearGradient>
			<path style="fill:url(#SVGID_27_);" d="M529.6,9.7l-9.8,16.2l-16.5-9.7L513.1,0L529.6,9.7z M518.3,20.5l5.7-9.5l-9.6-5.7
				l-5.7,9.5L518.3,20.5z"/>
		</g>
		
			<linearGradient id="SVGID_28_" gradientUnits="userSpaceOnUse" x1="243.6063" y1="2521.2319" x2="304.0204" y2="2521.2319" gradientTransform="matrix(-0.4028 -0.9153 0.9153 -0.4028 -1698.1376 1481.115)">
			<stop  offset="0" style="stop-color:#FFC50B"/>
			<stop  offset="1" style="stop-color:#FF8639"/>
		</linearGradient>
		<polygon style="fill:url(#SVGID_28_);" points="468.3,195.6 463.2,208.7 490,219 479.6,245.5 492.9,250.6 503.3,224.1 
			530.2,234.4 535.4,221.3 508.5,211 518.9,184.5 505.6,179.4 495.2,205.9 		"/>
		
			<linearGradient id="SVGID_29_" gradientUnits="userSpaceOnUse" x1="-39.6176" y1="2464.3582" x2="-22.6857" y2="2464.3582" gradientTransform="matrix(-0.4028 -0.9153 0.9153 -0.4028 -1698.1376 1481.115)">
			<stop  offset="0" style="stop-color:#FFC50B"/>
			<stop  offset="1" style="stop-color:#FF8639"/>
		</linearGradient>
		<polygon style="fill:url(#SVGID_29_);" points="561.4,511.6 559.9,515.3 567.4,518.2 564.5,525.6 568.2,527 571.2,519.6 
			578.7,522.5 580.2,518.8 572.6,515.9 575.6,508.5 571.8,507.1 568.9,514.5 		"/>
		
			<linearGradient id="SVGID_30_" gradientUnits="userSpaceOnUse" x1="484.2265" y1="2141.6362" x2="504.4733" y2="2141.6362" gradientTransform="matrix(-0.4028 -0.9153 0.9153 -0.4028 -1698.1376 1481.115)">
			<stop  offset="0" style="stop-color:#FFC50B"/>
			<stop  offset="1" style="stop-color:#FF8639"/>
		</linearGradient>
		<polygon style="fill:url(#SVGID_30_);" points="53.3,169.5 55.4,172.9 62.3,168.7 66.5,175.6 69.9,173.5 65.7,166.7 72.6,162.6 
			70.6,159.2 63.7,163.3 59.5,156.5 56.1,158.6 60.2,165.4 		"/>
	</g>
	<g style="opacity:0.31;">
		<g>
			
				<linearGradient id="SVGID_31_" gradientUnits="userSpaceOnUse" x1="414.8147" y1="2367.4761" x2="513.4103" y2="2367.4761" gradientTransform="matrix(-0.4028 -0.9153 0.9153 -0.4028 -1698.1376 1481.115)">
				<stop  offset="0" style="stop-color:#8AFF5A"/>
				<stop  offset="1" style="stop-color:#8AC688"/>
			</linearGradient>
			<polygon style="fill:url(#SVGID_31_);" points="266.3,67.6 270.1,99.1 302.1,95.3 306.1,127 333.2,123.8 334.4,133.5 
				297.5,137.9 293.4,106.2 261.4,110 257.6,78.5 230.6,81.7 229.4,72 			"/>
		</g>
		<g>
			
				<linearGradient id="SVGID_32_" gradientUnits="userSpaceOnUse" x1="-17.1657" y1="2642.9346" x2="25.8957" y2="2642.9346" gradientTransform="matrix(-0.4028 -0.9153 0.9153 -0.4028 -1698.1376 1481.115)">
				<stop  offset="0" style="stop-color:#FFC50B"/>
				<stop  offset="1" style="stop-color:#FF8639"/>
			</linearGradient>
			<polygon style="fill:url(#SVGID_32_);" points="717.8,436.8 709.4,424.6 720,417.4 712.8,406.9 723.5,399.6 717.3,390.7 
				720.6,388.5 729,400.6 718.3,407.9 725.6,418.4 714.9,425.6 721.1,434.5 			"/>
		</g>
		<g>
			
				<linearGradient id="SVGID_33_" gradientUnits="userSpaceOnUse" x1="146.4126" y1="2054.4763" x2="189.4741" y2="2054.4763" gradientTransform="matrix(-0.4028 -0.9153 0.9153 -0.4028 -1698.1376 1481.115)">
				<stop  offset="0" style="stop-color:#FFC50B"/>
				<stop  offset="1" style="stop-color:#FF8639"/>
			</linearGradient>
			<polygon style="fill:url(#SVGID_33_);" points="113.3,524 104.9,511.9 115.5,504.7 108.3,494.2 119,486.9 112.8,478 116.1,475.8 
				124.5,487.9 113.8,495.2 121.1,505.7 110.4,512.9 116.6,521.8 			"/>
		</g>
		<g>
			
				<linearGradient id="SVGID_34_" gradientUnits="userSpaceOnUse" x1="204.2433" y1="2131.6685" x2="247.8529" y2="2131.6685" gradientTransform="matrix(-0.4028 -0.9153 0.9153 -0.4028 -1698.1376 1481.115)">
				<stop  offset="0" style="stop-color:#FFC50B"/>
				<stop  offset="1" style="stop-color:#FF8639"/>
			</linearGradient>
			<polygon style="fill:url(#SVGID_34_);" points="158.1,400.7 157.5,413.4 170.4,414 169.9,426.8 180.9,427.3 180.7,431.2 
				165.8,430.6 166.3,417.8 153.4,417.2 153.9,404.5 143,404 143.2,400.1 			"/>
		</g>
		<g>
			
				<linearGradient id="SVGID_35_" gradientUnits="userSpaceOnUse" x1="-41.1735" y1="2054.093" x2="-18.1626" y2="2054.093" gradientTransform="matrix(-0.4028 -0.9153 0.9153 -0.4028 -1698.1376 1481.115)">
				<stop  offset="0" style="stop-color:#FFC50B"/>
				<stop  offset="1" style="stop-color:#FF8639"/>
			</linearGradient>
			<path style="fill:url(#SVGID_35_);" d="M202.1,670.7l-9.2,23.3l-14.3-18.9L202.1,670.7z M191.8,685.9l4-10l-10.1,1.9L191.8,685.9
				z"/>
		</g>
		<g>
			
				<linearGradient id="SVGID_36_" gradientUnits="userSpaceOnUse" x1="428.5123" y1="2486.1289" x2="453.2496" y2="2486.1289" gradientTransform="matrix(-0.4028 -0.9153 0.9153 -0.4028 -1698.1376 1481.115)">
				<stop  offset="0" style="stop-color:#8A5F85"/>
				<stop  offset="1" style="stop-color:#008FE8"/>
			</linearGradient>
			<path style="fill:url(#SVGID_36_);" d="M414.9,83.1L391,83.5l10-21.4L414.9,83.1z M397.3,79.5l10.3-0.2l-6-9L397.3,79.5z"/>
		</g>
		<g>
			
				<linearGradient id="SVGID_37_" gradientUnits="userSpaceOnUse" x1="-165.3782" y1="2199.0833" x2="-56.9096" y2="2199.0833" gradientTransform="matrix(-0.4028 -0.9153 0.9153 -0.4028 -1698.1376 1481.115)">
				<stop  offset="0" style="stop-color:#FFC50B"/>
				<stop  offset="1" style="stop-color:#FF8639"/>
			</linearGradient>
			<path style="fill:url(#SVGID_37_);" d="M341.4,764.3l-50.3-96.4l109.9-2.6L341.4,764.3z M320.9,685.4l21.6,41.4l25.7-42.6
				L320.9,685.4z"/>
		</g>
		<g>
			
				<linearGradient id="SVGID_38_" gradientUnits="userSpaceOnUse" x1="93.8298" y1="2538.4124" x2="151.9401" y2="2538.4124" gradientTransform="matrix(-0.4028 -0.9153 0.9153 -0.4028 -1698.1376 1481.115)">
				<stop  offset="0" style="stop-color:#8A5F85"/>
				<stop  offset="1" style="stop-color:#008FE8"/>
			</linearGradient>
			<path style="fill:url(#SVGID_38_);" d="M602.7,334.6c6.5,14.6-0.2,31.8-15.1,38.2s-32.2-0.2-38.8-14.9s0.2-31.8,15.1-38.2
				C578.8,313.3,596.2,319.9,602.7,334.6z M558.7,353.6c4.1,9.3,15.1,13.5,24.5,9.4c9.4-4.1,13.7-14.9,9.5-24.2
				c-4.1-9.3-15.1-13.5-24.5-9.4C558.9,333.5,554.6,344.4,558.7,353.6z"/>
		</g>
		<g>
			
				<linearGradient id="SVGID_39_" gradientUnits="userSpaceOnUse" x1="111.8997" y1="2172.8909" x2="133.4022" y2="2172.8909" gradientTransform="matrix(-0.4028 -0.9153 0.9153 -0.4028 -1698.1376 1481.115)">
				<stop  offset="0" style="stop-color:#8AFF5A"/>
				<stop  offset="1" style="stop-color:#8AC688"/>
			</linearGradient>
			<path style="fill:url(#SVGID_39_);" d="M251.3,489.4c2.4,5.4-0.1,11.8-5.6,14.1c-5.5,2.4-11.9-0.1-14.3-5.5
				c-2.4-5.4,0.1-11.8,5.6-14.1C242.4,481.5,248.9,483.9,251.3,489.4z M235,496.4c1.5,3.4,5.6,5,9.1,3.5c3.5-1.5,5.1-5.5,3.5-8.9
				c-1.5-3.4-5.6-5-9.1-3.5C235.1,489,233.5,493,235,496.4z"/>
		</g>
		<g>
			
				<linearGradient id="SVGID_40_" gradientUnits="userSpaceOnUse" x1="-108.5776" y1="2312.4446" x2="-85.958" y2="2312.4446" gradientTransform="matrix(-0.4028 -0.9153 0.9153 -0.4028 -1698.1376 1481.115)">
				<stop  offset="0" style="stop-color:#FFC50B"/>
				<stop  offset="1" style="stop-color:#FF8639"/>
			</linearGradient>
			<path style="fill:url(#SVGID_40_);" d="M471,640.7L455.7,652l-11.5-15.2l15.4-11.3L471,640.7z M456.5,646.5l9-6.6l-6.7-8.8
				l-9,6.6L456.5,646.5z"/>
		</g>
		<g>
			
				<linearGradient id="SVGID_41_" gradientUnits="userSpaceOnUse" x1="330.652" y1="2076.5486" x2="393.8748" y2="2076.5486" gradientTransform="matrix(-0.4028 -0.9153 0.9153 -0.4028 -1698.1376 1481.115)">
				<stop  offset="0" style="stop-color:#FFC50B"/>
				<stop  offset="1" style="stop-color:#FF8639"/>
			</linearGradient>
			<path style="fill:url(#SVGID_41_);" d="M94.1,318.6l-43,31.5l-32-42.4l43-31.5L94.1,318.6z M53.4,334.7l25.1-18.4l-18.7-24.7
				L34.8,310L53.4,334.7z"/>
		</g>
		<g>
			
				<linearGradient id="SVGID_42_" gradientUnits="userSpaceOnUse" x1="426.2965" y1="2633.7617" x2="452.6816" y2="2633.7617" gradientTransform="matrix(-0.4028 -0.9153 0.9153 -0.4028 -1698.1376 1481.115)">
				<stop  offset="0" style="stop-color:#FFC50B"/>
				<stop  offset="1" style="stop-color:#FF8639"/>
			</linearGradient>
			<path style="fill:url(#SVGID_42_);" d="M548.7,14.8L538.8,31l-16.5-9.7l9.8-16.2L548.7,14.8z M537.5,25.6l5.7-9.5l-9.6-5.7
				l-5.7,9.5L537.5,25.6z"/>
		</g>
		
			<linearGradient id="SVGID_43_" gradientUnits="userSpaceOnUse" x1="231.2545" y1="2536.6812" x2="291.6686" y2="2536.6812" gradientTransform="matrix(-0.4028 -0.9153 0.9153 -0.4028 -1698.1376 1481.115)">
			<stop  offset="0" style="stop-color:#FFC50B"/>
			<stop  offset="1" style="stop-color:#FF8639"/>
		</linearGradient>
		<polygon style="fill:url(#SVGID_43_);" points="487.4,200.7 482.3,213.8 509.1,224.1 498.7,250.6 512,255.7 522.4,229.2 
			549.3,239.5 554.5,226.4 527.6,216.1 538.1,189.6 524.8,184.5 514.3,211 		"/>
		
			<linearGradient id="SVGID_44_" gradientUnits="userSpaceOnUse" x1="-51.9694" y1="2479.8071" x2="-35.0375" y2="2479.8071" gradientTransform="matrix(-0.4028 -0.9153 0.9153 -0.4028 -1698.1376 1481.115)">
			<stop  offset="0" style="stop-color:#FFC50B"/>
			<stop  offset="1" style="stop-color:#FF8639"/>
		</linearGradient>
		<polygon style="fill:url(#SVGID_44_);" points="580.5,516.7 579,520.4 586.6,523.3 583.6,530.7 587.4,532.1 590.3,524.7 
			597.8,527.6 599.3,523.9 591.7,521 594.7,513.6 590.9,512.2 588,519.6 		"/>
		
			<linearGradient id="SVGID_45_" gradientUnits="userSpaceOnUse" x1="471.8747" y1="2157.0854" x2="492.1216" y2="2157.0854" gradientTransform="matrix(-0.4028 -0.9153 0.9153 -0.4028 -1698.1376 1481.115)">
			<stop  offset="0" style="stop-color:#FFC50B"/>
			<stop  offset="1" style="stop-color:#FF8639"/>
		</linearGradient>
		<polygon style="fill:url(#SVGID_45_);" points="72.5,174.6 74.5,178 81.4,173.8 85.6,180.6 89,178.6 84.9,171.8 91.8,167.7 
			89.7,164.3 82.8,168.4 78.6,161.6 75.2,163.7 79.4,170.5 		"/>
	</g>
</g>
</svg>
