<?xml version="1.0" encoding="utf-8"?>
<!-- Generator: Adobe Illustrator 22.0.0, SVG Export Plug-In . SVG Version: 6.00 Build 0)  -->
<svg version="1.1" id="Layer_1" xmlns="http://www.w3.org/2000/svg" xmlns:xlink="http://www.w3.org/1999/xlink" x="0px" y="0px"
	 viewBox="0 0 36.7 36.1" style="enable-background:new 0 0 36.7 36.1;" xml:space="preserve">
<g>
	<path style="fill:#55D776;" d="M18.3,8.8c-5.2,0-9.4,4.2-9.4,9.3c0,5.1,4.2,9.3,9.4,9.3c5.2,0,9.4-4.2,9.4-9.3
		C27.7,12.9,23.5,8.8,18.3,8.8z M18.3,24.1c-3.4,0-6.1-2.7-6.1-6c0-3.3,2.7-6,6.1-6c3.4,0,6.1,2.7,6.1,6
		C24.4,21.4,21.7,24.1,18.3,24.1z"/>
	<path style="fill:#55D776;" d="M36.5,10.6C36.2,4.3,32.8,0.4,25.9,0.1C22.5,0,14.2,0,10.8,0.1C7.8,0.3,5.2,1,3.1,3
		C-0.4,6.5,0,11.2,0,18.1c0,7-0.4,11.6,3.1,15c3.5,3.5,8.4,3,15.2,3c7.1,0,9.5,0,12-0.9c3.4-1.3,6-4.3,6.2-9.7
		C36.7,22.2,36.7,13.9,36.5,10.6z M31.2,30.8c-2.3,2.3-5.5,2.1-12.9,2.1c-7.6,0-10.7,0.1-12.9-2.1C2.8,28.2,3.2,24.2,3.2,18
		c0-8.3-0.9-14.3,7.6-14.7c1.9-0.1,2.5-0.1,7.4-0.1l0.1,0c8.1,0,14.5-0.8,14.9,7.5c0.1,1.9,0.1,2.5,0.1,7.3
		C33.3,25.5,33.5,28.5,31.2,30.8z"/>
	<path style="fill:#55D776;" d="M28.1,6.3c-1.2,0-2.2,1-2.2,2.2s1,2.2,2.2,2.2c1.2,0,2.2-1,2.2-2.2S29.3,6.3,28.1,6.3z"/>
</g>
</svg>
