<?xml version="1.0" encoding="utf-8"?>
<!-- Generator: Adobe Illustrator 22.0.0, SVG Export Plug-In . SVG Version: 6.00 Build 0)  -->
<svg version="1.1" id="Layer_1" xmlns="http://www.w3.org/2000/svg" xmlns:xlink="http://www.w3.org/1999/xlink" x="0px" y="0px"
	 viewBox="0 0 199.1 68.5" style="enable-background:new 0 0 199.1 68.5;" xml:space="preserve">
<g>
	<g style="opacity:0.19;">
		<path style="fill:#FFA002;" d="M11.2,40.2c-2.9-1.5-5.2-3.7-6.9-6.4S1.9,28,1.9,24.6c0-3.4,0.8-6.4,2.5-9.1
			c1.7-2.7,3.9-4.8,6.9-6.4c2.9-1.5,6.2-2.3,9.8-2.3s6.9,0.8,9.8,2.3c2.9,1.5,5.2,3.7,6.9,6.4c1.7,2.7,2.5,5.8,2.5,9.1
			c0,3.4-0.8,6.4-2.5,9.1c-1.7,2.7-4,4.8-6.9,6.4c-2.9,1.5-6.2,2.3-9.8,2.3S14.1,41.7,11.2,40.2z M26.7,34.3c1.7-0.9,3-2.2,3.9-3.9
			s1.4-3.6,1.4-5.7c0-2.1-0.5-4-1.4-5.7c-1-1.7-2.3-3-3.9-3.9c-1.7-0.9-3.5-1.4-5.6-1.4c-2.1,0-3.9,0.5-5.6,1.4
			c-1.7,0.9-3,2.2-3.9,3.9c-1,1.7-1.4,3.6-1.4,5.7c0,2.1,0.5,4,1.4,5.7c1,1.7,2.3,3,3.9,3.9c1.7,0.9,3.5,1.4,5.6,1.4
			C23.1,35.7,25,35.2,26.7,34.3z"/>
		<path style="fill:#FFA002;" d="M70,15.4h7.8v10.4h11.7V15.4h7.8v26.5h-7.8V32H77.8v9.9H70V15.4z"/>
		<path style="fill:#FFA002;" d="M129.8,17.9c2.2,2,3.4,4.9,3.4,8.8v15.1h-7.3v-3.3c-1.5,2.5-4.2,3.7-8.2,3.7c-2.1,0-3.9-0.3-5.4-1
			c-1.5-0.7-2.7-1.6-3.5-2.9c-0.8-1.2-1.2-2.6-1.2-4.1c0-2.5,0.9-4.4,2.8-5.8c1.9-1.4,4.8-2.1,8.7-2.1h6.2c0-1.7-0.5-3-1.6-3.9
			c-1-0.9-2.6-1.4-4.7-1.4c-1.4,0-2.8,0.2-4.2,0.7c-1.4,0.4-2.6,1-3.5,1.8l-2.8-5.4c1.5-1,3.2-1.8,5.3-2.4s4.2-0.8,6.3-0.8
			C124.4,15,127.6,16,129.8,17.9z M123.1,36.2c1-0.6,1.8-1.5,2.2-2.7v-2.7H120c-3.2,0-4.8,1-4.8,3.1c0,1,0.4,1.8,1.2,2.3
			s1.9,0.9,3.2,0.9C120.9,37.1,122.1,36.8,123.1,36.2z"/>
		<path style="fill:#FFA002;" d="M150,40.5c-2.3-1.2-4.1-2.8-5.4-4.9c-1.3-2.1-1.9-4.4-1.9-7s0.6-5,1.9-7c1.3-2.1,3.1-3.7,5.4-4.9
			c2.3-1.2,4.9-1.7,7.7-1.7c2.8,0,5.3,0.6,7.4,1.7c2.1,1.2,3.7,2.8,4.6,5l-6.1,3.2c-1.4-2.4-3.4-3.6-6.1-3.6c-2,0-3.7,0.7-5.1,2
			c-1.3,1.3-2,3.1-2,5.4c0,2.3,0.7,4.1,2,5.4c1.3,1.3,3,2,5.1,2c2.7,0,4.7-1.2,6.1-3.6l6.1,3.3c-1,2.1-2.5,3.7-4.6,4.9
			c-2.1,1.2-4.6,1.8-7.4,1.8C154.9,42.3,152.3,41.7,150,40.5z"/>
	</g>
	<g>
		<path style="fill:#FFA002;" d="M34.5,53.7c-2.9-1.5-5.2-3.7-6.9-6.4s-2.5-5.8-2.5-9.1c0-3.4,0.8-6.4,2.5-9.1
			c1.7-2.7,3.9-4.8,6.9-6.4c2.9-1.5,6.2-2.3,9.8-2.3s6.9,0.8,9.8,2.3c2.9,1.5,5.2,3.7,6.9,6.4c1.7,2.7,2.5,5.8,2.5,9.1
			c0,3.4-0.8,6.4-2.5,9.1c-1.7,2.7-4,4.8-6.9,6.4c-2.9,1.5-6.2,2.3-9.8,2.3S37.4,55.2,34.5,53.7z M49.9,47.8c1.7-0.9,3-2.2,3.9-3.9
			s1.4-3.6,1.4-5.7c0-2.1-0.5-4-1.4-5.7c-1-1.7-2.3-3-3.9-3.9c-1.7-0.9-3.5-1.4-5.6-1.4c-2.1,0-3.9,0.5-5.6,1.4
			c-1.7,0.9-3,2.2-3.9,3.9c-1,1.7-1.4,3.6-1.4,5.7c0,2.1,0.5,4,1.4,5.7c1,1.7,2.3,3,3.9,3.9c1.7,0.9,3.5,1.4,5.6,1.4
			C46.4,49.2,48.2,48.7,49.9,47.8z"/>
		<path style="fill:#FFA002;" d="M93.3,28.9h7.8v10.4h11.7V28.9h7.8v26.5h-7.8v-9.9H101v9.9h-7.8V28.9z"/>
		<path style="fill:#FFA002;" d="M153,31.4c2.2,2,3.4,4.9,3.4,8.8v15.1h-7.3v-3.3c-1.5,2.5-4.2,3.7-8.2,3.7c-2.1,0-3.9-0.3-5.4-1
			c-1.5-0.7-2.7-1.6-3.5-2.9c-0.8-1.2-1.2-2.6-1.2-4.1c0-2.5,0.9-4.4,2.8-5.8c1.9-1.4,4.8-2.1,8.7-2.1h6.2c0-1.7-0.5-3-1.6-3.9
			c-1-0.9-2.6-1.4-4.7-1.4c-1.4,0-2.8,0.2-4.2,0.7c-1.4,0.4-2.6,1-3.5,1.8l-2.8-5.4c1.5-1,3.2-1.8,5.3-2.4s4.2-0.8,6.3-0.8
			C147.6,28.5,150.8,29.5,153,31.4z M146.4,49.7c1-0.6,1.8-1.5,2.2-2.7v-2.7h-5.4c-3.2,0-4.8,1-4.8,3.1c0,1,0.4,1.8,1.2,2.3
			s1.9,0.9,3.2,0.9C144.2,50.6,145.3,50.3,146.4,49.7z"/>
		<path style="fill:#FFA002;" d="M173.3,54.1c-2.3-1.2-4.1-2.8-5.4-4.9c-1.3-2.1-1.9-4.4-1.9-7s0.6-5,1.9-7c1.3-2.1,3.1-3.7,5.4-4.9
			c2.3-1.2,4.9-1.7,7.7-1.7c2.8,0,5.3,0.6,7.4,1.7c2.1,1.2,3.7,2.8,4.6,5l-6.1,3.2c-1.4-2.4-3.4-3.6-6.1-3.6c-2,0-3.7,0.7-5.1,2
			c-1.3,1.3-2,3.1-2,5.4c0,2.3,0.7,4.1,2,5.4c1.3,1.3,3,2,5.1,2c2.7,0,4.7-1.2,6.1-3.6l6.1,3.3c-1,2.1-2.5,3.7-4.6,4.9
			c-2.1,1.2-4.6,1.8-7.4,1.8C178.1,55.8,175.6,55.2,173.3,54.1z"/>
	</g>
</g>
</svg>
