<?xml version="1.0" encoding="utf-8"?>
<!-- Generator: Adobe Illustrator 22.0.0, SVG Export Plug-In . SVG Version: 6.00 Build 0)  -->
<svg version="1.1" id="Layer_1" xmlns="http://www.w3.org/2000/svg" xmlns:xlink="http://www.w3.org/1999/xlink" x="0px" y="0px"
	 viewBox="0 0 35.6 38.3" style="enable-background:new 0 0 35.6 38.3;" xml:space="preserve">
<linearGradient id="SVGID_1_" gradientUnits="userSpaceOnUse" x1="0" y1="19.1358" x2="35.602" y2="19.1358">
	<stop  offset="0" style="stop-color:#FFC50B"/>
	<stop  offset="1" style="stop-color:#FF8639"/>
</linearGradient>
<path style="fill:url(#SVGID_1_);" d="M29.1,25.5c-1.9,0-3.6,0.8-4.8,2.1L12.7,21c0.2-0.6,0.3-1.2,0.3-1.9c0-0.6-0.1-1.3-0.3-1.9
	l11.7-6.6c1.2,1.3,2.9,2.1,4.8,2.1c3.6,0,6.5-2.9,6.5-6.4c0-3.5-2.9-6.4-6.5-6.4s-6.5,2.9-6.5,6.4c0,0.5,0.1,1,0.2,1.5L11,14.6
	c-1.2-1.1-2.8-1.8-4.5-1.8c-3.6,0-6.5,2.9-6.5,6.4s2.9,6.4,6.5,6.4c1.7,0,3.3-0.7,4.5-1.8l11.9,6.7c-0.1,0.5-0.2,1-0.2,1.5
	c0,3.5,2.9,6.4,6.5,6.4s6.5-2.9,6.5-6.4C35.6,28.4,32.7,25.5,29.1,25.5z"/>
</svg>
