<?xml version="1.0" encoding="utf-8"?>
<!-- Generator: Adobe Illustrator 22.0.0, SVG Export Plug-In . SVG Version: 6.00 Build 0)  -->
<svg version="1.1" id="Layer_1" xmlns="http://www.w3.org/2000/svg" xmlns:xlink="http://www.w3.org/1999/xlink" x="0px" y="0px"
	 viewBox="0 0 142.8 50.4" style="enable-background:new 0 0 142.8 50.4;" xml:space="preserve">
<g>
	<g>
		<g>
			<g>
				<defs>
					<path id="SVGID_1_" d="M117.6,50.4H25.2C11.3,50.4,0,39.1,0,25.2S11.3,0,25.2,0h92.4c13.9,0,25.2,11.3,25.2,25.2
						S131.5,50.4,117.6,50.4z M25.2,2.8c-12.3,0-22.4,10-22.4,22.4s10,22.4,22.4,22.4h92.4c12.3,0,22.4-10,22.4-22.4
						s-10-22.4-22.4-22.4H25.2z"/>
				</defs>
				<use xlink:href="#SVGID_1_"  style="overflow:visible;fill:#FFC50B;"/>
				<clipPath id="SVGID_2_">
					<use xlink:href="#SVGID_1_"  style="overflow:visible;"/>
				</clipPath>
			</g>
			<g>
				<defs>
					<path id="SVGID_3_" d="M117.6,50.4H25.2C11.3,50.4,0,39.1,0,25.2S11.3,0,25.2,0h92.4c13.9,0,25.2,11.3,25.2,25.2
						S131.5,50.4,117.6,50.4z M25.2,2.8c-12.3,0-22.4,10-22.4,22.4s10,22.4,22.4,22.4h92.4c12.3,0,22.4-10,22.4-22.4
						s-10-22.4-22.4-22.4H25.2z"/>
				</defs>
				<use xlink:href="#SVGID_3_"  style="overflow:visible;opacity:0.23;fill:#FFC50B;"/>
				<clipPath id="SVGID_4_">
					<use xlink:href="#SVGID_3_"  style="overflow:visible;opacity:0.23;"/>
				</clipPath>
			</g>
		</g>
		<g>
			<path style="fill:#AFB1B2;" d="M56.8,32c-1.2-0.6-2.1-1.5-2.8-2.6c-0.7-1.1-1-2.3-1-3.7s0.3-2.6,1-3.7c0.7-1.1,1.6-2,2.8-2.6
				c1.2-0.6,2.5-0.9,4-0.9c1.5,0,2.8,0.3,4,0.9c1.2,0.6,2.1,1.5,2.8,2.6c0.7,1.1,1,2.3,1,3.7s-0.3,2.6-1,3.7c-0.7,1.1-1.6,2-2.8,2.6
				c-1.2,0.6-2.5,0.9-4,0.9C59.3,32.9,57.9,32.6,56.8,32z M62.3,28.8c0.5-0.3,0.8-0.7,1.1-1.2s0.4-1.1,0.4-1.8s-0.1-1.3-0.4-1.8
				s-0.6-0.9-1.1-1.2c-0.5-0.3-1-0.4-1.6-0.4c-0.6,0-1.1,0.1-1.6,0.4c-0.5,0.3-0.8,0.7-1.1,1.2c-0.3,0.5-0.4,1.1-0.4,1.8
				s0.1,1.3,0.4,1.8c0.3,0.5,0.6,0.9,1.1,1.2c0.5,0.3,1,0.4,1.6,0.4C61.3,29.2,61.8,29,62.3,28.8z"/>
			<path style="fill:#AFB1B2;" d="M81.8,25.5l4.1,7.1h-5.2l-2.6-5h-1.3v5H72V18.8h4.6V24h1.4l2.9-5.1h4.8L81.8,25.5z"/>
		</g>
	</g>
</g>
</svg>
